<svg width="35" height="35" viewBox="0 0 35 35" fill="none" xmlns="http://www.w3.org/2000/svg">
<circle cx="17.5" cy="17.5" r="17.5" fill="black" fill-opacity="0.3"/>
<path d="M28.547 17.9574C28.547 19.8096 27.0398 21.3168 25.1877 21.3168H19.853C20.9996 22.5967 20.9492 24.7042 19.7242 25.9315C19.0942 26.5612 18.2399 26.915 17.3491 26.915C16.4583 26.915 15.604 26.5612 14.974 25.9315L7 17.9574L14.974 9.98339C15.604 9.3536 16.4583 8.99981 17.3491 8.99981C18.2399 8.99981 19.0942 9.3536 19.7242 9.98339C20.9504 11.2084 21.0008 13.3192 19.853 14.598L25.1877 14.598C27.0398 14.598 28.547 16.1053 28.547 17.9574ZM14.4533 19.0772H25.1877C25.476 19.0643 25.7482 18.9407 25.9477 18.7321C26.1472 18.5235 26.2585 18.246 26.2585 17.9574C26.2585 17.6688 26.1472 17.3913 25.9477 17.1827C25.7482 16.9741 25.476 16.8505 25.1877 16.8376H14.4533L18.1408 13.1502C18.3446 12.937 18.4584 12.6534 18.4584 12.3585C18.4584 12.0635 18.3446 11.7799 18.1408 11.5668C17.9308 11.3568 17.646 11.2389 17.3491 11.2389C17.0522 11.2389 16.7674 11.3568 16.5574 11.5668L10.1668 17.9574L16.5574 24.3481C16.7674 24.558 17.0522 24.6759 17.3491 24.6759C17.646 24.6759 17.9308 24.558 18.1408 24.3481C18.3446 24.1349 18.4584 23.8513 18.4584 23.5564C18.4584 23.2614 18.3446 22.9779 18.1408 22.7647L14.4533 19.0772Z" fill="white"/>
</svg>
