<svg width="24" height="24" viewBox="0 0 24 24" fill="none" xmlns="http://www.w3.org/2000/svg">
<path d="M8.5 17C8.83152 17 9.14946 16.8683 9.38388 16.6339C9.6183 16.3995 9.75 16.0815 9.75 15.75C9.75 15.4185 9.6183 15.1005 9.38388 14.8661C9.14946 14.6317 8.83152 14.5 8.5 14.5C8.16848 14.5 7.85054 14.6317 7.61612 14.8661C7.3817 15.1005 7.25 15.4185 7.25 15.75C7.25 16.0815 7.3817 16.3995 7.61612 16.6339C7.85054 16.8683 8.16848 17 8.5 17ZM8.5 20.5C8.83152 20.5 9.14946 20.3683 9.38388 20.1339C9.6183 19.8995 9.75 19.5815 9.75 19.25C9.75 18.9185 9.6183 18.6005 9.38388 18.3661C9.14946 18.1317 8.83152 18 8.5 18C8.16848 18 7.85054 18.1317 7.61612 18.3661C7.3817 18.6005 7.25 18.9185 7.25 19.25C7.25 19.5815 7.3817 19.8995 7.61612 20.1339C7.85054 20.3683 8.16848 20.5 8.5 20.5ZM13.25 15.75C13.25 16.0815 13.1183 16.3995 12.8839 16.6339C12.6495 16.8683 12.3315 17 12 17C11.6685 17 11.3505 16.8683 11.1161 16.6339C10.8817 16.3995 10.75 16.0815 10.75 15.75C10.75 15.4185 10.8817 15.1005 11.1161 14.8661C11.3505 14.6317 11.6685 14.5 12 14.5C12.3315 14.5 12.6495 14.6317 12.8839 14.8661C13.1183 15.1005 13.25 15.4185 13.25 15.75ZM12 20.5C12.3315 20.5 12.6495 20.3683 12.8839 20.1339C13.1183 19.8995 13.25 19.5815 13.25 19.25C13.25 18.9185 13.1183 18.6005 12.8839 18.3661C12.6495 18.1317 12.3315 18 12 18C11.6685 18 11.3505 18.1317 11.1161 18.3661C10.8817 18.6005 10.75 18.9185 10.75 19.25C10.75 19.5815 10.8817 19.8995 11.1161 20.1339C11.3505 20.3683 11.6685 20.5 12 20.5ZM16.75 15.75C16.75 16.0815 16.6183 16.3995 16.3839 16.6339C16.1495 16.8683 15.8315 17 15.5 17C15.1685 17 14.8505 16.8683 14.6161 16.6339C14.3817 16.3995 14.25 16.0815 14.25 15.75C14.25 15.4185 14.3817 15.1005 14.6161 14.8661C14.8505 14.6317 15.1685 14.5 15.5 14.5C15.8315 14.5 16.1495 14.6317 16.3839 14.8661C16.6183 15.1005 16.75 15.4185 16.75 15.75Z" fill="black"/>
<path fill-rule="evenodd" clip-rule="evenodd" d="M8 5.25C8.19891 5.25 8.38968 5.32902 8.53033 5.46967C8.67098 5.61032 8.75 5.80109 8.75 6V6.75H15.25V6C15.25 5.80109 15.329 5.61032 15.4697 5.46967C15.6103 5.32902 15.8011 5.25 16 5.25C16.1989 5.25 16.3897 5.32902 16.5303 5.46967C16.671 5.61032 16.75 5.80109 16.75 6V6.758C16.902 6.762 17.0437 6.76933 17.175 6.78C17.555 6.81 17.911 6.878 18.248 7.05C18.7656 7.31367 19.1863 7.73445 19.45 8.252C19.622 8.589 19.69 8.945 19.72 9.325C19.75 9.69 19.75 10.135 19.75 10.67V18.33C19.75 18.865 19.75 19.31 19.72 19.675C19.69 20.055 19.622 20.411 19.45 20.748C19.1866 21.2654 18.7662 21.6862 18.249 21.95C17.911 22.122 17.555 22.19 17.175 22.22C16.81 22.25 16.365 22.25 15.831 22.25H8.17C7.635 22.25 7.19 22.25 6.825 22.22C6.445 22.19 6.089 22.122 5.752 21.95C5.23475 21.6869 4.81401 21.2668 4.55 20.75C4.378 20.412 4.31 20.056 4.28 19.676C4.25 19.311 4.25 18.866 4.25 18.332V10.67C4.25 10.135 4.25 9.69 4.28 9.325C4.31 8.945 4.378 8.589 4.55 8.252C4.81367 7.73445 5.23445 7.31367 5.752 7.05C6.089 6.878 6.445 6.81 6.825 6.78C6.95633 6.76933 7.098 6.762 7.25 6.758V6C7.25 5.90151 7.2694 5.80398 7.30709 5.71299C7.34478 5.62199 7.40003 5.53931 7.46967 5.46967C7.53931 5.40003 7.62199 5.34478 7.71299 5.30709C7.80398 5.2694 7.90151 5.25 8 5.25ZM7.25 8.5V8.258C7.14887 8.26111 7.04784 8.26678 6.947 8.275C6.66 8.298 6.523 8.34 6.433 8.386C6.19741 8.50591 6.00591 8.69741 5.886 8.933C5.84 9.023 5.798 9.16 5.775 9.447C5.751 9.743 5.75 10.127 5.75 10.7V11.25H18.25V10.7C18.25 10.128 18.25 9.743 18.225 9.447C18.202 9.16 18.16 9.023 18.114 8.933C17.9941 8.69741 17.8026 8.50591 17.567 8.386C17.477 8.34 17.34 8.298 17.052 8.275C16.9515 8.2668 16.8508 8.26113 16.75 8.258V8.5C16.75 8.69891 16.671 8.88968 16.5303 9.03033C16.3897 9.17098 16.1989 9.25 16 9.25C15.8011 9.25 15.6103 9.17098 15.4697 9.03033C15.329 8.88968 15.25 8.69891 15.25 8.5V8.25H8.75V8.5C8.75 8.69891 8.67098 8.88968 8.53033 9.03033C8.38968 9.17098 8.19891 9.25 8 9.25C7.80109 9.25 7.61032 9.17098 7.46967 9.03033C7.32902 8.88968 7.25 8.69891 7.25 8.5ZM18.25 12.25H5.75V18.3C5.75 18.872 5.75 19.257 5.775 19.552C5.798 19.84 5.84 19.977 5.886 20.067C6.006 20.303 6.197 20.494 6.433 20.614C6.523 20.66 6.66 20.702 6.947 20.725C7.243 20.749 7.627 20.75 8.2 20.75H15.8C16.372 20.75 16.757 20.75 17.052 20.725C17.34 20.702 17.477 20.66 17.567 20.614C17.8026 20.4941 17.9941 20.3026 18.114 20.067C18.16 19.977 18.202 19.84 18.225 19.552C18.249 19.257 18.25 18.872 18.25 18.3V12.25Z" fill="black"/>
<path fill-rule="evenodd" clip-rule="evenodd" d="M9.75 10.75C9.75 10.5511 9.82902 10.3603 9.96967 10.2197C10.1103 10.079 10.3011 10 10.5 10H13.5C13.6989 10 13.8897 10.079 14.0303 10.2197C14.171 10.3603 14.25 10.5511 14.25 10.75C14.25 10.9489 14.171 11.1397 14.0303 11.2803C13.8897 11.421 13.6989 11.5 13.5 11.5H10.5C10.3011 11.5 10.1103 11.421 9.96967 11.2803C9.82902 11.1397 9.75 10.9489 9.75 10.75Z" fill="black"/>
</svg>
