<svg width="301" height="158" viewBox="0 0 301 158" fill="none" xmlns="http://www.w3.org/2000/svg">
<g clip-path="url(#clip0_1439_11058)">
<g clip-path="url(#clip1_1439_11058)">
<g filter="url(#filter0_d_1439_11058)">
<path d="M-1 -3C-1 -3 44 -0.5 147 -0.5C250 -0.5 299 -3 299 -3V155C299 155 250 153 149 153C48 153 -1 155 -1 155V-3Z" fill="#E13838"/>
</g>
<circle cx="13.5" cy="13.5" r="13.5" transform="matrix(-1 0 0 1 318 67)" fill="white"/>
<ellipse cx="4.5" cy="3" rx="4.5" ry="3" transform="matrix(-1 0 0 1 305 54)" fill="white"/>
<ellipse cx="4.5" cy="3" rx="4.5" ry="3" transform="matrix(-1 0 0 1 305 40)" fill="white"/>
<ellipse cx="4.5" cy="3.5" rx="4.5" ry="3.5" transform="matrix(-1 0 0 1 305 114)" fill="white"/>
<ellipse cx="4.5" cy="3.5" rx="4.5" ry="3.5" transform="matrix(-1 0 0 1 305 100)" fill="white"/>
<circle cx="299" cy="5" r="15" fill="white"/>
<circle cx="296" cy="155" r="15" fill="white"/>
<circle cy="6" r="15" fill="white"/>
<circle cx="2" cy="155" r="15" fill="white"/>
<circle cx="13.5" cy="13.5" r="13.5" transform="matrix(-1 0 0 1 9 67)" fill="white"/>
<ellipse cx="4.5" cy="3" rx="4.5" ry="3" transform="matrix(-1 0 0 1 5 54)" fill="white"/>
<ellipse cx="4.5" cy="3" rx="4.5" ry="3" transform="matrix(-1 0 0 1 5 40)" fill="white"/>
<ellipse cx="4.5" cy="3.5" rx="4.5" ry="3.5" transform="matrix(-1 0 0 1 5 114)" fill="white"/>
<ellipse cx="4.5" cy="3.5" rx="4.5" ry="3.5" transform="matrix(-1 0 0 1 5 100)" fill="white"/>
<g filter="url(#filter1_d_1439_11058)">
<g clip-path="url(#clip2_1439_11058)">
<rect x="24" y="12" width="250" height="134" rx="10" fill="white"/>
<rect x="123.5" y="41.5" width="131" height="28" stroke="#E13838"/>
<path d="M145.898 58.3398H149.402C149.332 59.4883 149.016 60.5078 148.453 61.3984C147.898 62.2891 147.121 62.9844 146.121 63.4844C145.129 63.9844 143.934 64.2344 142.535 64.2344C141.441 64.2344 140.461 64.0469 139.594 63.6719C138.727 63.2891 137.984 62.7422 137.367 62.0312C136.758 61.3203 136.293 60.4609 135.973 59.4531C135.652 58.4453 135.492 57.3164 135.492 56.0664V54.8828C135.492 53.6328 135.656 52.5039 135.984 51.4961C136.32 50.4805 136.797 49.6172 137.414 48.9062C138.039 48.1953 138.785 47.6484 139.652 47.2656C140.52 46.8828 141.488 46.6914 142.559 46.6914C143.98 46.6914 145.18 46.9492 146.156 47.4648C147.141 47.9805 147.902 48.6914 148.441 49.5977C148.988 50.5039 149.316 51.5352 149.426 52.6914H145.91C145.871 52.0039 145.734 51.4219 145.5 50.9453C145.266 50.4609 144.91 50.0977 144.434 49.8555C143.965 49.6055 143.34 49.4805 142.559 49.4805C141.973 49.4805 141.461 49.5898 141.023 49.8086C140.586 50.0273 140.219 50.3594 139.922 50.8047C139.625 51.25 139.402 51.8125 139.254 52.4922C139.113 53.1641 139.043 53.9531 139.043 54.8594V56.0664C139.043 56.9492 139.109 57.7266 139.242 58.3984C139.375 59.0625 139.578 59.625 139.852 60.0859C140.133 60.5391 140.492 60.8828 140.93 61.1172C141.375 61.3438 141.91 61.457 142.535 61.457C143.27 61.457 143.875 61.3398 144.352 61.1055C144.828 60.8711 145.191 60.5234 145.441 60.0625C145.699 59.6016 145.852 59.0273 145.898 58.3398ZM168.127 55.0703V55.8789C168.127 57.1758 167.951 58.3398 167.599 59.3711C167.248 60.4023 166.752 61.2812 166.111 62.0078C165.47 62.7266 164.705 63.2773 163.814 63.6602C162.931 64.043 161.951 64.2344 160.873 64.2344C159.802 64.2344 158.822 64.043 157.931 63.6602C157.048 63.2773 156.283 62.7266 155.634 62.0078C154.986 61.2812 154.482 60.4023 154.123 59.3711C153.771 58.3398 153.595 57.1758 153.595 55.8789V55.0703C153.595 53.7656 153.771 52.6016 154.123 51.5781C154.474 50.5469 154.97 49.668 155.611 48.9414C156.259 48.2148 157.025 47.6602 157.908 47.2773C158.798 46.8945 159.779 46.7031 160.849 46.7031C161.927 46.7031 162.908 46.8945 163.791 47.2773C164.681 47.6602 165.447 48.2148 166.087 48.9414C166.736 49.668 167.236 50.5469 167.587 51.5781C167.947 52.6016 168.127 53.7656 168.127 55.0703ZM164.576 55.8789V55.0469C164.576 54.1406 164.494 53.3438 164.33 52.6562C164.166 51.9688 163.923 51.3906 163.603 50.9219C163.283 50.4531 162.892 50.1016 162.431 49.8672C161.97 49.625 161.443 49.5039 160.849 49.5039C160.255 49.5039 159.728 49.625 159.267 49.8672C158.814 50.1016 158.427 50.4531 158.107 50.9219C157.795 51.3906 157.556 51.9688 157.392 52.6562C157.228 53.3438 157.146 54.1406 157.146 55.0469V55.8789C157.146 56.7773 157.228 57.5742 157.392 58.2695C157.556 58.957 157.798 59.5391 158.119 60.0156C158.439 60.4844 158.83 60.8398 159.291 61.082C159.752 61.3242 160.279 61.4453 160.873 61.4453C161.466 61.4453 161.994 61.3242 162.455 61.082C162.916 60.8398 163.302 60.4844 163.615 60.0156C163.927 59.5391 164.166 58.957 164.33 58.2695C164.494 57.5742 164.576 56.7773 164.576 55.8789ZM182.48 46.9375H185.984V58.2109C185.984 59.5234 185.702 60.6289 185.14 61.5273C184.585 62.4258 183.816 63.1016 182.831 63.5547C181.855 64.0078 180.73 64.2344 179.456 64.2344C178.183 64.2344 177.05 64.0078 176.058 63.5547C175.073 63.1016 174.3 62.4258 173.737 61.5273C173.183 60.6289 172.905 59.5234 172.905 58.2109V46.9375H176.421V58.2109C176.421 58.9766 176.542 59.6016 176.784 60.0859C177.027 60.5703 177.374 60.9258 177.827 61.1523C178.288 61.3789 178.831 61.4922 179.456 61.4922C180.097 61.4922 180.64 61.3789 181.085 61.1523C181.538 60.9258 181.882 60.5703 182.116 60.0859C182.359 59.6016 182.48 58.9766 182.48 58.2109V46.9375ZM197.923 57.918H193.575V55.1758H197.923C198.595 55.1758 199.141 55.0664 199.563 54.8477C199.985 54.6211 200.294 54.3086 200.489 53.9102C200.684 53.5117 200.782 53.0625 200.782 52.5625C200.782 52.0547 200.684 51.582 200.489 51.1445C200.294 50.707 199.985 50.3555 199.563 50.0898C199.141 49.8242 198.595 49.6914 197.923 49.6914H194.794V64H191.278V46.9375H197.923C199.259 46.9375 200.403 47.1797 201.356 47.6641C202.317 48.1406 203.052 48.8008 203.559 49.6445C204.067 50.4883 204.321 51.4531 204.321 52.5391C204.321 53.6406 204.067 54.5938 203.559 55.3984C203.052 56.2031 202.317 56.8242 201.356 57.2617C200.403 57.6992 199.259 57.918 197.923 57.918ZM223.162 55.0703V55.8789C223.162 57.1758 222.987 58.3398 222.635 59.3711C222.284 60.4023 221.787 61.2812 221.147 62.0078C220.506 62.7266 219.741 63.2773 218.85 63.6602C217.967 64.043 216.987 64.2344 215.909 64.2344C214.838 64.2344 213.858 64.043 212.967 63.6602C212.084 63.2773 211.319 62.7266 210.67 62.0078C210.022 61.2812 209.518 60.4023 209.159 59.3711C208.807 58.3398 208.631 57.1758 208.631 55.8789V55.0703C208.631 53.7656 208.807 52.6016 209.159 51.5781C209.51 50.5469 210.006 49.668 210.647 48.9414C211.295 48.2148 212.061 47.6602 212.944 47.2773C213.834 46.8945 214.815 46.7031 215.885 46.7031C216.963 46.7031 217.944 46.8945 218.827 47.2773C219.717 47.6602 220.483 48.2148 221.123 48.9414C221.772 49.668 222.272 50.5469 222.623 51.5781C222.983 52.6016 223.162 53.7656 223.162 55.0703ZM219.612 55.8789V55.0469C219.612 54.1406 219.53 53.3438 219.366 52.6562C219.202 51.9688 218.959 51.3906 218.639 50.9219C218.319 50.4531 217.928 50.1016 217.467 49.8672C217.006 49.625 216.479 49.5039 215.885 49.5039C215.291 49.5039 214.764 49.625 214.303 49.8672C213.85 50.1016 213.463 50.4531 213.143 50.9219C212.83 51.3906 212.592 51.9688 212.428 52.6562C212.264 53.3438 212.182 54.1406 212.182 55.0469V55.8789C212.182 56.7773 212.264 57.5742 212.428 58.2695C212.592 58.957 212.834 59.5391 213.155 60.0156C213.475 60.4844 213.866 60.8398 214.327 61.082C214.787 61.3242 215.315 61.4453 215.909 61.4453C216.502 61.4453 217.03 61.3242 217.491 61.082C217.952 60.8398 218.338 60.4844 218.651 60.0156C218.963 59.5391 219.202 58.957 219.366 58.2695C219.53 57.5742 219.612 56.7773 219.612 55.8789ZM241.98 46.9375V64H238.465L231.609 52.5625V64H228.094V46.9375H231.609L238.477 58.3867V46.9375H241.98Z" fill="#E13838"/>
<path d="M174.037 99.0273V103H164.105V99.0273H174.037ZM190.385 86.3535V112H185.322V92.1895L179.24 94.123V90.1328L189.84 86.3535H190.385ZM215.943 96.9531V101.383C215.943 103.305 215.738 104.963 215.328 106.357C214.918 107.74 214.326 108.877 213.553 109.768C212.791 110.646 211.883 111.297 210.828 111.719C209.773 112.141 208.602 112.352 207.312 112.352C206.281 112.352 205.32 112.223 204.43 111.965C203.539 111.695 202.736 111.279 202.021 110.717C201.318 110.154 200.709 109.445 200.193 108.59C199.689 107.723 199.303 106.691 199.033 105.496C198.764 104.301 198.629 102.93 198.629 101.383V96.9531C198.629 95.0312 198.834 93.3848 199.244 92.0137C199.666 90.6309 200.258 89.5 201.02 88.6211C201.793 87.7422 202.707 87.0977 203.762 86.6875C204.816 86.2656 205.988 86.0547 207.277 86.0547C208.309 86.0547 209.264 86.1895 210.143 86.459C211.033 86.7168 211.836 87.1211 212.551 87.6719C213.266 88.2227 213.875 88.9316 214.379 89.7988C214.883 90.6543 215.27 91.6797 215.539 92.875C215.809 94.0586 215.943 95.418 215.943 96.9531ZM210.863 102.051V96.2676C210.863 95.3418 210.811 94.5332 210.705 93.8418C210.611 93.1504 210.465 92.5645 210.266 92.084C210.066 91.5918 209.82 91.1934 209.527 90.8887C209.234 90.584 208.9 90.3613 208.525 90.2207C208.15 90.0801 207.734 90.0098 207.277 90.0098C206.703 90.0098 206.193 90.1211 205.748 90.3438C205.314 90.5664 204.945 90.9238 204.641 91.416C204.336 91.8965 204.102 92.541 203.938 93.3496C203.785 94.1465 203.709 95.1191 203.709 96.2676V102.051C203.709 102.977 203.756 103.791 203.85 104.494C203.955 105.197 204.107 105.801 204.307 106.305C204.518 106.797 204.764 107.201 205.045 107.518C205.338 107.822 205.672 108.045 206.047 108.186C206.434 108.326 206.855 108.396 207.312 108.396C207.875 108.396 208.373 108.285 208.807 108.062C209.252 107.828 209.627 107.465 209.932 106.973C210.248 106.469 210.482 105.812 210.635 105.004C210.787 104.195 210.863 103.211 210.863 102.051ZM236.615 96.9531V101.383C236.615 103.305 236.41 104.963 236 106.357C235.59 107.74 234.998 108.877 234.225 109.768C233.463 110.646 232.555 111.297 231.5 111.719C230.445 112.141 229.273 112.352 227.984 112.352C226.953 112.352 225.992 112.223 225.102 111.965C224.211 111.695 223.408 111.279 222.693 110.717C221.99 110.154 221.381 109.445 220.865 108.59C220.361 107.723 219.975 106.691 219.705 105.496C219.436 104.301 219.301 102.93 219.301 101.383V96.9531C219.301 95.0312 219.506 93.3848 219.916 92.0137C220.338 90.6309 220.93 89.5 221.691 88.6211C222.465 87.7422 223.379 87.0977 224.434 86.6875C225.488 86.2656 226.66 86.0547 227.949 86.0547C228.98 86.0547 229.936 86.1895 230.814 86.459C231.705 86.7168 232.508 87.1211 233.223 87.6719C233.938 88.2227 234.547 88.9316 235.051 89.7988C235.555 90.6543 235.941 91.6797 236.211 92.875C236.48 94.0586 236.615 95.418 236.615 96.9531ZM231.535 102.051V96.2676C231.535 95.3418 231.482 94.5332 231.377 93.8418C231.283 93.1504 231.137 92.5645 230.938 92.084C230.738 91.5918 230.492 91.1934 230.199 90.8887C229.906 90.584 229.572 90.3613 229.197 90.2207C228.822 90.0801 228.406 90.0098 227.949 90.0098C227.375 90.0098 226.865 90.1211 226.42 90.3438C225.986 90.5664 225.617 90.9238 225.312 91.416C225.008 91.8965 224.773 92.541 224.609 93.3496C224.457 94.1465 224.381 95.1191 224.381 96.2676V102.051C224.381 102.977 224.428 103.791 224.521 104.494C224.627 105.197 224.779 105.801 224.979 106.305C225.189 106.797 225.436 107.201 225.717 107.518C226.01 107.822 226.344 108.045 226.719 108.186C227.105 108.326 227.527 108.396 227.984 108.396C228.547 108.396 229.045 108.285 229.479 108.062C229.924 107.828 230.299 107.465 230.604 106.973C230.92 106.469 231.154 105.812 231.307 105.004C231.459 104.195 231.535 103.211 231.535 102.051ZM239.99 92.6816V91.3281C239.99 90.3555 240.201 89.4707 240.623 88.6738C241.045 87.877 241.666 87.2383 242.486 86.7578C243.307 86.2773 244.314 86.0371 245.51 86.0371C246.74 86.0371 247.766 86.2773 248.586 86.7578C249.418 87.2383 250.039 87.877 250.449 88.6738C250.871 89.4707 251.082 90.3555 251.082 91.3281V92.6816C251.082 93.6309 250.871 94.5039 250.449 95.3008C250.039 96.0977 249.424 96.7363 248.604 97.2168C247.783 97.6973 246.764 97.9375 245.545 97.9375C244.338 97.9375 243.318 97.6973 242.486 97.2168C241.666 96.7363 241.045 96.0977 240.623 95.3008C240.201 94.5039 239.99 93.6309 239.99 92.6816ZM243.348 91.3281V92.6816C243.348 93.0918 243.424 93.4844 243.576 93.8594C243.74 94.2227 243.986 94.5215 244.314 94.7559C244.654 94.9785 245.064 95.0898 245.545 95.0898C246.049 95.0898 246.459 94.9785 246.775 94.7559C247.092 94.5215 247.326 94.2227 247.479 93.8594C247.631 93.4844 247.707 93.0918 247.707 92.6816V91.3281C247.707 90.8945 247.625 90.4961 247.461 90.1328C247.309 89.7578 247.068 89.459 246.74 89.2363C246.424 89.002 246.014 88.8848 245.51 88.8848C245.041 88.8848 244.643 89.002 244.314 89.2363C243.986 89.459 243.74 89.7578 243.576 90.1328C243.424 90.4961 243.348 90.8945 243.348 91.3281ZM252.225 107.078V105.725C252.225 104.764 252.436 103.885 252.857 103.088C253.291 102.291 253.918 101.652 254.738 101.172C255.57 100.691 256.59 100.451 257.797 100.451C259.016 100.451 260.035 100.691 260.855 101.172C261.676 101.652 262.297 102.291 262.719 103.088C263.141 103.885 263.352 104.764 263.352 105.725V107.078C263.352 108.039 263.141 108.918 262.719 109.715C262.309 110.512 261.693 111.15 260.873 111.631C260.053 112.111 259.039 112.352 257.832 112.352C256.613 112.352 255.588 112.111 254.756 111.631C253.924 111.15 253.291 110.512 252.857 109.715C252.436 108.918 252.225 108.039 252.225 107.078ZM255.6 105.725V107.078C255.6 107.5 255.693 107.898 255.881 108.273C256.068 108.648 256.326 108.947 256.654 109.17C256.994 109.393 257.387 109.504 257.832 109.504C258.395 109.504 258.834 109.393 259.15 109.17C259.467 108.947 259.684 108.648 259.801 108.273C259.93 107.898 259.994 107.5 259.994 107.078V105.725C259.994 105.303 259.912 104.91 259.748 104.547C259.584 104.172 259.338 103.873 259.01 103.65C258.693 103.416 258.289 103.299 257.797 103.299C257.305 103.299 256.895 103.416 256.566 103.65C256.25 103.873 256.01 104.172 255.846 104.547C255.682 104.91 255.6 105.303 255.6 105.725ZM259.045 90.0625L246.547 110.066L244.086 108.766L256.584 88.7617L259.045 90.0625Z" fill="#E13838"/>
<rect x="73.7747" y="-78.8357" width="117.007" height="194.049" transform="rotate(44.4023 73.7747 -78.8357)" fill="#F5CB58"/>
<circle cx="88.141" cy="99.141" r="3.14103" fill="#E13838"/>
<circle cx="101.962" cy="99.141" r="3.14103" fill="#E13838"/>
<circle cx="115.782" cy="99.141" r="3.14103" fill="#E13838"/>
<circle cx="130.859" cy="99.141" r="3.14103" fill="#E13838"/>
<circle cx="88.141" cy="111.705" r="3.14103" fill="#E13838"/>
<circle cx="101.962" cy="111.705" r="3.14103" fill="#E13838"/>
<circle cx="115.782" cy="111.705" r="3.14103" fill="#E13838"/>
<circle cx="130.859" cy="111.705" r="3.14103" fill="#E13838"/>
<circle cx="88.141" cy="124.269" r="3.14103" fill="#E13838"/>
<circle cx="101.962" cy="124.269" r="3.14103" fill="#E13838"/>
<circle cx="115.782" cy="124.269" r="3.14103" fill="#E13838"/>
<circle cx="130.859" cy="124.269" r="3.14103" fill="#E13838"/>
</g>
<rect x="24.5" y="12.5" width="249" height="133" rx="9.5" stroke="#CCCCCC"/>
</g>
</g>
<circle cx="13.5" cy="13.5" r="13.5" transform="matrix(-1 0 0 1 318 67)" fill="#F5F5F5"/>
<ellipse cx="4.5" cy="3" rx="4.5" ry="3" transform="matrix(-1 0 0 1 305 54)" fill="#F5F5F5"/>
<ellipse cx="4.5" cy="3" rx="4.5" ry="3" transform="matrix(-1 0 0 1 305 40)" fill="#F5F5F5"/>
<ellipse cx="4.5" cy="3.5" rx="4.5" ry="3.5" transform="matrix(-1 0 0 1 305 114)" fill="#F5F5F5"/>
<ellipse cx="4.5" cy="3.5" rx="4.5" ry="3.5" transform="matrix(-1 0 0 1 305 100)" fill="#F5F5F5"/>
<circle cx="299" cy="5" r="15" fill="#F5F5F5"/>
<circle cx="296" cy="155" r="15" fill="#F5F5F5"/>
<circle cy="6" r="15" fill="#F5F5F5"/>
<circle cx="2" cy="155" r="15" fill="#F5F5F5"/>
<circle cx="13.5" cy="13.5" r="13.5" transform="matrix(-1 0 0 1 9 67)" fill="#F5F5F5"/>
<ellipse cx="4.5" cy="3" rx="4.5" ry="3" transform="matrix(-1 0 0 1 5 54)" fill="#F5F5F5"/>
<ellipse cx="4.5" cy="3" rx="4.5" ry="3" transform="matrix(-1 0 0 1 5 40)" fill="#F5F5F5"/>
<ellipse cx="4.5" cy="3.5" rx="4.5" ry="3.5" transform="matrix(-1 0 0 1 5 114)" fill="#F5F5F5"/>
<ellipse cx="4.5" cy="3.5" rx="4.5" ry="3.5" transform="matrix(-1 0 0 1 5 100)" fill="#F5F5F5"/>
<path d="M35.1027 23.2659L32.9113 23.2663L32.8994 22.0593L34.7392 22.059C35.0635 22.0589 35.3291 22.0179 35.5361 21.9358C35.7431 21.8498 35.8974 21.7268 35.9989 21.5666C36.1044 21.4025 36.1571 21.2033 36.157 20.9689C36.157 20.7033 36.1062 20.4884 36.0046 20.3244C35.9069 20.1604 35.7526 20.0412 35.5416 19.9671C35.3346 19.8929 35.067 19.8558 34.7389 19.8559L33.5201 19.856L33.5213 27.0103L31.7635 27.0106L31.7621 18.4794L34.7387 18.4789C35.2348 18.4788 35.6781 18.5256 36.0688 18.6193C36.4633 18.713 36.7973 18.8555 37.0708 19.0469C37.3443 19.2382 37.5533 19.4804 37.6979 19.7733C37.8424 20.0624 37.9148 20.4061 37.9148 20.8046C37.9149 21.1561 37.8349 21.4804 37.6747 21.7773C37.5185 22.0742 37.2705 22.3164 36.9307 22.5039C36.5948 22.6915 36.1554 22.7951 35.6124 22.8147L35.1027 23.2659ZM35.0271 27.0101L32.4314 27.0105L33.1168 25.6393L35.0269 25.639C35.3355 25.639 35.5875 25.5901 35.7828 25.4924C35.9781 25.3908 36.1226 25.2541 36.2163 25.0822C36.31 24.9103 36.3569 24.713 36.3568 24.4904C36.3568 24.2404 36.3138 24.0236 36.2278 23.84C36.1457 23.6564 36.0129 23.5158 35.8293 23.4182C35.6457 23.3166 35.4035 23.2659 35.1027 23.2659L33.4094 23.2662L33.4209 22.0592L35.5303 22.0588L35.9346 22.5334C36.4542 22.5255 36.8721 22.6172 37.1886 22.8086C37.5089 22.996 37.7414 23.2401 37.886 23.5409C38.0344 23.8417 38.1087 24.1639 38.1088 24.5077C38.1089 25.0545 37.9898 25.5155 37.7516 25.8905C37.5133 26.2617 37.1638 26.541 36.7029 26.7286C36.2459 26.9162 35.6873 27.01 35.0271 27.0101ZM42.24 27.1261C41.7479 27.1262 41.3064 27.0482 40.9158 26.892C40.5251 26.7319 40.1931 26.5112 39.9196 26.23C39.65 25.9488 39.4429 25.6227 39.2983 25.2516C39.1538 24.8766 39.0814 24.4782 39.0814 24.0563L39.0813 23.822C39.0812 23.3415 39.1495 22.902 39.2862 22.5036C39.4228 22.1051 39.6181 21.7594 39.872 21.4664C40.1297 21.1734 40.4422 20.9487 40.8094 20.7924C41.1765 20.6322 41.5906 20.552 42.0515 20.552C42.5007 20.5519 42.8992 20.626 43.2469 20.7744C43.5945 20.9228 43.8856 21.1337 44.12 21.4071C44.3583 21.6805 44.5381 22.0086 44.6592 22.3914C44.7804 22.7703 44.841 23.1921 44.8411 23.657L44.8412 24.3601L39.8021 24.3609L39.8019 23.2359L43.1828 23.2354L43.1828 23.1065C43.1827 22.8721 43.1397 22.6631 43.0538 22.4795C42.9717 22.292 42.8467 22.1436 42.6787 22.0343C42.5107 21.9249 42.2959 21.8703 42.0341 21.8703C41.8115 21.8703 41.6201 21.9192 41.4599 22.0169C41.2998 22.1146 41.169 22.2513 41.0674 22.4271C40.9698 22.6029 40.8956 22.8099 40.8449 23.0482C40.798 23.2826 40.7746 23.5404 40.7747 23.8217L40.7747 24.0561C40.7748 24.31 40.81 24.5443 40.8803 24.7592C40.9546 24.974 41.0581 25.1595 41.1909 25.3158C41.3277 25.472 41.4918 25.5931 41.6832 25.679C41.8785 25.7649 42.0992 25.8078 42.3453 25.8078C42.65 25.8077 42.9332 25.7491 43.1949 25.6318C43.4605 25.5107 43.689 25.329 43.8803 25.0868L44.7008 25.9773C44.568 26.1687 44.3864 26.3524 44.156 26.5282C43.9294 26.704 43.656 26.8486 43.3357 26.9619C43.0154 27.0713 42.6502 27.1261 42.24 27.1261ZM41.0494 19.808L42.1976 18.0031L44.0316 18.0028L42.4205 19.8078L41.0494 19.808ZM47.4541 22.0218L47.4549 27.0081L45.7674 27.0084L45.7664 20.6685L47.3484 20.6683L47.4541 22.0218ZM47.2082 23.6156L46.7512 23.6157C46.7511 23.1469 46.8116 22.725 46.9326 22.35C47.0537 21.9711 47.2236 21.6488 47.4423 21.3831C47.661 21.1136 47.9207 20.9084 48.2215 20.7678C48.5261 20.6232 48.866 20.5509 49.241 20.5508C49.5378 20.5508 49.8093 20.5937 50.0554 20.6796C50.3015 20.7655 50.5125 20.9022 50.6883 21.0896C50.868 21.2771 51.0048 21.5251 51.0986 21.8337C51.1963 22.1423 51.2452 22.5192 51.2452 22.9646L51.2459 27.0075L49.5467 27.0078L49.546 22.959C49.546 22.6777 49.5069 22.459 49.4287 22.3027C49.3506 22.1465 49.2353 22.0371 49.083 21.9747C48.9345 21.9083 48.7509 21.8751 48.5322 21.8751C48.3056 21.8752 48.1084 21.9201 47.9404 22.01C47.7764 22.0999 47.6397 22.2249 47.5303 22.3851C47.4249 22.5413 47.3448 22.7249 47.2902 22.9359C47.2355 23.1468 47.2082 23.3734 47.2082 23.6156ZM55.4471 27.124C54.9549 27.1241 54.5135 27.0461 54.1228 26.8899C53.7322 26.7298 53.4001 26.5091 53.1266 26.2279C52.857 25.9467 52.65 25.6206 52.5054 25.2495C52.3608 24.8745 52.2885 24.4761 52.2884 24.0542L52.2884 23.8199C52.2883 23.3394 52.3566 22.8999 52.4932 22.5015C52.6299 22.103 52.8251 21.7573 53.079 21.4643C53.3368 21.1713 53.6492 20.9466 54.0164 20.7903C54.3835 20.6301 54.7976 20.5499 55.2585 20.5499C55.7078 20.5498 56.1062 20.6239 56.4539 20.7723C56.8016 20.9207 57.0926 21.1316 57.327 21.405C57.5654 21.6784 57.7451 22.0065 57.8662 22.3893C57.9874 22.7682 58.048 23.19 58.0481 23.6549L58.0482 24.358L53.0091 24.3588L53.009 23.2338L56.3898 23.2333L56.3898 23.1044C56.3898 22.87 56.3468 22.661 56.2608 22.4774C56.1787 22.2899 56.0537 22.1415 55.8857 22.0322C55.7177 21.9228 55.5029 21.8682 55.2412 21.8682C55.0185 21.8682 54.8271 21.9171 54.667 22.0148C54.5068 22.1125 54.376 22.2492 54.2745 22.425C54.1768 22.6008 54.1026 22.8078 54.0519 23.0461C54.0051 23.2805 53.9817 23.5383 53.9817 23.8196L53.9817 24.054C53.9818 24.3079 54.017 24.5422 54.0873 24.7571C54.1616 24.9719 54.2651 25.1574 54.398 25.3137C54.5347 25.4699 54.6988 25.591 54.8902 25.6769C55.0855 25.7628 55.3062 25.8057 55.5523 25.8057C55.857 25.8056 56.1402 25.747 56.4019 25.6297C56.6675 25.5086 56.896 25.3269 57.0874 25.0847L57.9078 25.9752C57.7751 26.1666 57.5934 26.3503 57.363 26.5261C57.1365 26.7019 56.8631 26.8465 56.5428 26.9598C56.2225 27.0692 55.8572 27.124 55.4471 27.124ZM54.2565 19.8059L55.4046 18.001L57.2386 18.0007L55.6276 19.8057L54.2565 19.8059ZM61.1189 27.0059L59.4256 27.0062L59.4245 20.3793C59.4244 19.8402 59.5337 19.3851 59.7524 19.014C59.975 18.6429 60.2914 18.3616 60.7015 18.1701C61.1155 17.9786 61.6155 17.8828 62.2015 17.8827C62.5335 17.8827 62.8558 17.9158 63.1683 17.9822C63.4808 18.0446 63.8031 18.1266 64.1351 18.2281L63.8892 19.5817C63.6744 19.5153 63.4439 19.4528 63.1978 19.3943C62.9517 19.3357 62.6548 19.3065 62.3072 19.3065C61.9165 19.3066 61.6197 19.3984 61.4166 19.5821C61.2174 19.7618 61.1178 20.0274 61.1179 20.379L61.1189 27.0059ZM62.3777 20.6659L62.3779 21.8612L58.4814 21.8618L58.4812 20.6665L62.3777 20.6659ZM64.9207 20.6655L64.9217 27.0053L63.2283 27.0056L63.2273 20.6658L64.9207 20.6655ZM68.9527 25.8035C69.1598 25.8035 69.3433 25.7644 69.5035 25.6863C69.6636 25.6042 69.7886 25.4909 69.8784 25.3464C69.9722 25.1979 70.021 25.0241 70.0248 24.8248L71.6127 24.8246C71.6089 25.2699 71.4898 25.6664 71.2555 26.0141C71.0212 26.3579 70.7068 26.6294 70.3123 26.8287C69.9178 27.0241 69.4764 27.1218 68.9881 27.1219C68.4959 27.122 68.0662 27.04 67.699 26.876C67.3357 26.712 67.0329 26.4855 66.7907 26.1965C66.5484 25.9035 66.3668 25.5637 66.2456 25.177C66.1244 24.7864 66.0638 24.3684 66.0638 23.9231L66.0637 23.7532C66.0637 23.304 66.1241 22.886 66.2452 22.4993C66.3662 22.1086 66.5478 21.7688 66.7899 21.4797C67.0321 21.1866 67.3348 20.9581 67.698 20.794C68.0613 20.6298 68.487 20.5477 68.9753 20.5477C69.4949 20.5476 69.95 20.6471 70.3406 20.8463C70.7352 21.0454 71.0438 21.3305 71.2665 21.7016C71.4931 22.0688 71.6085 22.5043 71.6124 23.0082L70.0245 23.0084C70.0206 22.7975 69.9757 22.6061 69.8897 22.4342C69.8076 22.2624 69.6865 22.1257 69.5263 22.0241C69.3701 21.9187 69.1767 21.866 68.9462 21.866C68.7001 21.8661 68.499 21.9188 68.3428 22.0243C68.1865 22.1259 68.0654 22.2666 67.9795 22.4463C67.8936 22.6221 67.8331 22.8232 67.798 23.0498C67.7668 23.2725 67.7512 23.5068 67.7512 23.7529L67.7513 23.9229C67.7513 24.169 67.767 24.4053 67.7982 24.6318C67.8295 24.8584 67.8882 25.0596 67.9741 25.2353C68.064 25.4111 68.1871 25.5497 68.3433 25.6513C68.4996 25.7528 68.7027 25.8036 68.9527 25.8035ZM74.3718 20.664L74.3728 27.0038L72.6795 27.0041L72.6785 20.6643L74.3718 20.664ZM72.5727 19.0119C72.5727 18.7658 72.6586 18.5627 72.8305 18.4025C73.0023 18.2423 73.2328 18.1622 73.5218 18.1622C73.807 18.1621 74.0355 18.2422 74.2074 18.4023C74.3832 18.5624 74.4711 18.7655 74.4712 19.0116C74.4712 19.2577 74.3834 19.4609 74.2076 19.6211C74.0358 19.7812 73.8073 19.8614 73.5221 19.8614C73.233 19.8614 73.0026 19.7814 72.8307 19.6213C72.6588 19.4611 72.5728 19.258 72.5727 19.0119ZM78.6854 27.1203C78.1932 27.1204 77.7518 27.0424 77.3611 26.8862C76.9705 26.7261 76.6384 26.5054 76.3649 26.2242C76.0953 25.943 75.8882 25.6169 75.7437 25.2458C75.5991 24.8708 75.5267 24.4724 75.5267 24.0505L75.5266 23.8162C75.5266 23.3357 75.5948 22.8962 75.7315 22.4978C75.8682 22.0993 76.0634 21.7536 76.3173 21.4606C76.575 21.1676 76.8875 20.9429 77.2547 20.7866C77.6218 20.6264 78.0359 20.5462 78.4968 20.5462C78.946 20.5461 79.3445 20.6202 79.6922 20.7686C80.0398 20.917 80.3309 21.1279 80.5653 21.4013C80.8036 21.6747 80.9834 22.0028 81.1045 22.3856C81.2257 22.7645 81.2863 23.1863 81.2864 23.6512L81.2865 24.3543L76.2474 24.3551L76.2472 23.2301L79.6281 23.2296L79.6281 23.1007C79.628 22.8663 79.585 22.6573 79.4991 22.4737C79.417 22.2862 79.292 22.1378 79.124 22.0285C78.956 21.9191 78.7412 21.8645 78.4794 21.8645C78.2568 21.8646 78.0654 21.9134 77.9052 22.0111C77.7451 22.1088 77.6143 22.2455 77.5127 22.4213C77.4151 22.5971 77.3409 22.8042 77.2902 23.0424C77.2433 23.2768 77.2199 23.5346 77.22 23.8159L77.22 24.0503C77.2201 24.3042 77.2553 24.5385 77.3256 24.7534C77.3999 24.9682 77.5034 25.1537 77.6362 25.31C77.773 25.4662 77.9371 25.5873 78.1285 25.6732C78.3238 25.7591 78.5445 25.802 78.7906 25.802C79.0953 25.8019 79.3785 25.7433 79.6402 25.626C79.9058 25.5049 80.1343 25.3232 80.3257 25.081L81.1461 25.9715C81.0133 26.1629 80.8317 26.3466 80.6013 26.5224C80.3747 26.6982 80.1013 26.8428 79.781 26.9561C79.4607 27.0655 79.0955 27.1203 78.6854 27.1203ZM87.2926 25.6834L87.2928 27.0018L82.4764 27.0026L82.4761 25.6842L87.2926 25.6834ZM87.1982 21.6346L83.156 27.0024L82.0252 27.0026L82.025 26.0007L86.0496 20.6621L87.198 20.662L87.1982 21.6346ZM86.6003 20.6621L86.6006 21.9863L82.1181 21.987L82.1179 20.6628L86.6003 20.6621ZM35.4041 39.6272L35.4029 32.01L37.1022 32.0098L37.1036 41.0098L35.5743 41.01L35.4041 39.6272ZM31.3961 37.9169L31.396 37.7939C31.396 37.3095 31.4506 36.87 31.5599 36.4755C31.6692 36.077 31.8293 35.7352 32.0402 35.45C32.2511 35.1648 32.5108 34.9441 32.8194 34.7878C33.128 34.6315 33.4795 34.5533 33.874 34.5533C34.2451 34.5532 34.5694 34.6313 34.8467 34.7875C35.128 34.9437 35.3663 35.1663 35.5617 35.4553C35.761 35.7405 35.9212 36.0783 36.0423 36.4689C36.1635 36.8556 36.2514 37.2794 36.3062 37.7404L36.3062 38.0099C36.2516 38.4513 36.1638 38.8615 36.0428 39.2404C35.9217 39.6193 35.7616 39.9514 35.5624 40.2366C35.3672 40.5179 35.1289 40.7366 34.8477 40.8929C34.5665 41.0492 34.2384 41.1274 33.8634 41.1275C33.4688 41.1275 33.1173 41.0475 32.8086 40.8874C32.5039 40.7273 32.2461 40.5027 32.0351 40.2137C31.828 39.9247 31.6698 39.5849 31.5603 39.1942C31.4509 38.8036 31.3961 38.3779 31.3961 37.9169ZM33.0835 37.7936L33.0836 37.9167C33.0836 38.1784 33.1032 38.4225 33.1423 38.6491C33.1853 38.8756 33.2537 39.0768 33.3474 39.2526C33.4451 39.4244 33.5702 39.5592 33.7225 39.6568C33.8788 39.7505 34.0682 39.7974 34.2909 39.7973C34.58 39.7973 34.8182 39.7328 35.0057 39.6039C35.1932 39.471 35.3357 39.2893 35.4334 39.0589C35.5349 38.8284 35.5934 38.5627 35.609 38.262L35.6089 37.4944C35.5971 37.2483 35.5619 37.0276 35.5033 36.8323C35.4486 36.6331 35.3665 36.4632 35.2571 36.3226C35.1516 36.182 35.0188 36.0726 34.8586 35.9945C34.7024 35.9164 34.5168 35.8774 34.302 35.8774C34.0832 35.8774 33.8957 35.9282 33.7395 36.0298C33.5833 36.1275 33.4563 36.2623 33.3587 36.4342C33.265 36.6061 33.1947 36.8092 33.1479 37.0436C33.1049 37.2741 33.0835 37.5241 33.0835 37.7936ZM39.9615 32.0093L39.9617 32.8999C39.9617 33.1538 39.9129 33.4156 39.8153 33.6851C39.7216 33.9547 39.5947 34.2105 39.4346 34.4528C39.2745 34.6911 39.0987 34.8942 38.9073 35.0622L38.1162 34.6053C38.2607 34.3748 38.3837 34.1248 38.4853 33.8553C38.5868 33.5818 38.6375 33.2654 38.6375 32.906L38.6373 32.0095L39.9615 32.0093ZM44.9256 39.4909L44.9248 34.6687L46.6123 34.6684L46.6134 41.0083L45.0255 41.0085L44.9256 39.4909ZM45.1129 38.1901L45.6109 38.1783C45.611 38.6002 45.5622 38.9928 45.4647 39.3561C45.3671 39.7155 45.2206 40.028 45.0253 40.2937C44.8301 40.5554 44.584 40.7605 44.2872 40.909C43.9903 41.0536 43.6407 41.1259 43.2384 41.126C42.9298 41.126 42.6446 41.0831 42.3829 40.9972C42.1251 40.9074 41.9024 40.7688 41.7148 40.5813C41.5312 40.3899 41.3867 40.1458 41.2811 39.8489C41.1795 39.5482 41.1287 39.1869 41.1286 38.765L41.128 34.6693L42.8155 34.669L42.8161 38.7764C42.8162 38.9639 42.8377 39.1221 42.8807 39.251C42.9275 39.3799 42.992 39.4854 43.0741 39.5674C43.1561 39.6494 43.2518 39.708 43.3612 39.7431C43.4745 39.7783 43.5995 39.7958 43.7362 39.7958C44.0839 39.7958 44.3573 39.7254 44.5565 39.5848C44.7596 39.4441 44.9021 39.2527 44.9841 39.0105C45.07 38.7644 45.113 38.4909 45.1129 38.1901ZM49.554 36.0215L49.5548 41.0078L47.8673 41.0081L47.8662 34.6682L49.4483 34.668L49.554 36.0215ZM49.3081 37.6153L48.8511 37.6153C48.851 37.1466 48.9115 36.7247 49.0325 36.3497C49.1536 35.9707 49.3234 35.6485 49.5421 35.3828C49.7609 35.1132 50.0206 34.9081 50.3213 34.7674C50.626 34.6229 50.9658 34.5505 51.3408 34.5505C51.6377 34.5504 51.9092 34.5934 52.1553 34.6793C52.4014 34.7651 52.6124 34.9018 52.7882 35.0893C52.9679 35.2768 53.1047 35.5248 53.1985 35.8334C53.2962 36.142 53.3451 36.5189 53.3451 36.9642L53.3458 41.0072L51.6466 41.0075L51.6459 36.9586C51.6459 36.6774 51.6068 36.4586 51.5286 36.3024C51.4505 36.1462 51.3352 36.0368 51.1829 35.9743C51.0344 35.9079 50.8508 35.8748 50.6321 35.8748C50.4055 35.8748 50.2082 35.9198 50.0403 36.0097C49.8762 36.0995 49.7395 36.2246 49.6302 36.3847C49.5248 36.541 49.4447 36.7246 49.39 36.9355C49.3354 37.1465 49.3081 37.3731 49.3081 37.6153ZM57.547 41.1237C57.0548 41.1238 56.6134 41.0457 56.2227 40.8895C55.8321 40.7294 55.5 40.5088 55.2265 40.2276C54.9569 39.9464 54.7498 39.6202 54.6053 39.2492C54.4607 38.8742 54.3883 38.4758 54.3883 38.0539L54.3882 37.8195C54.3882 37.3391 54.4564 36.8996 54.5931 36.5011C54.7298 36.1027 54.925 35.7569 55.1789 35.4639C55.4366 35.1709 55.7491 34.9463 56.1163 34.7899C56.4834 34.6297 56.8975 34.5496 57.3584 34.5495C57.8076 34.5494 58.2061 34.6236 58.5538 34.772C58.9014 34.9204 59.1925 35.1313 59.4269 35.4047C59.6652 35.6781 59.845 36.0062 59.9661 36.3889C60.0873 36.7678 60.1479 37.1897 60.148 37.6545L60.1481 38.3577L55.109 38.3585L55.1088 37.2335L58.4897 37.2329L58.4897 37.104C58.4896 36.8696 58.4466 36.6607 58.3607 36.4771C58.2786 36.2896 58.1536 36.1412 57.9856 36.0318C57.8176 35.9225 57.6028 35.8678 57.341 35.8679C57.1184 35.8679 56.927 35.9168 56.7669 36.0145C56.6067 36.1121 56.4759 36.2489 56.3743 36.4247C56.2767 36.6005 56.2025 36.8075 56.1518 37.0458C56.1049 37.2802 56.0815 37.538 56.0816 37.8193L56.0816 38.0536C56.0817 38.3075 56.1169 38.5419 56.1872 38.7567C56.2615 38.9716 56.365 39.1571 56.4978 39.3133C56.6346 39.4696 56.7987 39.5906 56.9901 39.6765C57.1854 39.7624 57.4061 39.8054 57.6522 39.8053C57.9569 39.8053 58.2401 39.7466 58.5018 39.6294C58.7674 39.5083 58.9959 39.3266 59.1873 39.0844L60.0077 39.9749C59.8749 40.1663 59.6933 40.3499 59.4629 40.5257C59.2363 40.7016 58.9629 40.8461 58.6426 40.9595C58.3223 41.0689 57.9571 41.1236 57.547 41.1237ZM33.3492 50.0533L33.35 55.0104L31.6625 55.0106L31.6614 48.6708L33.2493 48.6705L33.3492 50.0533ZM35.2591 48.6292L35.23 50.1937C35.148 50.182 35.0484 50.1722 34.9312 50.1644C34.8179 50.1527 34.7144 50.1469 34.6207 50.1469C34.3824 50.1469 34.1754 50.1782 33.9996 50.2407C33.8277 50.2994 33.6832 50.3873 33.566 50.5045C33.4528 50.6217 33.3669 50.7643 33.3083 50.9322C33.2536 51.1002 33.2224 51.2916 33.2146 51.5065L32.8748 51.4011C32.8747 50.9909 32.9157 50.614 32.9976 50.2702C33.0796 49.9225 33.1987 49.6198 33.3549 49.3619C33.515 49.1041 33.7103 48.9048 33.9408 48.7642C34.1712 48.6235 34.4349 48.5532 34.7317 48.5531C34.8255 48.5531 34.9212 48.5609 35.0189 48.5765C35.1165 48.5882 35.1966 48.6058 35.2591 48.6292ZM38.8578 55.1267C38.3656 55.1268 37.9242 55.0487 37.5335 54.8925C37.1429 54.7324 36.8108 54.5118 36.5373 54.2306C36.2678 53.9494 36.0607 53.6232 35.9161 53.2521C35.7715 52.8772 35.6992 52.4787 35.6991 52.0569L35.6991 51.8225C35.699 51.342 35.7673 50.9026 35.9039 50.5041C36.0406 50.1056 36.2358 49.7599 36.4897 49.4669C36.7475 49.1739 37.0599 48.9492 37.4271 48.7929C37.7943 48.6327 38.2083 48.5526 38.6692 48.5525C39.1185 48.5524 39.5169 48.6266 39.8646 48.775C40.2123 48.9233 40.5033 49.1342 40.7377 49.4076C40.9761 49.681 41.1558 50.0091 41.277 50.3919C41.3981 50.7708 41.4587 51.1927 41.4588 51.6575L41.4589 52.3606L36.4198 52.3614L36.4197 51.2364L39.8005 51.2359L39.8005 51.107C39.8005 50.8726 39.7575 50.6636 39.6715 50.4801C39.5894 50.2926 39.4644 50.1442 39.2964 50.0348C39.1284 49.9255 38.9136 49.8708 38.6519 49.8709C38.4292 49.8709 38.2378 49.9197 38.0777 50.0174C37.9175 50.1151 37.7867 50.2518 37.6852 50.4276C37.5875 50.6034 37.5133 50.8105 37.4626 51.0488C37.4158 51.2832 37.3924 51.541 37.3924 51.8222L37.3925 52.0566C37.3925 52.3105 37.4277 52.5449 37.498 52.7597C37.5723 52.9745 37.6758 53.1601 37.8087 53.3163C37.9454 53.4725 38.1095 53.5936 38.3009 53.6795C38.4962 53.7654 38.717 53.8083 38.963 53.8083C39.2677 53.8083 39.5509 53.7496 39.8126 53.6324C40.0782 53.5112 40.3067 53.3296 40.4981 53.0874L41.3185 53.9778C41.1858 54.1693 41.0041 54.3529 40.7737 54.5287C40.5472 54.7045 40.2738 54.8491 39.9535 54.9624C39.6332 55.0719 39.2679 55.1266 38.8578 55.1267ZM37.6672 47.8085L38.8153 46.0036L40.6493 46.0033L39.0383 47.8083L37.6672 47.8085ZM46.1642 53.6255L46.163 46.0083L47.8622 46.0081L47.8636 55.0081L46.3343 55.0083L46.1642 53.6255ZM42.1561 51.9152L42.1561 51.7922C42.156 51.3078 42.2106 50.8683 42.3199 50.4738C42.4292 50.0753 42.5893 49.7335 42.8002 49.4483C43.0111 49.1631 43.2709 48.9424 43.5794 48.7861C43.888 48.6298 44.2396 48.5516 44.6341 48.5515C45.0052 48.5515 45.3294 48.6296 45.6068 48.7858C45.8881 48.942 46.1264 49.1646 46.3217 49.4536C46.521 49.7387 46.6812 50.0766 46.8024 50.4672C46.9235 50.8539 47.0115 51.2777 47.0662 51.7387L47.0663 52.0082C47.0117 52.4496 46.9238 52.8598 46.8028 53.2387C46.6818 53.6176 46.5217 53.9497 46.3225 54.2349C46.1272 54.5161 45.889 54.7349 45.6077 54.8912C45.3265 55.0475 44.9984 55.1257 44.6234 55.1258C44.2289 55.1258 43.8773 55.0458 43.5687 54.8857C43.264 54.7256 43.0061 54.501 42.7951 54.212C42.5881 53.923 42.4298 53.5831 42.3204 53.1925C42.2109 52.8019 42.1562 52.3762 42.1561 51.9152ZM43.8436 51.7919L43.8436 51.9149C43.8436 52.1767 43.8632 52.4208 43.9023 52.6474C43.9453 52.8739 44.0137 53.0751 44.1075 53.2508C44.2052 53.4227 44.3302 53.5574 44.4826 53.6551C44.6388 53.7488 44.8283 53.7957 45.0509 53.7956C45.34 53.7956 45.5783 53.7311 45.7657 53.6021C45.9532 53.4693 46.0958 53.2876 46.1934 53.0572C46.2949 52.8267 46.3535 52.561 46.369 52.2602L46.3689 51.4927C46.3572 51.2466 46.322 51.0259 46.2634 50.8306C46.2086 50.6314 46.1266 50.4615 46.0172 50.3209C45.9117 50.1802 45.7789 50.0709 45.6187 49.9928C45.4624 49.9147 45.2769 49.8757 45.062 49.8757C44.8433 49.8757 44.6558 49.9265 44.4996 50.0281C44.3433 50.1258 44.2164 50.2606 44.1188 50.4325C44.025 50.6044 43.9548 50.8075 43.9079 51.0419C43.865 51.2724 43.8435 51.5224 43.8436 51.7919ZM52.9317 53.4897L52.931 48.6674L54.6185 48.6671L54.6195 55.007L53.0316 55.0072L52.9317 53.4897ZM53.119 52.1889L53.6171 52.1771C53.6171 52.5989 53.5684 52.9915 53.4708 53.3548C53.3732 53.7142 53.2268 54.0267 53.0315 54.2924C52.8362 54.5541 52.5901 54.7593 52.2933 54.9077C51.9964 55.0523 51.6468 55.1246 51.2445 55.1247C50.9359 55.1248 50.6507 55.0818 50.389 54.9959C50.1312 54.9061 49.9085 54.7675 49.721 54.58C49.5374 54.3887 49.3928 54.1445 49.2873 53.8477C49.1857 53.5469 49.1348 53.1856 49.1348 52.7637L49.1341 48.668L50.8216 48.6677L50.8223 52.7752C50.8223 52.9627 50.8438 53.1209 50.8868 53.2498C50.9337 53.3787 50.9981 53.4841 51.0802 53.5661C51.1622 53.6482 51.258 53.7067 51.3673 53.7419C51.4806 53.777 51.6056 53.7946 51.7423 53.7946C52.09 53.7945 52.3634 53.7241 52.5626 53.5835C52.7657 53.4428 52.9083 53.2514 52.9903 53.0092C53.0762 52.7631 53.1191 52.4896 53.119 52.1889ZM58.5275 53.8052C58.7345 53.8052 58.9181 53.7661 59.0783 53.6879C59.2384 53.6059 59.3634 53.4926 59.4532 53.348C59.5469 53.1996 59.5957 53.0257 59.5996 52.8265L61.1875 52.8263C61.1837 53.2716 61.0646 53.6681 60.8303 54.0158C60.5959 54.3595 60.2815 54.6311 59.887 54.8304C59.4925 55.0257 59.0511 55.1235 58.5629 55.1235C58.0707 55.1236 57.641 55.0417 57.2738 54.8777C56.9105 54.7136 56.6077 54.4871 56.3654 54.1981C56.1232 53.9052 55.9415 53.5654 55.8204 53.1787C55.6992 52.7881 55.6386 52.3701 55.6385 51.9248L55.6385 51.7549C55.6384 51.3056 55.6989 50.8877 55.8199 50.5009C55.941 50.1103 56.1226 49.7704 56.3647 49.4813C56.6068 49.1883 56.9095 48.9597 57.2728 48.7956C57.636 48.6315 58.0618 48.5494 58.5501 48.5493C59.0696 48.5492 59.5247 48.6488 59.9154 48.8479C60.3099 49.0471 60.6186 49.3322 60.8413 49.7033C61.0679 50.0704 61.1832 50.5059 61.1872 51.0098L59.5993 51.0101C59.5954 50.7992 59.5504 50.6078 59.4645 50.4359C59.3824 50.264 59.2613 50.1273 59.1011 50.0258C58.9448 49.9204 58.7515 49.8677 58.521 49.8677C58.2749 49.8677 58.0738 49.9205 57.9175 50.026C57.7613 50.1276 57.6402 50.2682 57.5543 50.4479C57.4684 50.6237 57.4079 50.8249 57.3728 51.0515C57.3415 51.2741 57.326 51.5085 57.326 51.7546L57.326 51.9245C57.3261 52.1706 57.3417 52.4069 57.373 52.6335C57.4043 52.8601 57.4629 53.0612 57.5489 53.237C57.6388 53.4128 57.7618 53.5514 57.9181 53.6529C58.0744 53.7545 58.2775 53.8052 58.5275 53.8052ZM65.2708 48.6654L65.271 49.8608L61.5796 49.8613L61.5794 48.666L65.2708 48.6654ZM62.4932 47.1014L64.1807 47.1012L64.1817 53.0953C64.1817 53.2789 64.2052 53.4195 64.2521 53.5172C64.3029 53.6148 64.3771 53.6832 64.4747 53.7222C64.5724 53.7574 64.6955 53.7749 64.8439 53.7749C64.9494 53.7749 65.0431 53.7709 65.1251 53.7631C65.2111 53.7514 65.2833 53.7397 65.3419 53.7279L65.348 54.9701C65.2035 55.017 65.0472 55.0542 64.8793 55.0815C64.7113 55.1089 64.5258 55.1226 64.3226 55.1226C63.9515 55.1227 63.6273 55.0622 63.3499 54.9411C63.0765 54.8162 62.8655 54.617 62.717 54.3436C62.5686 54.0702 62.4943 53.7108 62.4942 53.2655L62.4932 47.1014ZM68.013 48.665L68.014 55.0049L66.3207 55.0051L66.3196 48.6653L68.013 48.665ZM66.2139 47.013C66.2139 46.7669 66.2998 46.5637 66.4716 46.4035C66.6435 46.2434 66.8739 46.1632 67.163 46.1632C67.4482 46.1631 67.6767 46.2432 67.8486 46.4033C68.0244 46.5634 68.1123 46.7666 68.1124 47.0126C68.1124 47.2587 68.0245 47.4619 67.8488 47.6221C67.6769 47.7822 67.4484 47.8624 67.1633 47.8624C66.8742 47.8625 66.6437 47.7824 66.4718 47.6223C66.2999 47.4622 66.214 47.259 66.2139 47.013ZM69.1385 51.8992L69.1385 51.7762C69.1384 51.3113 69.2048 50.8836 69.3375 50.4929C69.4703 50.0984 69.6636 49.7565 69.9174 49.4674C70.1713 49.1783 70.4838 48.9537 70.8548 48.7935C71.2259 48.6293 71.6517 48.5472 72.1321 48.5472C72.6126 48.5471 73.0403 48.6291 73.4154 48.7931C73.7904 48.9532 74.1049 49.1777 74.3588 49.4667C74.6167 49.7558 74.8121 50.0975 74.9449 50.492C75.0778 50.8826 75.1443 51.3104 75.1444 51.7752L75.1444 51.8982C75.1445 52.3592 75.0781 52.7869 74.9454 53.1815C74.8126 53.5721 74.6174 53.914 74.3596 54.207C74.1057 54.4961 73.7933 54.7207 73.4222 54.8809C73.0511 55.0412 72.6254 55.1213 72.1449 55.1214C71.6644 55.1215 71.2367 55.0414 70.8617 54.8814C70.4905 54.7213 70.176 54.4967 69.9182 54.2077C69.6642 53.9147 69.4708 53.573 69.3379 53.1824C69.2051 52.7879 69.1386 52.3601 69.1385 51.8992ZM70.826 51.7759L70.826 51.8989C70.8261 52.1646 70.8495 52.4126 70.8965 52.6431C70.9434 52.8735 71.0176 53.0766 71.1192 53.2524C71.2247 53.4243 71.3614 53.559 71.5294 53.6566C71.6974 53.7543 71.9025 53.8031 72.1447 53.803C72.3791 53.803 72.5802 53.7541 72.7482 53.6564C72.9161 53.5588 73.0509 53.424 73.1524 53.2521C73.2539 53.0763 73.3281 52.8731 73.375 52.6427C73.4257 52.4122 73.4511 52.1641 73.451 51.8985L73.451 51.7755C73.451 51.5177 73.4255 51.2755 73.3747 51.0489C73.3278 50.8185 73.2516 50.6153 73.1461 50.4396C73.0445 50.2599 72.9097 50.1193 72.7417 50.0178C72.5738 49.9162 72.3706 49.8655 72.1323 49.8655C71.8941 49.8656 71.6909 49.9164 71.523 50.018C71.3589 50.1196 71.2242 50.2602 71.1188 50.4399C71.0172 50.6157 70.943 50.8188 70.8962 51.0493C70.8494 51.2759 70.826 51.5181 70.826 51.7759ZM77.8335 50.017L77.8343 55.0033L76.1468 55.0036L76.1458 48.6637L77.7278 48.6635L77.8335 50.017ZM77.5877 51.6108L77.1307 51.6108C77.1306 51.1421 77.1911 50.7202 77.3121 50.3452C77.4331 49.9662 77.603 49.644 77.8217 49.3783C78.0404 49.1087 78.3002 48.9036 78.6009 48.7629C78.9056 48.6184 79.2454 48.546 79.6204 48.546C79.9173 48.5459 80.1888 48.5889 80.4349 48.6748C80.681 48.7606 80.8919 48.8973 81.0678 49.0848C81.2475 49.2723 81.3842 49.5203 81.478 49.8289C81.5757 50.1375 81.6246 50.5144 81.6247 50.9597L81.6253 55.0027L79.9261 55.003L79.9255 50.9541C79.9254 50.6729 79.8863 50.4541 79.8082 50.2979C79.73 50.1417 79.6148 50.0323 79.4624 49.9698C79.314 49.9034 79.1304 49.8703 78.9116 49.8703C78.6851 49.8703 78.4878 49.9153 78.3199 50.0052C78.1558 50.095 78.0191 50.2201 77.9098 50.3802C77.8043 50.5365 77.7243 50.7201 77.6696 50.931C77.615 51.142 77.5877 51.3686 77.5877 51.6108ZM35.0921 67.2581C35.0921 67.137 35.0569 67.0277 34.9866 66.93C34.9163 66.8324 34.7854 66.7426 34.594 66.6606C34.4065 66.5747 34.135 66.4966 33.7795 66.4263C33.4592 66.3561 33.1603 66.2682 32.883 66.1628C32.6095 66.0535 32.3712 65.9226 32.1681 65.7703C31.9688 65.618 31.8126 65.4383 31.6992 65.2313C31.5859 65.0204 31.5292 64.7802 31.5292 64.5107C31.5292 64.245 31.5858 63.995 31.699 63.7606C31.8162 63.5262 31.9821 63.3192 32.197 63.1395C32.4157 62.9558 32.6813 62.8132 32.9938 62.7116C33.3101 62.6061 33.6656 62.5533 34.0601 62.5532C34.6109 62.5531 35.0836 62.641 35.4782 62.8167C35.8766 62.9924 36.1813 63.2345 36.3923 63.5431C36.6072 63.8477 36.7147 64.1954 36.7148 64.586L35.0273 64.5863C35.0272 64.4222 34.9921 64.2757 34.9217 64.1468C34.8553 64.014 34.7498 63.9105 34.6053 63.8363C34.4646 63.7582 34.281 63.7192 34.0545 63.7192C33.867 63.7193 33.7049 63.7525 33.5682 63.8189C33.4314 63.8814 33.326 63.9674 33.2518 64.0768C33.1815 64.1823 33.1464 64.2995 33.1464 64.4284C33.1464 64.526 33.1659 64.6139 33.205 64.692C33.248 64.7662 33.3164 64.8346 33.4101 64.8971C33.5039 64.9596 33.625 65.0181 33.7734 65.0728C33.9258 65.1236 34.1133 65.1704 34.336 65.2133C34.793 65.307 35.2012 65.43 35.5606 65.5823C35.92 65.7307 36.2052 65.9337 36.4162 66.1915C36.6272 66.4454 36.7327 66.7794 36.7328 67.1934C36.7328 67.4747 36.6703 67.7325 36.5454 67.9669C36.4204 68.2013 36.2408 68.4064 36.0064 68.5822C35.7721 68.7541 35.4908 68.8889 35.1627 68.9866C34.8385 69.0804 34.4733 69.1274 34.067 69.1274C33.4772 69.1275 32.9772 69.0221 32.567 68.8113C32.1607 68.6004 31.8521 68.3329 31.6411 68.0087C31.434 67.6806 31.3304 67.3447 31.3304 67.0009L32.93 67.0007C32.9378 67.2311 32.9965 67.4167 33.1059 67.5573C33.2192 67.6979 33.3618 67.7994 33.5336 67.8619C33.7094 67.9244 33.8989 67.9556 34.102 67.9556C34.3208 67.9555 34.5024 67.9262 34.6469 67.8676C34.7914 67.8051 34.9008 67.723 34.975 67.6214C35.0531 67.516 35.0922 67.3949 35.0921 67.2581ZM41.5785 67.4915L41.5777 62.6692L43.2652 62.6689L43.2662 69.0088L41.6784 69.009L41.5785 67.4915ZM41.7658 66.1907L42.2638 66.1789C42.2639 66.6007 42.2151 66.9933 42.1175 67.3566C42.0199 67.716 41.8735 68.0285 41.6782 68.2942C41.483 68.5559 41.2369 68.7611 40.9401 68.9095C40.6432 69.0541 40.2936 69.1264 39.8913 69.1265C39.5827 69.1266 39.2975 69.0836 39.0358 68.9977C38.7779 68.9079 38.5553 68.7693 38.3677 68.5818C38.1841 68.3905 38.0395 68.1463 37.934 67.8495C37.8324 67.5487 37.7816 67.1874 37.7815 66.7655L37.7809 62.6698L39.4684 62.6695L39.469 66.777C39.469 66.9645 39.4906 67.1227 39.5335 67.2516C39.5804 67.3805 39.6449 67.4859 39.727 67.5679C39.809 67.65 39.9047 67.7085 40.0141 67.7437C40.1274 67.7788 40.2524 67.7964 40.3891 67.7964C40.7368 67.7963 41.0102 67.7259 41.2094 67.5853C41.4125 67.4446 41.555 67.2532 41.637 67.011C41.7229 66.7649 41.7658 66.4914 41.7658 66.1907ZM46.242 64.0513L46.2428 69.0083L44.5553 69.0086L44.5543 62.6687L46.1422 62.6685L46.242 64.0513ZM48.1519 62.6272L48.1229 64.1916C48.0409 64.1799 47.9413 64.1702 47.8241 64.1624C47.7108 64.1507 47.6073 64.1448 47.5135 64.1448C47.2752 64.1449 47.0682 64.1762 46.8924 64.2387C46.7206 64.2973 46.5761 64.3852 46.4589 64.5024C46.3456 64.6196 46.2597 64.7622 46.2011 64.9302C46.1465 65.0982 46.1153 65.2896 46.1075 65.5044L45.7676 65.399C45.7676 64.9889 45.8085 64.6119 45.8905 64.2681C45.9725 63.9205 46.0916 63.6177 46.2478 63.3599C46.4079 63.102 46.6032 62.9028 46.8336 62.7621C47.0641 62.6215 47.3277 62.5511 47.6246 62.5511C47.7183 62.551 47.814 62.5588 47.9117 62.5745C48.0094 62.5862 48.0894 62.6037 48.1519 62.6272ZM53.7179 60.0071L53.7194 69.0071L52.026 69.0074L52.0246 60.0074L53.7179 60.0071ZM58.5355 67.5767L58.5351 64.7525C58.5351 64.5493 58.5018 64.3755 58.4354 64.231C58.369 64.0826 58.2654 63.9673 58.1248 63.8853C57.9881 63.8033 57.8103 63.7623 57.5916 63.7624C57.4041 63.7624 57.242 63.7956 57.1053 63.8621C56.9686 63.9246 56.8631 64.0164 56.7889 64.1375C56.7147 64.2547 56.6776 64.3934 56.6776 64.5535L54.9901 64.5538C54.9901 64.2843 55.0526 64.0284 55.1775 63.7862C55.3025 63.544 55.4841 63.3311 55.7223 63.1474C55.9606 62.9599 56.2438 62.8134 56.5719 62.7078C56.9039 62.6023 57.275 62.5495 57.6851 62.5495C58.1773 62.5494 58.6148 62.6313 58.9977 62.7953C59.3805 62.9594 59.6813 63.2054 59.9001 63.5335C60.1228 63.8616 60.2342 64.2717 60.2343 64.7639L60.2348 67.4768C60.2348 67.8244 60.2563 68.1096 60.2993 68.3323C60.3423 68.551 60.4049 68.7424 60.4869 68.9064L60.4869 69.006L58.7819 69.0063C58.6998 68.8345 58.6373 68.6196 58.5943 68.3618C58.5552 68.1001 58.5356 67.8384 58.5355 67.5767ZM58.7578 65.145L58.7697 66.1001L57.8263 66.1002C57.6037 66.1003 57.4103 66.1257 57.2463 66.1765C57.0822 66.2273 56.9475 66.2996 56.842 66.3933C56.7365 66.4832 56.6584 66.5887 56.6077 66.7098C56.5608 66.8309 56.5374 66.9637 56.5374 67.1082C56.5374 67.2528 56.5707 67.3836 56.6371 67.5008C56.7035 67.6141 56.7992 67.7039 56.9242 67.7703C57.0493 67.8328 57.1957 67.864 57.3637 67.864C57.6176 67.8639 57.8383 67.8131 58.0258 67.7115C58.2133 67.6099 58.3578 67.4849 58.4593 67.3364C58.5648 67.188 58.6194 67.0474 58.6233 66.9145L59.0688 67.6293C59.0063 67.7895 58.9204 67.9555 58.811 68.1274C58.7056 68.2993 58.5708 68.4614 58.4068 68.6138C58.2428 68.7623 58.0455 68.8853 57.8151 68.983C57.5846 69.0768 57.3112 69.1237 56.9948 69.1238C56.5924 69.1239 56.2272 69.0438 55.899 68.8837C55.5748 68.7197 55.3169 68.4952 55.1255 68.21C54.9379 67.921 54.8441 67.5929 54.8441 67.2257C54.844 66.8937 54.9065 66.5987 55.0314 66.3409C55.1564 66.0831 55.34 65.8662 55.5821 65.6904C55.8282 65.5107 56.1348 65.3759 56.502 65.286C56.8692 65.1922 57.2949 65.1452 57.7793 65.1452L58.7578 65.145ZM33.4467 74.0104L33.4482 83.0104L31.7548 83.0106L31.7534 74.0106L33.4467 74.0104ZM36.6229 76.67L36.6239 83.0098L34.9306 83.0101L34.9296 76.6703L36.6229 76.67ZM34.8238 75.0179C34.8238 74.7719 34.9097 74.5687 35.0816 74.4085C35.2534 74.2483 35.4839 74.1682 35.7729 74.1682C36.0581 74.1681 36.2866 74.2482 36.4585 74.4083C36.6343 74.5684 36.7222 74.7715 36.7223 75.0176C36.7223 75.2637 36.6345 75.4669 36.4587 75.6271C36.2869 75.7872 36.0584 75.8674 35.7732 75.8674C35.4841 75.8674 35.2537 75.7874 35.0818 75.6273C34.9099 75.4671 34.8239 75.264 34.8238 75.0179ZM40.1745 81.7788L41.58 76.6692L43.3436 76.6689L41.206 83.0091L40.1396 83.0093L40.1745 81.7788ZM39.2069 76.6696L40.6198 81.7846L40.6493 83.0092L39.5771 83.0094L37.4374 76.6699L39.2069 76.6696ZM45.7872 78.0514L45.788 83.0084L44.1005 83.0087L44.0995 76.6688L45.6874 76.6686L45.7872 78.0514ZM47.6971 76.6272L47.6681 78.1917C47.5861 78.18 47.4865 78.1702 47.3693 78.1624C47.256 78.1507 47.1525 78.1449 47.0587 78.1449C46.8204 78.1449 46.6134 78.1762 46.4376 78.2388C46.2658 78.2974 46.1213 78.3853 46.0041 78.5025C45.8908 78.6197 45.8049 78.7623 45.7463 78.9303C45.6917 79.0982 45.6605 79.2897 45.6527 79.5045L45.3128 79.3991C45.3128 78.9889 45.3537 78.612 45.4357 78.2682C45.5177 77.9205 45.6368 77.6178 45.793 77.3599C45.9531 77.1021 46.1484 76.9029 46.3788 76.7622C46.6093 76.6215 46.8729 76.5512 47.1698 76.5511C47.2635 76.5511 47.3592 76.5589 47.4569 76.5745C47.5546 76.5862 47.6346 76.6038 47.6971 76.6272ZM51.7175 81.5778L51.717 78.7535C51.717 78.5504 51.6838 78.3766 51.6173 78.2321C51.5509 78.0836 51.4474 77.9684 51.3067 77.8864C51.17 77.8044 50.9922 77.7634 50.7735 77.7635C50.586 77.7635 50.4239 77.7967 50.2872 77.8631C50.1505 77.9257 50.045 78.0175 49.9708 78.1386C49.8966 78.2558 49.8595 78.3945 49.8596 78.5546L48.1721 78.5549C48.172 78.2854 48.2345 78.0295 48.3594 77.7873C48.4844 77.5451 48.666 77.3321 48.9043 77.1485C49.1425 76.961 49.4257 76.8144 49.7538 76.7089C50.0858 76.6034 50.4569 76.5506 50.8671 76.5505C51.3592 76.5505 51.7968 76.6324 52.1796 76.7964C52.5624 76.9604 52.8633 77.2065 53.0821 77.5346C53.3048 77.8627 53.4162 78.2728 53.4162 78.765L53.4167 81.4779C53.4167 81.8255 53.4383 82.1107 53.4813 82.3333C53.5243 82.5521 53.5868 82.7435 53.6688 82.9075L53.6689 83.0071L51.9638 83.0074C51.8817 82.8355 51.8192 82.6207 51.7762 82.3629C51.7371 82.1012 51.7175 81.8395 51.7175 81.5778ZM51.9397 79.1461L51.9516 80.1012L51.0082 80.1013C50.7856 80.1013 50.5922 80.1268 50.4282 80.1776C50.2641 80.2284 50.1294 80.3007 50.0239 80.3944C49.9185 80.4843 49.8404 80.5898 49.7896 80.7109C49.7427 80.832 49.7193 80.9648 49.7193 81.1093C49.7194 81.2539 49.7526 81.3847 49.819 81.5019C49.8854 81.6152 49.9812 81.705 50.1062 81.7714C50.2312 81.8339 50.3777 81.8651 50.5456 81.8651C50.7995 81.865 51.0202 81.8142 51.2077 81.7126C51.3952 81.611 51.5397 81.486 51.6413 81.3375C51.7467 81.1891 51.8014 81.0484 51.8052 80.9156L52.2507 81.6304C52.1882 81.7906 52.1023 81.9566 51.9929 82.1285C51.8875 82.3004 51.7528 82.4625 51.5887 82.6149C51.4247 82.7633 51.2274 82.8864 50.997 82.9841C50.7665 83.0779 50.4931 83.1248 50.1767 83.1249C49.7743 83.1249 49.4091 83.0449 49.081 82.8848C48.7567 82.7208 48.4989 82.4962 48.3074 82.2111C48.1199 81.9221 48.0261 81.594 48.026 81.2268C48.0259 80.8947 48.0884 80.5998 48.2134 80.342C48.3383 80.0842 48.5219 79.8673 48.764 79.6915C49.0101 79.5118 49.3167 79.377 49.6839 79.2871C50.0511 79.1933 50.4768 79.1463 50.9612 79.1462L51.9397 79.1461ZM56.4979 76.6668L56.4989 83.0067L54.8056 83.007L54.8046 76.6671L56.4979 76.6668ZM54.6988 75.0148C54.6988 74.7687 54.7847 74.5655 54.9566 74.4054C55.1284 74.2452 55.3589 74.1651 55.6479 74.165C55.9331 74.165 56.1616 74.245 56.3335 74.4051C56.5093 74.5653 56.5972 74.7684 56.5973 75.0145C56.5973 75.2606 56.5095 75.4637 56.3337 75.6239C56.1619 75.7841 55.9334 75.8642 55.6482 75.8642C55.3591 75.8643 55.1287 75.7842 54.9567 75.6241C54.7848 75.464 54.6989 75.2609 54.6988 75.0148ZM61.3209 81.254C61.3209 81.1329 61.2857 81.0235 61.2154 80.9259C61.1451 80.8282 61.0142 80.7384 60.8228 80.6564C60.6353 80.5705 60.3638 80.4924 60.0083 80.4221C59.688 80.3519 59.3891 80.264 59.1118 80.1586C58.8383 80.0493 58.6 79.9185 58.3969 79.7661C58.1976 79.6138 58.0413 79.4342 57.928 79.2272C57.8147 79.0162 57.758 78.776 57.758 78.5065C57.7579 78.2409 57.8145 77.9908 57.9278 77.7565C58.0449 77.5221 58.2109 77.315 58.4257 77.1353C58.6445 76.9517 58.9101 76.809 59.2225 76.7074C59.5389 76.6019 59.8944 76.5491 60.2889 76.549C60.8397 76.549 61.3124 76.6368 61.7069 76.8125C62.1054 76.9882 62.4101 77.2304 62.6211 77.5389C62.836 77.8436 62.9435 78.1912 62.9435 78.5818L61.256 78.5821C61.256 78.418 61.2208 78.2716 61.1505 78.1427C61.0841 78.0099 60.9786 77.9064 60.8341 77.8322C60.6934 77.7541 60.5098 77.715 60.2833 77.7151C60.0958 77.7151 59.9336 77.7483 59.7969 77.8148C59.6602 77.8773 59.5548 77.9632 59.4806 78.0726C59.4103 78.1781 59.3751 78.2953 59.3752 78.4242C59.3752 78.5219 59.3947 78.6097 59.4338 78.6879C59.4768 78.7621 59.5452 78.8304 59.6389 78.8929C59.7327 78.9554 59.8538 79.014 60.0022 79.0686C60.1546 79.1194 60.3421 79.1662 60.5647 79.2092C61.0218 79.3028 61.43 79.4258 61.7894 79.5781C62.1488 79.7265 62.434 79.9296 62.645 80.1873C62.856 80.4412 62.9615 80.7752 62.9615 81.1892C62.9616 81.4705 62.8991 81.7283 62.7742 81.9627C62.6492 82.1971 62.4695 82.4022 62.2352 82.578C62.0009 82.7499 61.7196 82.8848 61.3915 82.9825C61.0673 83.0763 60.7021 83.1232 60.2958 83.1233C59.706 83.1234 59.206 83.018 58.7958 82.8071C58.3895 82.5962 58.0809 82.3287 57.8699 82.0045C57.6628 81.6764 57.5592 81.3405 57.5592 80.9967L59.1588 80.9965C59.1666 81.227 59.2252 81.4125 59.3346 81.5531C59.4479 81.6937 59.5905 81.7953 59.7624 81.8577C59.9382 81.9202 60.1277 81.9514 60.3308 81.9514C60.5496 81.9514 60.7312 81.922 60.8757 81.8634C61.0202 81.8009 61.1296 81.7188 61.2038 81.6173C61.2819 81.5118 61.3209 81.3907 61.3209 81.254ZM63.7875 79.9001L63.7875 79.777C63.7874 79.3122 63.8538 78.8844 63.9865 78.4938C64.1193 78.0992 64.3126 77.7574 64.5664 77.4683C64.8203 77.1792 65.1327 76.9545 65.5038 76.7943C65.8749 76.6302 66.3006 76.5481 66.7811 76.548C67.2616 76.5479 67.6893 76.6299 68.0644 76.7939C68.4394 76.954 68.7539 77.1786 69.0078 77.4676C69.2657 77.7566 69.461 78.0984 69.5939 78.4929C69.7268 78.8835 69.7933 79.3112 69.7933 79.7761L69.7934 79.8991C69.7934 80.36 69.7271 80.7878 69.5944 81.1823C69.4616 81.573 69.2663 81.9148 69.0086 82.2078C68.7547 82.4969 68.4423 82.7216 68.0712 82.8818C67.7001 83.042 67.2743 83.1222 66.7939 83.1222C66.3134 83.1223 65.8857 83.0423 65.5106 82.8822C65.1395 82.7221 64.825 82.4975 64.5672 82.2085C64.3132 81.9156 64.1198 81.5738 63.9869 81.1832C63.8541 80.7887 63.7876 80.361 63.7875 79.9001ZM65.475 79.7767L65.475 79.8998C65.475 80.1654 65.4985 80.4135 65.5454 80.6439C65.5924 80.8744 65.6666 81.0775 65.7682 81.2533C65.8737 81.4251 66.0104 81.5599 66.1784 81.6575C66.3464 81.7551 66.5515 81.8039 66.7937 81.8039C67.028 81.8038 67.2292 81.755 67.3972 81.6573C67.5651 81.5596 67.6999 81.4248 67.8014 81.2529C67.9029 81.0771 67.9771 80.874 68.024 80.6435C68.0747 80.413 68.1 80.165 68.1 79.8994L68.1 79.7763C68.0999 79.5185 68.0745 79.2763 68.0237 79.0498C67.9768 78.8193 67.9006 78.6162 67.7951 78.4404C67.6935 78.2608 67.5587 78.1202 67.3907 78.0186C67.2227 77.9171 67.0196 77.8663 66.7813 77.8664C66.543 77.8664 66.3399 77.9172 66.172 78.0188C66.0079 78.1204 65.8732 78.2611 65.7677 78.4408C65.6662 78.6166 65.592 78.8197 65.5452 79.0502C65.4983 79.2767 65.4749 79.5189 65.475 79.7767ZM72.4825 78.0178L72.4833 83.0041L70.7958 83.0044L70.7948 76.6646L72.3768 76.6643L72.4825 78.0178ZM72.2367 79.6116L71.7796 79.6117C71.7796 79.1429 71.8401 78.721 71.9611 78.346C72.0821 77.9671 72.252 77.6448 72.4707 77.3791C72.6894 77.1096 72.9491 76.9045 73.2499 76.7638C73.5546 76.6192 73.8944 76.5469 74.2694 76.5468C74.5663 76.5468 74.8378 76.5897 75.0839 76.6756C75.33 76.7615 75.5409 76.8982 75.7167 77.0857C75.8965 77.2731 76.0332 77.5212 76.127 77.8297C76.2247 78.1383 76.2736 78.5153 76.2737 78.9606L76.2743 83.0035L74.5751 83.0038L74.5745 78.955C74.5744 78.6737 74.5353 78.455 74.4572 78.2987C74.379 78.1425 74.2638 78.0332 74.1114 77.9707C73.963 77.9043 73.7794 77.8711 73.5606 77.8712C73.3341 77.8712 73.1368 77.9161 72.9688 78.006C72.8048 78.0959 72.6681 78.2209 72.5588 78.3811C72.4533 78.5373 72.3733 78.721 72.3186 78.9319C72.2639 79.1428 72.2366 79.3694 72.2367 79.6116Z" fill="black"/>
</g>
<defs>
<filter id="filter0_d_1439_11058" x="-11" y="-13" width="320" height="178" filterUnits="userSpaceOnUse" color-interpolation-filters="sRGB">
<feFlood flood-opacity="0" result="BackgroundImageFix"/>
<feColorMatrix in="SourceAlpha" type="matrix" values="0 0 0 0 0 0 0 0 0 0 0 0 0 0 0 0 0 0 127 0" result="hardAlpha"/>
<feOffset/>
<feGaussianBlur stdDeviation="5"/>
<feComposite in2="hardAlpha" operator="out"/>
<feColorMatrix type="matrix" values="0 0 0 0 0 0 0 0 0 0 0 0 0 0 0 0 0 0 0.25 0"/>
<feBlend mode="normal" in2="BackgroundImageFix" result="effect1_dropShadow_1439_11058"/>
<feBlend mode="normal" in="SourceGraphic" in2="effect1_dropShadow_1439_11058" result="shape"/>
</filter>
<filter id="filter1_d_1439_11058" x="20" y="12" width="258" height="142" filterUnits="userSpaceOnUse" color-interpolation-filters="sRGB">
<feFlood flood-opacity="0" result="BackgroundImageFix"/>
<feColorMatrix in="SourceAlpha" type="matrix" values="0 0 0 0 0 0 0 0 0 0 0 0 0 0 0 0 0 0 127 0" result="hardAlpha"/>
<feOffset dy="4"/>
<feGaussianBlur stdDeviation="2"/>
<feComposite in2="hardAlpha" operator="out"/>
<feColorMatrix type="matrix" values="0 0 0 0 0 0 0 0 0 0 0 0 0 0 0 0 0 0 0.25 0"/>
<feBlend mode="normal" in2="BackgroundImageFix" result="effect1_dropShadow_1439_11058"/>
<feBlend mode="normal" in="SourceGraphic" in2="effect1_dropShadow_1439_11058" result="shape"/>
</filter>
<clipPath id="clip0_1439_11058">
<rect width="301" height="158" fill="white"/>
</clipPath>
<clipPath id="clip1_1439_11058">
<rect width="300" height="158" fill="white"/>
</clipPath>
<clipPath id="clip2_1439_11058">
<rect x="24" y="12" width="250" height="134" rx="10" fill="white"/>
</clipPath>
</defs>
</svg>
