<svg width="187" height="103" viewBox="0 0 187 103" fill="none" xmlns="http://www.w3.org/2000/svg">
<g clip-path="url(#clip0_1439_13459)">
<g filter="url(#filter0_d_1439_13459)">
<path d="M-1 -3C-1 -3 44 -0.5 147 -0.5C250 -0.5 299 -3 299 -3V155C299 155 250 153 149 153C48 153 -1 155 -1 155V-3Z" fill="#E13838"/>
</g>
<ellipse cx="8.415" cy="8.80063" rx="8.415" ry="8.80063" transform="matrix(-1 0 0 1 198.22 43.6772)" fill="white"/>
<ellipse cx="2.805" cy="1.9557" rx="2.805" ry="1.9557" transform="matrix(-1 0 0 1 190.116 35.2024)" fill="white"/>
<ellipse cx="2.805" cy="1.9557" rx="2.805" ry="1.9557" transform="matrix(-1 0 0 1 190.116 26.0759)" fill="white"/>
<ellipse cx="2.805" cy="2.28165" rx="2.805" ry="2.28165" transform="matrix(-1 0 0 1 190.116 74.3164)" fill="white"/>
<ellipse cx="2.805" cy="2.28165" rx="2.805" ry="2.28165" transform="matrix(-1 0 0 1 190.116 65.1899)" fill="white"/>
<ellipse cx="186.377" cy="3.25944" rx="9.35" ry="9.77848" fill="white"/>
<ellipse cx="184.507" cy="101.044" rx="9.35001" ry="9.77848" fill="white"/>
<ellipse cx="-9.72748e-05" cy="3.91129" rx="9.35" ry="9.77848" fill="white"/>
<ellipse cx="1.24648" cy="101.044" rx="9.35" ry="9.77848" fill="white"/>
<ellipse cx="8.415" cy="8.80063" rx="8.415" ry="8.80063" transform="matrix(-1 0 0 1 5.60986 43.6772)" fill="white"/>
<ellipse cx="2.805" cy="1.9557" rx="2.805" ry="1.9557" transform="matrix(-1 0 0 1 3.11621 35.2024)" fill="white"/>
<ellipse cx="2.805" cy="1.9557" rx="2.805" ry="1.9557" transform="matrix(-1 0 0 1 3.11621 26.0759)" fill="white"/>
<ellipse cx="2.805" cy="2.28165" rx="2.805" ry="2.28165" transform="matrix(-1 0 0 1 3.11621 74.3164)" fill="white"/>
<ellipse cx="2.805" cy="2.28165" rx="2.805" ry="2.28165" transform="matrix(-1 0 0 1 3.11621 65.1899)" fill="white"/>
<g filter="url(#filter1_d_1439_13459)">
<g clip-path="url(#clip1_1439_13459)">
<rect x="14.96" y="7.82275" width="155.833" height="87.3544" rx="10" fill="white"/>
<rect x="77.1699" y="27.2278" width="81.28" height="17.9051" stroke="#E13838"/>
<path d="M89.0755 37.6062H91.4115C91.3646 38.3718 91.1537 39.0515 90.7787 39.6453C90.4089 40.239 89.8906 40.7026 89.224 41.0359C88.5625 41.3692 87.7656 41.5359 86.8334 41.5359C86.1042 41.5359 85.4505 41.4109 84.8724 41.1609C84.2943 40.9057 83.7995 40.5411 83.388 40.0671C82.9818 39.5932 82.6719 39.0203 82.4584 38.3484C82.2448 37.6765 82.138 36.9239 82.138 36.0906V35.3015C82.138 34.4682 82.2474 33.7156 82.4662 33.0437C82.6901 32.3666 83.0078 31.7911 83.4193 31.3171C83.836 30.8432 84.3334 30.4786 84.9115 30.2234C85.4896 29.9682 86.1354 29.8406 86.849 29.8406C87.7969 29.8406 88.5964 30.0125 89.2474 30.3562C89.9037 30.7 90.4115 31.1739 90.7709 31.7781C91.1354 32.3822 91.3542 33.0697 91.4271 33.8406H89.0834C89.0573 33.3822 88.9662 32.9942 88.8099 32.6765C88.6537 32.3536 88.4167 32.1114 88.099 31.95C87.7865 31.7833 87.3698 31.7 86.849 31.7C86.4584 31.7 86.1172 31.7729 85.8255 31.9187C85.5339 32.0645 85.2891 32.2859 85.0912 32.5828C84.8933 32.8796 84.7448 33.2546 84.6459 33.7078C84.5521 34.1557 84.5052 34.6817 84.5052 35.2859V36.0906C84.5052 36.6791 84.5495 37.1973 84.638 37.6453C84.7266 38.088 84.862 38.463 85.0443 38.7703C85.2318 39.0723 85.4714 39.3015 85.763 39.4578C86.0599 39.6088 86.4167 39.6843 86.8334 39.6843C87.3229 39.6843 87.7266 39.6062 88.0443 39.45C88.362 39.2937 88.6042 39.0619 88.7709 38.7546C88.9427 38.4473 89.0443 38.0645 89.0755 37.6062ZM103.894 35.4265V35.9656C103.894 36.8302 103.777 37.6062 103.543 38.2937C103.308 38.9812 102.978 39.5671 102.551 40.0515C102.123 40.5307 101.613 40.8979 101.019 41.1531C100.431 41.4083 99.7771 41.5359 99.0584 41.5359C98.3448 41.5359 97.6912 41.4083 97.0974 41.1531C96.5089 40.8979 95.9985 40.5307 95.5662 40.0515C95.1339 39.5671 94.7979 38.9812 94.5584 38.2937C94.324 37.6062 94.2068 36.8302 94.2068 35.9656V35.4265C94.2068 34.5567 94.324 33.7807 94.5584 33.0984C94.7927 32.4109 95.1235 31.825 95.5505 31.3406C95.9828 30.8562 96.4933 30.4864 97.0818 30.2312C97.6755 29.976 98.3292 29.8484 99.0427 29.8484C99.7615 29.8484 100.415 29.976 101.004 30.2312C101.597 30.4864 102.108 30.8562 102.535 31.3406C102.967 31.825 103.301 32.4109 103.535 33.0984C103.775 33.7807 103.894 34.5567 103.894 35.4265ZM101.527 35.9656V35.4109C101.527 34.8067 101.472 34.2755 101.363 33.8171C101.254 33.3588 101.092 32.9734 100.879 32.6609C100.665 32.3484 100.405 32.114 100.097 31.9578C99.7901 31.7963 99.4386 31.7156 99.0427 31.7156C98.6469 31.7156 98.2953 31.7963 97.988 31.9578C97.686 32.114 97.4281 32.3484 97.2146 32.6609C97.0063 32.9734 96.8474 33.3588 96.738 33.8171C96.6287 34.2755 96.574 34.8067 96.574 35.4109V35.9656C96.574 36.5645 96.6287 37.0958 96.738 37.5593C96.8474 38.0177 97.0089 38.4057 97.2224 38.7234C97.436 39.0359 97.6964 39.2729 98.0037 39.4343C98.311 39.5958 98.6625 39.6765 99.0584 39.6765C99.4542 39.6765 99.8058 39.5958 100.113 39.4343C100.42 39.2729 100.678 39.0359 100.886 38.7234C101.095 38.4057 101.254 38.0177 101.363 37.5593C101.472 37.0958 101.527 36.5645 101.527 35.9656ZM113.463 30.0046H115.799V37.5203C115.799 38.3953 115.611 39.1322 115.236 39.7312C114.867 40.3302 114.354 40.7807 113.697 41.0828C113.046 41.3848 112.296 41.5359 111.447 41.5359C110.598 41.5359 109.843 41.3848 109.182 41.0828C108.526 40.7807 108.01 40.3302 107.635 39.7312C107.265 39.1322 107.08 38.3953 107.08 37.5203V30.0046H109.424V37.5203C109.424 38.0307 109.505 38.4473 109.666 38.7703C109.828 39.0932 110.059 39.3302 110.361 39.4812C110.669 39.6322 111.031 39.7078 111.447 39.7078C111.875 39.7078 112.236 39.6322 112.533 39.4812C112.835 39.3302 113.065 39.0932 113.221 38.7703C113.382 38.4473 113.463 38.0307 113.463 37.5203V30.0046ZM123.758 37.325H120.86V35.4968H123.758C124.206 35.4968 124.571 35.4239 124.852 35.2781C125.133 35.127 125.339 34.9187 125.469 34.6531C125.6 34.3875 125.665 34.088 125.665 33.7546C125.665 33.4161 125.6 33.101 125.469 32.8093C125.339 32.5177 125.133 32.2833 124.852 32.1062C124.571 31.9291 124.206 31.8406 123.758 31.8406H121.672V41.3796H119.329V30.0046H123.758C124.649 30.0046 125.412 30.1661 126.047 30.489C126.688 30.8067 127.178 31.2468 127.516 31.8093C127.855 32.3718 128.024 33.0151 128.024 33.739C128.024 34.4734 127.855 35.1088 127.516 35.6453C127.178 36.1817 126.688 36.5958 126.047 36.8875C125.412 37.1791 124.649 37.325 123.758 37.325ZM140.585 35.4265V35.9656C140.585 36.8302 140.468 37.6062 140.233 38.2937C139.999 38.9812 139.668 39.5671 139.241 40.0515C138.814 40.5307 138.304 40.8979 137.71 41.1531C137.121 41.4083 136.468 41.5359 135.749 41.5359C135.035 41.5359 134.382 41.4083 133.788 41.1531C133.2 40.8979 132.689 40.5307 132.257 40.0515C131.825 39.5671 131.489 38.9812 131.249 38.2937C131.015 37.6062 130.897 36.8302 130.897 35.9656V35.4265C130.897 34.5567 131.015 33.7807 131.249 33.0984C131.483 32.4109 131.814 31.825 132.241 31.3406C132.673 30.8562 133.184 30.4864 133.772 30.2312C134.366 29.976 135.02 29.8484 135.733 29.8484C136.452 29.8484 137.106 29.976 137.694 30.2312C138.288 30.4864 138.798 30.8562 139.226 31.3406C139.658 31.825 139.991 32.4109 140.226 33.0984C140.465 33.7807 140.585 34.5567 140.585 35.4265ZM138.218 35.9656V35.4109C138.218 34.8067 138.163 34.2755 138.054 33.8171C137.944 33.3588 137.783 32.9734 137.569 32.6609C137.356 32.3484 137.095 32.114 136.788 31.9578C136.481 31.7963 136.129 31.7156 135.733 31.7156C135.338 31.7156 134.986 31.7963 134.679 31.9578C134.377 32.114 134.119 32.3484 133.905 32.6609C133.697 32.9734 133.538 33.3588 133.429 33.8171C133.319 34.2755 133.265 34.8067 133.265 35.4109V35.9656C133.265 36.5645 133.319 37.0958 133.429 37.5593C133.538 38.0177 133.7 38.4057 133.913 38.7234C134.127 39.0359 134.387 39.2729 134.694 39.4343C135.002 39.5958 135.353 39.6765 135.749 39.6765C136.145 39.6765 136.496 39.5958 136.804 39.4343C137.111 39.2729 137.369 39.0359 137.577 38.7234C137.785 38.4057 137.944 38.0177 138.054 37.5593C138.163 37.0958 138.218 36.5645 138.218 35.9656ZM153.13 30.0046V41.3796H150.786L146.216 33.7546V41.3796H143.872V30.0046H146.216L150.794 37.6375V30.0046H153.13Z" fill="#E13838"/>
<path d="M116.798 64.293V66.5H111.281V64.293H116.798ZM126.281 57.1348H126.691V59.3809H126.525C125.783 59.3809 125.122 59.4915 124.542 59.7129C123.963 59.9342 123.472 60.25 123.068 60.6602C122.671 61.0638 122.365 61.5521 122.15 62.125C121.942 62.6979 121.837 63.3392 121.837 64.0488V66.4121C121.837 66.9199 121.886 67.3691 121.984 67.7598C122.088 68.1439 122.235 68.4661 122.423 68.7266C122.619 68.9805 122.847 69.1725 123.107 69.3027C123.367 69.4264 123.66 69.4883 123.986 69.4883C124.292 69.4883 124.569 69.4232 124.816 69.293C125.07 69.1628 125.285 68.9805 125.46 68.7461C125.643 68.5052 125.779 68.2253 125.871 67.9062C125.968 67.5807 126.017 67.2259 126.017 66.8418C126.017 66.4577 125.968 66.1029 125.871 65.7773C125.779 65.4518 125.643 65.1719 125.46 64.9375C125.278 64.6966 125.057 64.5111 124.796 64.3809C124.536 64.2507 124.243 64.1855 123.917 64.1855C123.475 64.1855 123.084 64.2897 122.746 64.498C122.414 64.6999 122.153 64.9603 121.964 65.2793C121.776 65.5983 121.675 65.9336 121.662 66.2852L120.812 65.7383C120.832 65.237 120.936 64.7617 121.125 64.3125C121.32 63.8633 121.587 63.4661 121.925 63.1211C122.27 62.7695 122.684 62.4961 123.166 62.3008C123.647 62.099 124.191 61.998 124.796 61.998C125.46 61.998 126.043 62.125 126.544 62.3789C127.052 62.6328 127.475 62.9811 127.814 63.4238C128.153 63.8665 128.406 64.3776 128.576 64.957C128.745 65.5365 128.83 66.1549 128.83 66.8125C128.83 67.5026 128.716 68.1439 128.488 68.7363C128.266 69.3288 127.944 69.8464 127.521 70.2891C127.104 70.7318 126.603 71.0768 126.017 71.3242C125.431 71.5716 124.774 71.6953 124.044 71.6953C123.289 71.6953 122.602 71.5586 121.984 71.2852C121.372 71.0052 120.845 70.6146 120.402 70.1133C119.959 69.612 119.617 69.0163 119.376 68.3262C119.142 67.6361 119.025 66.8809 119.025 66.0605V64.9668C119.025 63.821 119.191 62.7728 119.523 61.8223C119.861 60.8652 120.347 60.0384 120.978 59.3418C121.61 58.6387 122.371 58.0951 123.263 57.7109C124.155 57.3268 125.161 57.1348 126.281 57.1348ZM140.08 63.1406V65.6016C140.08 66.6693 139.966 67.5905 139.738 68.3652C139.51 69.1335 139.181 69.765 138.751 70.2598C138.328 70.748 137.824 71.1094 137.238 71.3438C136.652 71.5781 136.001 71.6953 135.285 71.6953C134.712 71.6953 134.178 71.6237 133.683 71.4805C133.188 71.3307 132.742 71.0996 132.345 70.7871C131.955 70.4746 131.616 70.0807 131.33 69.6055C131.05 69.1237 130.835 68.5508 130.685 67.8867C130.535 67.2227 130.46 66.4609 130.46 65.6016V63.1406C130.46 62.0729 130.574 61.1582 130.802 60.3965C131.037 59.6283 131.365 59 131.789 58.5117C132.218 58.0234 132.726 57.6654 133.312 57.4375C133.898 57.2031 134.549 57.0859 135.265 57.0859C135.838 57.0859 136.369 57.1608 136.857 57.3105C137.352 57.4538 137.798 57.6784 138.195 57.9844C138.592 58.2904 138.931 58.6842 139.21 59.166C139.49 59.6413 139.705 60.2109 139.855 60.875C140.005 61.5326 140.08 62.2878 140.08 63.1406ZM137.257 65.9727V62.7598C137.257 62.2454 137.228 61.7962 137.169 61.4121C137.117 61.028 137.036 60.7025 136.925 60.4355C136.815 60.1621 136.678 59.9408 136.515 59.7715C136.352 59.6022 136.167 59.4785 135.958 59.4004C135.75 59.3223 135.519 59.2832 135.265 59.2832C134.946 59.2832 134.663 59.3451 134.416 59.4688C134.175 59.5924 133.97 59.791 133.8 60.0645C133.631 60.3314 133.501 60.6895 133.41 61.1387C133.325 61.5814 133.283 62.1217 133.283 62.7598V65.9727C133.283 66.487 133.309 66.9395 133.361 67.3301C133.419 67.7207 133.504 68.056 133.615 68.3359C133.732 68.6094 133.869 68.834 134.025 69.0098C134.188 69.179 134.373 69.3027 134.582 69.3809C134.796 69.459 135.031 69.498 135.285 69.498C135.597 69.498 135.874 69.4362 136.115 69.3125C136.362 69.1823 136.57 68.9805 136.74 68.707C136.916 68.4271 137.046 68.0625 137.13 67.6133C137.215 67.1641 137.257 66.6172 137.257 65.9727ZM141.955 60.7676V60.0156C141.955 59.4753 142.072 58.9837 142.306 58.541C142.541 58.0983 142.886 57.7435 143.341 57.4766C143.797 57.2096 144.357 57.0762 145.021 57.0762C145.705 57.0762 146.274 57.2096 146.73 57.4766C147.192 57.7435 147.537 58.0983 147.765 58.541C148 58.9837 148.117 59.4753 148.117 60.0156V60.7676C148.117 61.2949 148 61.7799 147.765 62.2227C147.537 62.6654 147.195 63.0202 146.74 63.2871C146.284 63.554 145.718 63.6875 145.041 63.6875C144.37 63.6875 143.804 63.554 143.341 63.2871C142.886 63.0202 142.541 62.6654 142.306 62.2227C142.072 61.7799 141.955 61.2949 141.955 60.7676ZM143.82 60.0156V60.7676C143.82 60.9954 143.862 61.2135 143.947 61.4219C144.038 61.6237 144.175 61.7897 144.357 61.9199C144.546 62.0436 144.774 62.1055 145.041 62.1055C145.32 62.1055 145.548 62.0436 145.724 61.9199C145.9 61.7897 146.03 61.6237 146.115 61.4219C146.199 61.2135 146.242 60.9954 146.242 60.7676V60.0156C146.242 59.7747 146.196 59.5534 146.105 59.3516C146.02 59.1432 145.887 58.9772 145.705 58.8535C145.529 58.7233 145.301 58.6582 145.021 58.6582C144.761 58.6582 144.539 58.7233 144.357 58.8535C144.175 58.9772 144.038 59.1432 143.947 59.3516C143.862 59.5534 143.82 59.7747 143.82 60.0156ZM148.751 68.7656V68.0137C148.751 67.4798 148.869 66.9915 149.103 66.5488C149.344 66.1061 149.692 65.7513 150.148 65.4844C150.61 65.2174 151.177 65.084 151.847 65.084C152.524 65.084 153.091 65.2174 153.546 65.4844C154.002 65.7513 154.347 66.1061 154.582 66.5488C154.816 66.9915 154.933 67.4798 154.933 68.0137V68.7656C154.933 69.2995 154.816 69.7878 154.582 70.2305C154.354 70.6732 154.012 71.028 153.556 71.2949C153.1 71.5618 152.537 71.6953 151.867 71.6953C151.19 71.6953 150.62 71.5618 150.158 71.2949C149.695 71.028 149.344 70.6732 149.103 70.2305C148.869 69.7878 148.751 69.2995 148.751 68.7656ZM150.626 68.0137V68.7656C150.626 69 150.679 69.2214 150.783 69.4297C150.887 69.638 151.03 69.804 151.212 69.9277C151.401 70.0514 151.619 70.1133 151.867 70.1133C152.179 70.1133 152.423 70.0514 152.599 69.9277C152.775 69.804 152.895 69.638 152.96 69.4297C153.032 69.2214 153.068 69 153.068 68.7656V68.0137C153.068 67.7793 153.022 67.5612 152.931 67.3594C152.84 67.151 152.703 66.985 152.521 66.8613C152.345 66.7311 152.121 66.666 151.847 66.666C151.574 66.666 151.346 66.7311 151.164 66.8613C150.988 66.985 150.854 67.151 150.763 67.3594C150.672 67.5612 150.626 67.7793 150.626 68.0137ZM152.541 59.3125L145.597 70.4258L144.23 69.7031L151.173 58.5898L152.541 59.3125Z" fill="#E13838"/>
<rect width="74.5892" height="123.818" transform="matrix(0.698593 0.71552 -0.683528 0.729925 45.9861 -51.3928)" fill="#F5CB58"/>
<ellipse cx="54.9413" cy="64.6299" rx="1.95791" ry="2.04763" fill="#E13838"/>
<ellipse cx="63.556" cy="64.6299" rx="1.9579" ry="2.04763" fill="#E13838"/>
<ellipse cx="72.1708" cy="64.6299" rx="1.95791" ry="2.04763" fill="#E13838"/>
<ellipse cx="81.5687" cy="64.6299" rx="1.9579" ry="2.04763" fill="#E13838"/>
<ellipse cx="54.9413" cy="72.8203" rx="1.95791" ry="2.04763" fill="#E13838"/>
<ellipse cx="63.556" cy="72.8203" rx="1.9579" ry="2.04763" fill="#E13838"/>
<ellipse cx="72.1708" cy="72.8203" rx="1.95791" ry="2.04763" fill="#E13838"/>
<ellipse cx="81.5687" cy="72.8203" rx="1.9579" ry="2.04763" fill="#E13838"/>
<ellipse cx="54.9413" cy="81.011" rx="1.95791" ry="2.04763" fill="#E13838"/>
<ellipse cx="63.556" cy="81.011" rx="1.9579" ry="2.04763" fill="#E13838"/>
<ellipse cx="72.1708" cy="81.011" rx="1.95791" ry="2.04763" fill="#E13838"/>
<ellipse cx="81.5687" cy="81.011" rx="1.9579" ry="2.04763" fill="#E13838"/>
</g>
<rect x="15.46" y="8.32275" width="154.833" height="86.3544" rx="9.5" stroke="#CCCCCC"/>
</g>
</g>
<path d="M21.4959 17.7327L20.1628 17.7329L20.1555 16.9986L21.2748 16.9984C21.472 16.9984 21.6336 16.9734 21.7595 16.9235C21.8854 16.8712 21.9793 16.7963 22.0411 16.6989C22.1052 16.5991 22.1373 16.4779 22.1372 16.3353C22.1372 16.1737 22.1063 16.043 22.0445 15.9432C21.9851 15.8434 21.8912 15.771 21.7629 15.7258C21.6369 15.6807 21.4742 15.6582 21.2745 15.6582L20.5331 15.6583L20.5338 20.0105L19.4645 20.0107L19.4637 14.8208L21.2744 14.8205C21.5762 14.8205 21.8459 14.849 22.0836 14.906C22.3236 14.9629 22.5268 15.0497 22.6931 15.1661C22.8595 15.2825 22.9866 15.4298 23.0746 15.608C23.1625 15.7838 23.2065 15.9929 23.2066 16.2353C23.2066 16.4492 23.1579 16.6464 23.0605 16.827C22.9655 17.0077 22.8146 17.155 22.6079 17.2691C22.4036 17.3832 22.1362 17.4462 21.8059 17.4581L21.4959 17.7327ZM21.4499 20.0104L19.8708 20.0106L20.2877 19.1765L21.4498 19.1763C21.6375 19.1762 21.7908 19.1465 21.9096 19.0871C22.0284 19.0253 22.1163 18.9421 22.1733 18.8375C22.2303 18.733 22.2588 18.613 22.2588 18.4775C22.2588 18.3254 22.2326 18.1935 22.1803 18.0819C22.1304 17.9702 22.0496 17.8847 21.9379 17.8253C21.8262 17.7635 21.6788 17.7326 21.4959 17.7327L20.4657 17.7328L20.4728 16.9985L21.756 16.9983L22.0019 17.287C22.318 17.2822 22.5723 17.338 22.7648 17.4544C22.9596 17.5685 23.1011 17.717 23.189 17.8999C23.2793 18.0829 23.3245 18.2789 23.3246 18.488C23.3246 18.8207 23.2522 19.1011 23.1073 19.3293C22.9623 19.555 22.7497 19.725 22.4693 19.8391C22.1913 19.9532 21.8515 20.0103 21.4499 20.0104ZM25.8377 20.0809C25.5383 20.081 25.2698 20.0335 25.0322 19.9385C24.7945 19.8411 24.5925 19.7069 24.4261 19.5358C24.2621 19.3647 24.1362 19.1663 24.0482 18.9406C23.9602 18.7125 23.9162 18.4701 23.9162 18.2135L23.9162 18.0709C23.9161 17.7786 23.9577 17.5113 24.0408 17.2689C24.1239 17.0265 24.2427 16.8162 24.3972 16.6379C24.554 16.4597 24.744 16.323 24.9674 16.2279C25.1908 16.1304 25.4426 16.0817 25.723 16.0816C25.9963 16.0816 26.2387 16.1267 26.4502 16.217C26.6617 16.3072 26.8388 16.4355 26.9814 16.6019C27.1264 16.7682 27.2357 16.9678 27.3094 17.2006C27.3831 17.4311 27.42 17.6878 27.42 17.9705L27.4201 18.3983L24.3547 18.3988L24.3546 17.7144L26.4112 17.7141L26.4112 17.6356C26.4112 17.4931 26.3851 17.3659 26.3328 17.2543C26.2828 17.1402 26.2068 17.0499 26.1046 16.9834C26.0024 16.9169 25.8717 16.8836 25.7125 16.8836C25.577 16.8837 25.4606 16.9134 25.3632 16.9728C25.2658 17.0322 25.1862 17.1154 25.1244 17.2224C25.065 17.3293 25.0199 17.4553 24.989 17.6002C24.9605 17.7428 24.9463 17.8996 24.9463 18.0707L24.9463 18.2133C24.9464 18.3678 24.9678 18.5103 25.0106 18.641C25.0557 18.7717 25.1187 18.8846 25.1995 18.9796C25.2827 19.0747 25.3825 19.1483 25.499 19.2006C25.6178 19.2528 25.7521 19.279 25.9018 19.2789C26.0871 19.2789 26.2594 19.2432 26.4186 19.1719C26.5802 19.0982 26.7192 18.9877 26.8356 18.8404L27.3347 19.3821C27.2539 19.4985 27.1434 19.6102 27.0033 19.7172C26.8655 19.8241 26.6991 19.9121 26.5043 19.981C26.3094 20.0476 26.0873 20.0809 25.8377 20.0809ZM25.1135 15.6291L25.8119 14.5311L26.9276 14.5309L25.9475 15.6289L25.1135 15.6291ZM29.0096 16.9758L29.0101 20.0091L27.9835 20.0093L27.9829 16.1526L28.9453 16.1524L29.0096 16.9758ZM28.8601 17.9454L28.582 17.9454C28.582 17.6602 28.6188 17.4036 28.6924 17.1755C28.766 16.9449 28.8694 16.7489 29.0024 16.5873C29.1355 16.4233 29.2935 16.2985 29.4764 16.2129C29.6618 16.125 29.8685 16.081 30.0966 16.0809C30.2772 16.0809 30.4424 16.107 30.5921 16.1593C30.7418 16.2115 30.8702 16.2947 30.9771 16.4087C31.0864 16.5228 31.1696 16.6737 31.2267 16.8614C31.2861 17.0491 31.3159 17.2784 31.3159 17.5493L31.3163 20.0088L30.2826 20.0089L30.2822 17.5459C30.2822 17.3748 30.2584 17.2417 30.2109 17.1467C30.1633 17.0517 30.0932 16.9851 30.0005 16.9471C29.9102 16.9067 29.7985 16.8866 29.6655 16.8866C29.5276 16.8866 29.4076 16.914 29.3055 16.9686C29.2057 17.0233 29.1225 17.0993 29.056 17.1968C28.9918 17.2919 28.9431 17.4035 28.9099 17.5319C28.8767 17.6602 28.86 17.798 28.8601 17.9454ZM33.872 20.0797C33.5726 20.0797 33.3041 20.0322 33.0664 19.9372C32.8288 19.8398 32.6268 19.7056 32.4604 19.5345C32.2964 19.3635 32.1704 19.1651 32.0825 18.9393C31.9945 18.7112 31.9505 18.4688 31.9505 18.2122L31.9505 18.0696C31.9504 17.7773 31.992 17.51 32.0751 17.2676C32.1582 17.0252 32.277 16.8149 32.4314 16.6366C32.5882 16.4584 32.7783 16.3217 33.0017 16.2266C33.225 16.1292 33.4769 16.0804 33.7573 16.0804C34.0306 16.0803 34.273 16.1254 34.4845 16.2157C34.696 16.306 34.8731 16.4343 35.0157 16.6006C35.1606 16.7669 35.27 16.9665 35.3437 17.1994C35.4174 17.4298 35.4543 17.6865 35.4543 17.9693L35.4544 18.397L32.3889 18.3975L32.3888 17.7131L34.4455 17.7128L34.4455 17.6344C34.4455 17.4918 34.4193 17.3647 34.367 17.253C34.3171 17.1389 34.2411 17.0486 34.1389 16.9821C34.0367 16.9156 33.906 16.8823 33.7468 16.8824C33.6113 16.8824 33.4949 16.9121 33.3975 16.9715C33.3 17.031 33.2204 17.1141 33.1587 17.2211C33.0993 17.328 33.0542 17.454 33.0233 17.5989C32.9948 17.7415 32.9806 17.8984 32.9806 18.0695L32.9806 18.212C32.9806 18.3665 33.002 18.5091 33.0448 18.6398C33.09 18.7704 33.153 18.8833 33.2338 18.9784C33.317 19.0734 33.4168 19.147 33.5333 19.1993C33.6521 19.2516 33.7863 19.2777 33.9361 19.2777C34.1214 19.2776 34.2937 19.242 34.4529 19.1706C34.6145 19.0969 34.7535 18.9864 34.8699 18.8391L35.369 19.3808C35.2882 19.4972 35.1777 19.6089 35.0375 19.7159C34.8997 19.8229 34.7334 19.9108 34.5386 19.9798C34.3437 20.0463 34.1215 20.0796 33.872 20.0797ZM33.1477 15.6278L33.8462 14.5298L34.9619 14.5296L33.9818 15.6276L33.1477 15.6278ZM37.3224 20.0078L36.2923 20.008L36.2916 15.9766C36.2916 15.6487 36.3581 15.3718 36.4911 15.146C36.6265 14.9203 36.819 14.7492 37.0685 14.6327C37.3203 14.5162 37.6245 14.4579 37.9809 14.4579C38.1829 14.4578 38.379 14.478 38.5691 14.5184C38.7592 14.5564 38.9553 14.6062 39.1572 14.668L39.0077 15.4914C38.877 15.451 38.7368 15.413 38.587 15.3774C38.4373 15.3418 38.2567 15.324 38.0452 15.324C37.8076 15.3241 37.627 15.3799 37.5035 15.4916C37.3823 15.601 37.3217 15.7626 37.3218 15.9764L37.3224 20.0078ZM38.0881 16.151L38.0883 16.8781L35.7179 16.8785L35.7178 16.1513L38.0881 16.151ZM39.6351 16.1507L39.6357 20.0075L38.6056 20.0076L38.605 16.1509L39.6351 16.1507ZM42.088 19.2764C42.2139 19.2763 42.3256 19.2526 42.423 19.205C42.5204 19.1551 42.5965 19.0862 42.6511 18.9982C42.7081 18.9079 42.7378 18.8022 42.7402 18.681L43.7061 18.6808C43.7038 18.9517 43.6314 19.1929 43.4888 19.4045C43.3463 19.6136 43.155 19.7788 42.915 19.9C42.675 20.0189 42.4065 20.0783 42.1095 20.0784C41.8101 20.0784 41.5487 20.0285 41.3253 19.9288C41.1043 19.829 40.9201 19.6912 40.7727 19.5154C40.6254 19.3372 40.5148 19.1305 40.4411 18.8952C40.3674 18.6576 40.3305 18.4033 40.3305 18.1324L40.3305 18.0291C40.3304 17.7558 40.3672 17.5015 40.4409 17.2663C40.5145 17.0286 40.625 16.8219 40.7723 16.646C40.9196 16.4678 41.1037 16.3287 41.3247 16.2289C41.5457 16.129 41.8047 16.0791 42.1017 16.079C42.4178 16.079 42.6946 16.1395 42.9323 16.2607C43.1723 16.3818 43.36 16.5553 43.4955 16.781C43.6334 17.0044 43.7035 17.2693 43.706 17.5759L42.74 17.576C42.7376 17.4477 42.7102 17.3313 42.6579 17.2267C42.608 17.1222 42.5343 17.039 42.4369 16.9772C42.3418 16.9131 42.2242 16.881 42.084 16.881C41.9343 16.8811 41.8119 16.9132 41.7169 16.9773C41.6218 17.0391 41.5482 17.1247 41.4959 17.234C41.4437 17.341 41.4069 17.4633 41.3855 17.6012C41.3665 17.7366 41.357 17.8792 41.357 18.0289L41.3571 18.1323C41.3571 18.282 41.3666 18.4258 41.3856 18.5636C41.4047 18.7014 41.4403 18.8238 41.4926 18.9307C41.5473 19.0376 41.6222 19.122 41.7172 19.1837C41.8123 19.2455 41.9359 19.2764 42.088 19.2764ZM45.3846 16.1498L45.3852 20.0065L44.3551 20.0067L44.3545 16.15L45.3846 16.1498ZM44.2901 15.1448C44.2901 14.9951 44.3424 14.8715 44.4469 14.7741C44.5515 14.6766 44.6916 14.6279 44.8675 14.6279C45.041 14.6278 45.18 14.6765 45.2846 14.7739C45.3915 14.8714 45.445 14.9949 45.445 15.1446C45.445 15.2943 45.3916 15.4179 45.2847 15.5153C45.1801 15.6128 45.0411 15.6615 44.8677 15.6616C44.6918 15.6616 44.5516 15.6129 44.447 15.5155C44.3425 15.4181 44.2902 15.2945 44.2901 15.1448ZM48.0086 20.0774C47.7092 20.0775 47.4407 20.03 47.2031 19.935C46.9654 19.8376 46.7634 19.7033 46.597 19.5323C46.433 19.3612 46.3071 19.1628 46.2191 18.9371C46.1311 18.709 46.0871 18.4666 46.0871 18.2099L46.0871 18.0674C46.087 17.7751 46.1286 17.5077 46.2117 17.2653C46.2948 17.023 46.4136 16.8126 46.5681 16.6344C46.7249 16.4561 46.9149 16.3195 47.1383 16.2244C47.3617 16.1269 47.6135 16.0782 47.8939 16.0781C48.1672 16.0781 48.4096 16.1232 48.6211 16.2135C48.8326 16.3037 49.0097 16.432 49.1523 16.5983C49.2973 16.7646 49.4066 16.9642 49.4803 17.1971C49.554 17.4276 49.5909 17.6842 49.5909 17.967L49.591 18.3947L46.5256 18.3952L46.5255 17.7109L48.5821 17.7105L48.5821 17.6321C48.5821 17.4895 48.5559 17.3624 48.5037 17.2507C48.4537 17.1367 48.3777 17.0464 48.2755 16.9799C48.1733 16.9133 48.0426 16.8801 47.8834 16.8801C47.7479 16.8801 47.6315 16.9099 47.5341 16.9693C47.4367 17.0287 47.3571 17.1119 47.2953 17.2188C47.2359 17.3258 47.1908 17.4517 47.1599 17.5967C47.1314 17.7393 47.1172 17.8961 47.1172 18.0672L47.1172 18.2098C47.1173 18.3642 47.1387 18.5068 47.1815 18.6375C47.2266 18.7682 47.2896 18.8811 47.3704 18.9761C47.4536 19.0711 47.5534 19.1448 47.6699 19.197C47.7887 19.2493 47.923 19.2754 48.0727 19.2754C48.258 19.2754 48.4303 19.2397 48.5895 19.1684C48.7511 19.0947 48.8901 18.9842 49.0065 18.8368L49.5056 19.3785C49.4248 19.495 49.3143 19.6067 49.1742 19.7137C49.0364 19.8206 48.87 19.9086 48.6752 19.9775C48.4803 20.0441 48.2582 20.0774 48.0086 20.0774ZM53.2447 19.2033L53.2448 20.0053L50.3148 20.0058L50.3147 19.2038L53.2447 19.2033ZM53.1873 16.7403L50.7283 20.0057L50.0404 20.0058L50.0403 19.3963L52.4885 16.1487L53.1872 16.1486L53.1873 16.7403ZM52.8236 16.1486L52.8237 16.9542L50.0969 16.9546L50.0968 16.1491L52.8236 16.1486ZM21.6793 28.1691L21.6786 23.5353L22.7123 23.5352L22.7131 29.0102L21.7828 29.0103L21.6793 28.1691ZM19.2411 27.1287L19.2411 27.0538C19.241 26.7592 19.2742 26.4918 19.3407 26.2518C19.4072 26.0094 19.5046 25.8015 19.6329 25.628C19.7612 25.4545 19.9192 25.3202 20.1069 25.2251C20.2946 25.13 20.5085 25.0825 20.7485 25.0824C20.9743 25.0824 21.1715 25.1299 21.3402 25.2249C21.5113 25.3199 21.6563 25.4554 21.7752 25.6312C21.8964 25.8046 21.9938 26.0102 22.0675 26.2478C22.1412 26.483 22.1947 26.7409 22.2281 27.0213L22.2281 27.1852C22.1949 27.4538 22.1414 27.7033 22.0678 27.9338C21.9942 28.1643 21.8968 28.3663 21.7756 28.5398C21.6568 28.7109 21.5119 28.844 21.3408 28.9391C21.1697 29.0342 20.9701 29.0817 20.742 29.0818C20.502 29.0818 20.2881 29.0331 20.1004 28.9357C19.915 28.8383 19.7582 28.7017 19.6298 28.5259C19.5038 28.35 19.4076 28.1433 19.341 27.9057C19.2744 27.6681 19.2411 27.4091 19.2411 27.1287ZM20.2676 27.0537L20.2676 27.1285C20.2677 27.2877 20.2796 27.4362 20.3033 27.5741C20.3295 27.7119 20.3711 27.8343 20.4282 27.9412C20.4876 28.0457 20.5636 28.1277 20.6563 28.1871C20.7514 28.2441 20.8666 28.2726 21.0021 28.2726C21.1779 28.2726 21.3229 28.2333 21.4369 28.1549C21.551 28.0741 21.6377 27.9636 21.6971 27.8233C21.7588 27.6831 21.7945 27.5215 21.8039 27.3386L21.8039 26.8716C21.7967 26.7219 21.7753 26.5877 21.7396 26.4689C21.7064 26.3477 21.6564 26.2443 21.5899 26.1588C21.5257 26.0732 21.4449 26.0067 21.3475 25.9592C21.2524 25.9117 21.1395 25.8879 21.0088 25.888C20.8758 25.888 20.7617 25.9189 20.6667 25.9807C20.5716 26.0401 20.4944 26.1221 20.435 26.2267C20.378 26.3312 20.3352 26.4548 20.3068 26.5974C20.2806 26.7376 20.2676 26.8897 20.2676 27.0537ZM24.4517 23.5349L24.4518 24.0767C24.4518 24.2311 24.4222 24.3903 24.3628 24.5543C24.3058 24.7183 24.2286 24.874 24.1312 25.0213C24.0338 25.1663 23.9268 25.2899 23.8104 25.3921L23.3292 25.1141C23.4171 24.9739 23.4919 24.8218 23.5537 24.6578C23.6154 24.4915 23.6463 24.299 23.6462 24.0804L23.6462 23.535L24.4517 23.5349ZM27.4715 28.0862L27.4711 25.1527L28.4976 25.1525L28.4982 29.0092L27.5323 29.0094L27.4715 28.0862ZM27.5855 27.2949L27.8885 27.2877C27.8885 27.5443 27.8588 27.7832 27.7995 28.0042C27.7401 28.2228 27.651 28.4129 27.5322 28.5745C27.4134 28.7338 27.2637 28.8585 27.0832 28.9489C26.9026 29.0368 26.6899 29.0808 26.4451 29.0808C26.2574 29.0809 26.0839 29.0548 25.9247 29.0025C25.7679 28.9479 25.6324 28.8635 25.5183 28.7495C25.4066 28.6331 25.3187 28.4846 25.2545 28.304C25.1927 28.121 25.1617 27.9012 25.1617 27.6446L25.1613 25.153L26.1879 25.1529L26.1883 27.6515C26.1883 27.7656 26.2014 27.8618 26.2275 27.9403C26.256 28.0187 26.2953 28.0828 26.3452 28.1327C26.3951 28.1826 26.4533 28.2182 26.5199 28.2396C26.5888 28.261 26.6648 28.2717 26.748 28.2717C26.9595 28.2716 27.1258 28.2288 27.247 28.1433C27.3705 28.0577 27.4573 27.9412 27.5071 27.7939C27.5594 27.6442 27.5855 27.4778 27.5855 27.2949ZM30.2871 25.9756L30.2876 29.0089L29.261 29.0091L29.2604 25.1524L30.2228 25.1522L30.2871 25.9756ZM30.1376 26.9452L29.8595 26.9452C29.8595 26.66 29.8963 26.4034 29.9699 26.1753C30.0435 25.9447 30.1469 25.7487 30.2799 25.5871C30.413 25.4231 30.571 25.2983 30.7539 25.2127C30.9393 25.1248 31.146 25.0808 31.3741 25.0807C31.5547 25.0807 31.7199 25.1068 31.8696 25.1591C32.0193 25.2113 32.1477 25.2945 32.2546 25.4085C32.3639 25.5226 32.4471 25.6735 32.5042 25.8612C32.5636 26.0489 32.5934 26.2782 32.5934 26.5491L32.5938 29.0086L31.5601 29.0087L31.5597 26.5457C31.5597 26.3746 31.5359 26.2415 31.4884 26.1465C31.4408 26.0515 31.3707 25.9849 31.278 25.9469C31.1877 25.9065 31.076 25.8864 30.943 25.8864C30.8051 25.8864 30.6851 25.9137 30.583 25.9684C30.4832 26.0231 30.4 26.0991 30.3335 26.1966C30.2693 26.2916 30.2207 26.4033 30.1874 26.5317C30.1542 26.66 30.1375 26.7978 30.1376 26.9452ZM35.1495 29.0795C34.8501 29.0795 34.5816 29.032 34.3439 28.937C34.1063 28.8396 33.9043 28.7054 33.7379 28.5343C33.5739 28.3633 33.448 28.1649 33.36 27.9391C33.272 27.711 33.228 27.4686 33.228 27.212L33.228 27.0694C33.2279 26.7771 33.2695 26.5098 33.3526 26.2674C33.4357 26.025 33.5545 25.8147 33.7089 25.6364C33.8657 25.4582 34.0558 25.3215 34.2792 25.2264C34.5025 25.129 34.7544 25.0802 35.0348 25.0802C35.3081 25.0801 35.5505 25.1252 35.762 25.2155C35.9735 25.3058 36.1506 25.4341 36.2932 25.6004C36.4381 25.7667 36.5475 25.9663 36.6212 26.1991C36.6949 26.4296 36.7318 26.6863 36.7318 26.9691L36.7319 27.3968L33.6664 27.3973L33.6663 26.7129L35.723 26.7126L35.723 26.6342C35.723 26.4916 35.6968 26.3644 35.6445 26.2528C35.5946 26.1387 35.5186 26.0484 35.4164 25.9819C35.3142 25.9154 35.1835 25.8821 35.0243 25.8822C34.8888 25.8822 34.7724 25.9119 34.675 25.9713C34.5775 26.0308 34.498 26.1139 34.4362 26.2209C34.3768 26.3278 34.3317 26.4538 34.3008 26.5987C34.2723 26.7413 34.2581 26.8982 34.2581 27.0693L34.2581 27.2118C34.2581 27.3663 34.2796 27.5089 34.3223 27.6396C34.3675 27.7702 34.4305 27.8831 34.5113 27.9781C34.5945 28.0732 34.6943 28.1468 34.8108 28.1991C34.9296 28.2514 35.0639 28.2775 35.2136 28.2774C35.3989 28.2774 35.5712 28.2417 35.7304 28.1704C35.892 28.0967 36.031 27.9862 36.1474 27.8389L36.6465 28.3806C36.5657 28.497 36.4552 28.6087 36.315 28.7157C36.1772 28.8227 36.0109 28.9106 35.8161 28.9796C35.6212 29.0461 35.399 29.0794 35.1495 29.0795ZM20.4293 34.995L20.4298 38.0105L19.4032 38.0107L19.4026 34.1539L20.3685 34.1538L20.4293 34.995ZM21.5912 34.1286L21.5735 35.0804C21.5236 35.0732 21.463 35.0673 21.3917 35.0626C21.3228 35.0554 21.2598 35.0519 21.2028 35.0519C21.0578 35.0519 20.9319 35.0709 20.825 35.109C20.7204 35.1446 20.6325 35.1981 20.5612 35.2694C20.4923 35.3407 20.44 35.4275 20.4044 35.5297C20.3712 35.6318 20.3522 35.7483 20.3474 35.879L20.1407 35.8149C20.1406 35.5653 20.1656 35.336 20.2154 35.1269C20.2653 34.9154 20.3377 34.7312 20.4328 34.5744C20.5302 34.4175 20.649 34.2963 20.7892 34.2107C20.9294 34.1252 21.0897 34.0824 21.2703 34.0824C21.3274 34.0823 21.3856 34.0871 21.445 34.0966C21.5044 34.1037 21.5531 34.1144 21.5912 34.1286ZM23.7804 38.0813C23.4809 38.0813 23.2124 38.0338 22.9748 37.9388C22.7371 37.8414 22.5351 37.7072 22.3687 37.5361C22.2048 37.3651 22.0788 37.1667 21.9908 36.9409C21.9029 36.7128 21.8589 36.4704 21.8588 36.2138L21.8588 36.0712C21.8587 35.7789 21.9003 35.5116 21.9834 35.2692C22.0666 35.0268 22.1853 34.8165 22.3398 34.6382C22.4966 34.46 22.6867 34.3233 22.91 34.2282C23.1334 34.1308 23.3853 34.082 23.6657 34.082C23.9389 34.0819 24.1813 34.127 24.3928 34.2173C24.6043 34.3076 24.7814 34.4359 24.924 34.6022C25.069 34.7685 25.1783 34.9681 25.252 35.201C25.3257 35.4314 25.3626 35.6881 25.3626 35.9709L25.3627 36.3986L22.2973 36.3991L22.2972 35.7147L24.3539 35.7144L24.3538 35.636C24.3538 35.4934 24.3277 35.3663 24.2754 35.2546C24.2254 35.1405 24.1494 35.0502 24.0472 34.9837C23.945 34.9172 23.8143 34.8839 23.6551 34.884C23.5196 34.884 23.4032 34.9137 23.3058 34.9731C23.2084 35.0326 23.1288 35.1157 23.067 35.2227C23.0076 35.3296 22.9625 35.4556 22.9316 35.6005C22.9031 35.7431 22.8889 35.9 22.8889 36.0711L22.8889 36.2136C22.889 36.3681 22.9104 36.5107 22.9532 36.6414C22.9983 36.7721 23.0613 36.8849 23.1421 36.98C23.2253 37.075 23.3251 37.1486 23.4416 37.2009C23.5604 37.2532 23.6947 37.2793 23.8444 37.2793C24.0297 37.2792 24.202 37.2436 24.3612 37.1722C24.5228 37.0986 24.6618 36.988 24.7782 36.8407L25.2773 37.3824C25.1965 37.4989 25.0861 37.6106 24.9459 37.7175C24.8081 37.8245 24.6417 37.9124 24.4469 37.9814C24.252 38.0479 24.0299 38.0812 23.7804 38.0813ZM23.0561 33.6294L23.7545 32.5314L24.8702 32.5312L23.8901 33.6293L23.0561 33.6294ZM28.2251 37.1681L28.2243 32.5343L29.258 32.5341L29.2589 38.0091L28.3286 38.0093L28.2251 37.1681ZM25.7868 36.1276L25.7868 36.0528C25.7868 35.7581 25.82 35.4908 25.8865 35.2508C25.953 35.0084 26.0504 34.8004 26.1787 34.6269C26.307 34.4534 26.465 34.3192 26.6527 34.2241C26.8404 34.129 27.0543 34.0814 27.2943 34.0814C27.52 34.0814 27.7173 34.1289 27.886 34.2239C28.0571 34.3189 28.2021 34.4543 28.3209 34.6302C28.4421 34.8036 28.5396 35.0091 28.6133 35.2468C28.687 35.482 28.7405 35.7398 28.7738 36.0202L28.7739 36.1842C28.7406 36.4527 28.6872 36.7022 28.6136 36.9327C28.5399 37.1633 28.4425 37.3653 28.3214 37.5388C28.2026 37.7099 28.0577 37.843 27.8866 37.938C27.7155 38.0331 27.5159 38.0807 27.2878 38.0807C27.0478 38.0807 26.8339 38.0321 26.6462 37.9347C26.4608 37.8373 26.3039 37.7007 26.1756 37.5248C26.0496 37.349 25.9533 37.1423 25.8868 36.9047C25.8202 36.667 25.7869 36.408 25.7868 36.1276ZM26.8134 36.0526L26.8134 36.1275C26.8134 36.2867 26.8253 36.4352 26.8491 36.573C26.8753 36.7108 26.9169 36.8332 26.9739 36.9401C27.0333 37.0447 27.1094 37.1267 27.2021 37.186C27.2971 37.2431 27.4124 37.2716 27.5479 37.2715C27.7237 37.2715 27.8686 37.2323 27.9827 37.1538C28.0967 37.073 28.1835 36.9625 28.2429 36.8223C28.3046 36.6821 28.3402 36.5205 28.3497 36.3375L28.3496 35.8706C28.3425 35.7209 28.3211 35.5866 28.2854 35.4678C28.2521 35.3466 28.2022 35.2433 28.1357 35.1577C28.0715 35.0722 27.9907 35.0057 27.8932 34.9582C27.7982 34.9106 27.6853 34.8869 27.5546 34.8869C27.4215 34.8869 27.3075 34.9179 27.2124 34.9796C27.1174 35.0391 27.0402 35.1211 26.9808 35.2256C26.9238 35.3302 26.881 35.4538 26.8525 35.5964C26.8264 35.7366 26.8134 35.8886 26.8134 36.0526ZM32.342 37.0854L32.3415 34.1519L33.3681 34.1517L33.3687 38.0085L32.4028 38.0086L32.342 37.0854ZM32.456 36.2941L32.7589 36.2869C32.759 36.5436 32.7293 36.7824 32.6699 37.0034C32.6106 37.222 32.5215 37.4121 32.4027 37.5737C32.2839 37.733 32.1342 37.8578 31.9536 37.9481C31.773 38.036 31.5604 38.08 31.3156 38.0801C31.1279 38.0801 30.9544 38.054 30.7952 38.0017C30.6383 37.9471 30.5029 37.8628 30.3888 37.7487C30.2771 37.6323 30.1891 37.4838 30.125 37.3032C30.0631 37.1202 30.0322 36.9004 30.0322 36.6438L30.0318 34.1522L31.0583 34.1521L31.0587 36.6508C31.0588 36.7648 31.0718 36.8611 31.098 36.9395C31.1265 37.0179 31.1657 37.082 31.2157 37.1319C31.2656 37.1818 31.3238 37.2175 31.3903 37.2388C31.4592 37.2602 31.5353 37.2709 31.6185 37.2709C31.83 37.2709 31.9963 37.2281 32.1175 37.1425C32.241 37.0569 32.3277 36.9405 32.3776 36.7931C32.4299 36.6434 32.456 36.4771 32.456 36.2941ZM35.7461 37.2774C35.872 37.2773 35.9837 37.2536 36.0811 37.206C36.1786 37.1561 36.2546 37.0872 36.3092 36.9992C36.3663 36.9089 36.3959 36.8032 36.3983 36.682L37.3643 36.6818C37.3619 36.9527 37.2895 37.1939 37.1469 37.4055C37.0044 37.6146 36.8131 37.7798 36.5731 37.901C36.3332 38.0199 36.0646 38.0793 35.7676 38.0794C35.4682 38.0794 35.2068 38.0295 34.9834 37.9298C34.7624 37.83 34.5782 37.6922 34.4309 37.5164C34.2835 37.3382 34.173 37.1315 34.0993 36.8962C34.0256 36.6586 33.9887 36.4044 33.9886 36.1335L33.9886 36.0301C33.9886 35.7568 34.0254 35.5025 34.099 35.2673C34.1726 35.0296 34.2831 34.8229 34.4304 34.647C34.5777 34.4688 34.7618 34.3297 34.9828 34.2299C35.2038 34.13 35.4628 34.0801 35.7598 34.08C36.0759 34.08 36.3527 34.1405 36.5904 34.2617C36.8304 34.3829 37.0182 34.5563 37.1537 34.782C37.2915 35.0054 37.3617 35.2703 37.3641 35.5769L36.3981 35.577C36.3957 35.4487 36.3684 35.3323 36.3161 35.2277C36.2662 35.1232 36.1925 35.04 36.095 34.9782C36 34.9141 35.8824 34.882 35.7422 34.8821C35.5924 34.8821 35.4701 34.9142 35.375 34.9784C35.28 35.0401 35.2063 35.1257 35.1541 35.235C35.1018 35.342 35.065 35.4644 35.0436 35.6022C35.0246 35.7376 35.0152 35.8802 35.0152 36.0299L35.0152 36.1333C35.0152 36.283 35.0248 36.4268 35.0438 36.5646C35.0628 36.7024 35.0985 36.8248 35.1508 36.9317C35.2055 37.0386 35.2803 37.123 35.3754 37.1847C35.4704 37.2465 35.594 37.2774 35.7461 37.2774ZM39.8483 34.1507L39.8484 34.8778L37.6028 34.8782L37.6027 34.151L39.8483 34.1507ZM38.1586 33.1992L39.1851 33.1991L39.1857 36.8455C39.1857 36.9572 39.2 37.0427 39.2285 37.1022C39.2594 37.1616 39.3046 37.2031 39.364 37.2269C39.4234 37.2483 39.4983 37.2589 39.5886 37.2589C39.6527 37.2589 39.7098 37.2565 39.7597 37.2518C39.8119 37.2446 39.8559 37.2375 39.8915 37.2304L39.8952 37.986C39.8073 38.0146 39.7123 38.0371 39.6101 38.0538C39.5079 38.0705 39.395 38.0788 39.2715 38.0788C39.0457 38.0788 38.8485 38.042 38.6798 37.9684C38.5134 37.8924 38.3851 37.7712 38.2947 37.6049C38.2044 37.4386 38.1592 37.2199 38.1592 36.9491L38.1586 33.1992ZM41.5164 34.1504L41.5171 38.0072L40.4869 38.0073L40.4863 34.1506L41.5164 34.1504ZM40.422 33.1454C40.422 32.9957 40.4742 32.8721 40.5788 32.7747C40.6833 32.6772 40.8235 32.6285 40.9994 32.6285C41.1728 32.6285 41.3119 32.6771 41.4164 32.7746C41.5234 32.872 41.5769 32.9955 41.5769 33.1452C41.5769 33.2949 41.5235 33.4185 41.4165 33.516C41.312 33.6134 41.173 33.6621 40.9995 33.6622C40.8237 33.6622 40.6835 33.6135 40.5789 33.5161C40.4743 33.4187 40.422 33.2951 40.422 33.1454ZM42.2011 36.1179L42.2011 36.043C42.2011 35.7603 42.2414 35.5 42.3222 35.2624C42.4029 35.0224 42.5205 34.8144 42.675 34.6386C42.8294 34.4627 43.0195 34.326 43.2452 34.2286C43.471 34.1287 43.73 34.0788 44.0222 34.0787C44.3145 34.0787 44.5747 34.1285 44.8029 34.2283C45.031 34.3257 45.2223 34.4623 45.3768 34.6381C45.5337 34.814 45.6525 35.0219 45.7334 35.2619C45.8142 35.4995 45.8546 35.7597 45.8547 36.0425L45.8547 36.1173C45.8547 36.3977 45.8144 36.6579 45.7336 36.8979C45.6529 37.1356 45.5341 37.3435 45.3773 37.5218C45.2229 37.6976 45.0328 37.8343 44.807 37.9318C44.5813 38.0292 44.3223 38.078 44.03 38.078C43.7377 38.0781 43.4775 38.0294 43.2494 37.932C43.0236 37.8346 42.8323 37.698 42.6754 37.5222C42.5209 37.344 42.4033 37.1361 42.3225 36.8985C42.2416 36.6585 42.2012 36.3983 42.2011 36.1179ZM43.2277 36.0429L43.2277 36.1177C43.2277 36.2793 43.242 36.4302 43.2705 36.5704C43.2991 36.7106 43.3443 36.8342 43.4061 36.9411C43.4702 37.0456 43.5534 37.1276 43.6556 37.187C43.7578 37.2464 43.8826 37.2761 44.0299 37.276C44.1725 37.276 44.2948 37.2463 44.397 37.1869C44.4992 37.1275 44.5812 37.0455 44.6429 36.9409C44.7047 36.8339 44.7498 36.7104 44.7783 36.5702C44.8092 36.43 44.8246 36.2791 44.8246 36.1175L44.8246 36.0426C44.8245 35.8858 44.8091 35.7385 44.7782 35.6006C44.7496 35.4604 44.7033 35.3369 44.6391 35.23C44.5773 35.1207 44.4953 35.0351 44.3931 34.9734C44.2909 34.9116 44.1673 34.8807 44.0224 34.8807C43.8774 34.8808 43.7539 34.9117 43.6517 34.9735C43.5519 35.0353 43.4699 35.1208 43.4058 35.2301C43.344 35.3371 43.2989 35.4607 43.2704 35.6009C43.2419 35.7387 43.2277 35.886 43.2277 36.0429ZM47.4906 34.9729L47.4911 38.0062L46.4645 38.0064L46.4639 34.1496L47.4263 34.1495L47.4906 34.9729ZM47.3411 35.9424L47.063 35.9425C47.063 35.6573 47.0998 35.4007 47.1734 35.1725C47.247 34.942 47.3504 34.7459 47.4834 34.5843C47.6165 34.4203 47.7745 34.2956 47.9574 34.21C48.1428 34.122 48.3495 34.078 48.5776 34.078C48.7582 34.078 48.9234 34.1041 49.0731 34.1563C49.2228 34.2086 49.3511 34.2918 49.4581 34.4058C49.5674 34.5198 49.6506 34.6707 49.7077 34.8584C49.7671 35.0462 49.7969 35.2755 49.7969 35.5464L49.7973 38.0058L48.7636 38.006L48.7632 35.543C48.7632 35.3719 48.7394 35.2388 48.6919 35.1438C48.6443 35.0487 48.5742 34.9822 48.4815 34.9442C48.3912 34.9038 48.2795 34.8836 48.1464 34.8836C48.0086 34.8837 47.8886 34.911 47.7865 34.9657C47.6867 35.0204 47.6035 35.0964 47.537 35.1938C47.4728 35.2889 47.4241 35.4006 47.3909 35.5289C47.3576 35.6573 47.341 35.7951 47.3411 35.9424ZM21.4897 45.9446C21.4897 45.8709 21.4683 45.8044 21.4255 45.745C21.3827 45.6856 21.3031 45.6309 21.1866 45.581C21.0726 45.5288 20.9074 45.4813 20.6911 45.4385C20.4963 45.3958 20.3145 45.3424 20.1458 45.2782C19.9794 45.2117 19.8344 45.1321 19.7109 45.0395C19.5897 44.9468 19.4946 44.8375 19.4256 44.7116C19.3567 44.5833 19.3222 44.4372 19.3222 44.2732C19.3222 44.1116 19.3566 43.9595 19.4255 43.8169C19.4968 43.6743 19.5977 43.5484 19.7284 43.439C19.8615 43.3273 20.0231 43.2406 20.2131 43.1788C20.4056 43.1146 20.6219 43.0825 20.8619 43.0824C21.1969 43.0824 21.4845 43.1358 21.7245 43.2427C21.9669 43.3496 22.1523 43.4969 22.2806 43.6846C22.4113 43.8699 22.4767 44.0814 22.4768 44.319L21.4502 44.3192C21.4502 44.2194 21.4288 44.1303 21.386 44.0519C21.3456 43.9711 21.2814 43.9081 21.1935 43.863C21.1079 43.8155 20.9962 43.7917 20.8584 43.7917C20.7444 43.7918 20.6457 43.812 20.5626 43.8524C20.4794 43.8904 20.4153 43.9427 20.3701 44.0093C20.3274 44.0734 20.306 44.1447 20.306 44.2231C20.306 44.2825 20.3179 44.336 20.3417 44.3835C20.3678 44.4287 20.4094 44.4702 20.4664 44.5083C20.5235 44.5463 20.5971 44.5819 20.6875 44.6152C20.7801 44.646 20.8942 44.6745 21.0297 44.7007C21.3077 44.7576 21.556 44.8325 21.7747 44.9251C21.9933 45.0154 22.1668 45.1389 22.2951 45.2957C22.4235 45.4502 22.4877 45.6533 22.4877 45.9052C22.4877 46.0763 22.4497 46.2331 22.3737 46.3757C22.2977 46.5183 22.1884 46.6431 22.0458 46.7501C21.9033 46.8546 21.7322 46.9366 21.5326 46.9961C21.3354 47.0531 21.1132 47.0817 20.8661 47.0817C20.5072 47.0818 20.2031 47.0177 19.9535 46.8894C19.7064 46.7611 19.5186 46.5984 19.3903 46.4012C19.2643 46.2016 19.2013 45.9972 19.2013 45.7881L20.1744 45.7879C20.1791 45.9281 20.2148 46.041 20.2813 46.1266C20.3503 46.2121 20.437 46.2739 20.5416 46.3119C20.6485 46.3499 20.7638 46.3689 20.8873 46.3688C21.0204 46.3688 21.1309 46.351 21.2188 46.3153C21.3067 46.2773 21.3733 46.2274 21.4184 46.1656C21.4659 46.1014 21.4897 46.0277 21.4897 45.9446ZM25.4355 46.0865L25.4351 43.153L26.4616 43.1528L26.4622 47.0096L25.4963 47.0097L25.4355 46.0865ZM25.5495 45.2952L25.8524 45.288C25.8525 45.5447 25.8228 45.7835 25.7635 46.0045C25.7041 46.2231 25.615 46.4132 25.4962 46.5748C25.3774 46.7341 25.2277 46.8589 25.0471 46.9492C24.8666 47.0371 24.6539 47.0811 24.4091 47.0812C24.2214 47.0812 24.0479 47.0551 23.8887 47.0028C23.7319 46.9482 23.5964 46.8639 23.4823 46.7498C23.3706 46.6334 23.2827 46.4849 23.2185 46.3043C23.1567 46.1213 23.1257 45.9015 23.1257 45.6449L23.1253 43.1533L24.1519 43.1532L24.1523 45.6519C24.1523 45.7659 24.1654 45.8622 24.1915 45.9406C24.22 46.019 24.2593 46.0831 24.3092 46.133C24.3591 46.1829 24.4173 46.2186 24.4839 46.2399C24.5528 46.2613 24.6288 46.272 24.712 46.272C24.9235 46.272 25.0898 46.2292 25.211 46.1436C25.3345 46.058 25.4213 45.9416 25.4711 45.7942C25.5234 45.6445 25.5495 45.4782 25.5495 45.2952ZM28.2725 43.9937L28.273 47.0093L27.2464 47.0094L27.2458 43.1527L28.2118 43.1525L28.2725 43.9937ZM29.4344 43.1274L29.4167 44.0791C29.3668 44.072 29.3062 44.0661 29.2349 44.0613C29.166 44.0542 29.103 44.0506 29.046 44.0506C28.901 44.0507 28.7751 44.0697 28.6682 44.1077C28.5636 44.1434 28.4757 44.1969 28.4044 44.2682C28.3355 44.3395 28.2833 44.4262 28.2476 44.5284C28.2144 44.6306 28.1954 44.747 28.1907 44.8777L27.9839 44.8136C27.9839 44.5641 28.0088 44.3348 28.0587 44.1257C28.1085 43.9142 28.181 43.73 28.276 43.5731C28.3734 43.4163 28.4922 43.2951 28.6324 43.2095C28.7726 43.1239 28.933 43.0811 29.1136 43.0811C29.1706 43.0811 29.2288 43.0858 29.2882 43.0953C29.3476 43.1025 29.3964 43.1131 29.4344 43.1274ZM32.8204 41.5335L32.8212 47.0085L31.7911 47.0087L31.7902 41.5337L32.8204 41.5335ZM35.7511 46.1383L35.7508 44.4203C35.7508 44.2967 35.7306 44.191 35.6902 44.1031C35.6497 44.0128 35.5868 43.9427 35.5012 43.8928C35.418 43.8429 35.3099 43.818 35.1768 43.818C35.0628 43.818 34.9641 43.8382 34.881 43.8786C34.7978 43.9167 34.7337 43.9725 34.6885 44.0462C34.6434 44.1175 34.6208 44.2018 34.6208 44.2993L33.5943 44.2994C33.5943 44.1355 33.6323 43.9798 33.7083 43.8325C33.7843 43.6851 33.8948 43.5556 34.0397 43.4439C34.1846 43.3298 34.3569 43.2407 34.5565 43.1765C34.7585 43.1123 34.9842 43.0802 35.2337 43.0801C35.5332 43.0801 35.7993 43.1299 36.0322 43.2297C36.2651 43.3295 36.4481 43.4792 36.5812 43.6787C36.7167 43.8783 36.7844 44.1278 36.7845 44.4272L36.7848 46.0776C36.7848 46.2891 36.7979 46.4625 36.824 46.598C36.8502 46.7311 36.8882 46.8475 36.9382 46.9473L36.9382 47.0079L35.9009 47.0081C35.851 46.9035 35.813 46.7728 35.7868 46.616C35.763 46.4568 35.7511 46.2976 35.7511 46.1383ZM35.8863 44.6591L35.8935 45.2401L35.3196 45.2402C35.1842 45.2402 35.0666 45.2557 34.9668 45.2866C34.867 45.3175 34.785 45.3615 34.7208 45.4185C34.6567 45.4732 34.6092 45.5373 34.5783 45.611C34.5498 45.6847 34.5355 45.7655 34.5355 45.8534C34.5356 45.9413 34.5558 46.0209 34.5962 46.0922C34.6366 46.1611 34.6948 46.2157 34.7709 46.2561C34.8469 46.2941 34.936 46.3131 35.0382 46.3131C35.1927 46.3131 35.3269 46.2822 35.441 46.2204C35.555 46.1586 35.6429 46.0825 35.7047 45.9922C35.7689 45.9019 35.8021 45.8164 35.8045 45.7356L36.0754 46.1704C36.0374 46.2678 35.9852 46.3688 35.9187 46.4734C35.8545 46.5779 35.7725 46.6766 35.6728 46.7693C35.573 46.8596 35.453 46.9345 35.3128 46.9939C35.1726 47.0509 35.0063 47.0795 34.8138 47.0795C34.569 47.0796 34.3468 47.0309 34.1472 46.9335C33.9499 46.8337 33.7931 46.6971 33.6766 46.5236C33.5625 46.3478 33.5055 46.1482 33.5054 45.9248C33.5054 45.7229 33.5434 45.5434 33.6194 45.3866C33.6954 45.2297 33.8071 45.0978 33.9544 44.9909C34.1041 44.8815 34.2906 44.7995 34.514 44.7448C34.7373 44.6878 34.9964 44.6592 35.291 44.6592L35.8863 44.6591ZM20.4888 50.5355L20.4897 56.0105L19.4595 56.0107L19.4587 50.5357L20.4888 50.5355ZM22.421 52.1535L22.4216 56.0102L21.3915 56.0104L21.3908 52.1536L22.421 52.1535ZM21.3265 51.1485C21.3265 50.9987 21.3788 50.8752 21.4833 50.7777C21.5878 50.6803 21.728 50.6315 21.9039 50.6315C22.0774 50.6315 22.2164 50.6802 22.321 50.7776C22.4279 50.875 22.4814 50.9986 22.4814 51.1483C22.4814 51.298 22.428 51.4216 22.3211 51.519C22.2165 51.6164 22.0775 51.6652 21.9041 51.6652C21.7282 51.6652 21.588 51.6165 21.4834 51.5191C21.3788 51.4217 21.3266 51.2982 21.3265 51.1485ZM24.5815 55.2613L25.4365 52.153L26.5094 52.1528L25.209 56.0098L24.5603 56.0099L24.5815 55.2613ZM23.9929 52.1532L24.8524 55.2648L24.8704 56.0098L24.2181 56.0099L22.9164 52.1534L23.9929 52.1532ZM27.9959 52.9938L27.9964 56.0093L26.9698 56.0095L26.9692 52.1527L27.9352 52.1526L27.9959 52.9938ZM29.1578 52.1274L29.1401 53.0791C29.0902 53.072 29.0296 53.0661 28.9583 53.0614C28.8894 53.0542 28.8264 53.0507 28.7694 53.0507C28.6245 53.0507 28.4985 53.0697 28.3916 53.1078C28.287 53.1434 28.1991 53.1969 28.1278 53.2682C28.0589 53.3395 28.0067 53.4263 27.971 53.5285C27.9378 53.6306 27.9188 53.7471 27.9141 53.8778L27.7073 53.8137C27.7073 53.5641 27.7322 53.3348 27.7821 53.1257C27.8319 52.9142 27.9044 52.73 27.9994 52.5732C28.0968 52.4163 28.2156 52.2951 28.3558 52.2095C28.496 52.124 28.6564 52.0812 28.837 52.0811C28.894 52.0811 28.9522 52.0859 29.0116 52.0954C29.071 52.1025 29.1198 52.1132 29.1578 52.1274ZM31.6035 55.139L31.6032 53.4209C31.6032 53.2974 31.583 53.1916 31.5426 53.1037C31.5021 53.0134 31.4392 52.9433 31.3536 52.8934C31.2704 52.8436 31.1623 52.8186 31.0292 52.8186C30.9152 52.8187 30.8166 52.8389 30.7334 52.8793C30.6502 52.9173 30.5861 52.9732 30.5409 53.0468C30.4958 53.1181 30.4732 53.2025 30.4733 53.2999L29.4467 53.3001C29.4467 53.1361 29.4847 52.9805 29.5607 52.8331C29.6367 52.6858 29.7472 52.5563 29.8921 52.4446C30.0371 52.3305 30.2093 52.2413 30.4089 52.1771C30.6109 52.1129 30.8366 52.0808 31.0861 52.0808C31.3856 52.0807 31.6517 52.1306 31.8846 52.2304C32.1175 52.3301 32.3005 52.4798 32.4336 52.6794C32.5691 52.879 32.6369 53.1285 32.6369 53.4279L32.6372 55.0782C32.6372 55.2897 32.6503 55.4632 32.6765 55.5987C32.7026 55.7317 32.7407 55.8482 32.7906 55.948L32.7906 56.0085L31.7533 56.0087C31.7034 55.9042 31.6654 55.7735 31.6392 55.6166C31.6154 55.4574 31.6035 55.2982 31.6035 55.139ZM31.7387 53.6597L31.7459 54.2407L31.172 54.2408C31.0366 54.2409 30.919 54.2563 30.8192 54.2872C30.7194 54.3181 30.6374 54.3621 30.5732 54.4192C30.5091 54.4738 30.4616 54.538 30.4307 54.6117C30.4022 54.6853 30.3879 54.7661 30.388 54.854C30.388 54.942 30.4082 55.0216 30.4486 55.0929C30.489 55.1618 30.5472 55.2164 30.6233 55.2568C30.6993 55.2948 30.7884 55.3138 30.8906 55.3138C31.0451 55.3138 31.1793 55.2828 31.2934 55.221C31.4074 55.1592 31.4953 55.0832 31.5571 54.9929C31.6213 54.9026 31.6545 54.817 31.6569 54.7362L31.9279 55.171C31.8898 55.2685 31.8376 55.3695 31.7711 55.474C31.7069 55.5786 31.625 55.6772 31.5252 55.7699C31.4254 55.8602 31.3054 55.9351 31.1652 55.9945C31.025 56.0516 30.8587 56.0801 30.6662 56.0802C30.4214 56.0802 30.1992 56.0315 29.9996 55.9341C29.8024 55.8344 29.6455 55.6978 29.529 55.5243C29.4149 55.3485 29.3579 55.1489 29.3578 54.9255C29.3578 54.7235 29.3958 54.5441 29.4718 54.3872C29.5478 54.2304 29.6595 54.0985 29.8068 53.9915C29.9565 53.8822 30.143 53.8002 30.3664 53.7455C30.5898 53.6884 30.8488 53.6599 31.1434 53.6598L31.7387 53.6597ZM34.5116 52.1515L34.5122 56.0083L33.4821 56.0084L33.4815 52.1517L34.5116 52.1515ZM33.4172 51.1465C33.4171 50.9968 33.4694 50.8732 33.5739 50.7758C33.6785 50.6784 33.8187 50.6296 33.9945 50.6296C34.168 50.6296 34.307 50.6783 34.4116 50.7757C34.5185 50.8731 34.572 50.9966 34.572 51.1463C34.5721 51.2961 34.5186 51.4196 34.4117 51.5171C34.3072 51.6145 34.1681 51.6633 33.9947 51.6633C33.8188 51.6633 33.6786 51.6146 33.574 51.5172C33.4695 51.4198 33.4172 51.2962 33.4172 51.1465ZM37.4456 54.942C37.4456 54.8684 37.4242 54.8018 37.3814 54.7424C37.3386 54.683 37.259 54.6284 37.1426 54.5785C37.0285 54.5262 36.8633 54.4787 36.6471 54.436C36.4522 54.3933 36.2704 54.3398 36.1017 54.2757C35.9353 54.2092 35.7904 54.1296 35.6668 54.0369C35.5456 53.9443 35.4505 53.835 35.3816 53.7091C35.3126 53.5808 35.2782 53.4346 35.2781 53.2707C35.2781 53.1091 35.3125 52.957 35.3814 52.8144C35.4527 52.6718 35.5537 52.5458 35.6843 52.4365C35.8174 52.3248 35.979 52.238 36.1691 52.1762C36.3615 52.112 36.5778 52.0799 36.8178 52.0799C37.1528 52.0798 37.4404 52.1332 37.6804 52.2401C37.9228 52.347 38.1082 52.4943 38.2365 52.682C38.3673 52.8674 38.4326 53.0789 38.4327 53.3165L37.4061 53.3167C37.4061 53.2168 37.3847 53.1277 37.3419 53.0493C37.3015 52.9685 37.2373 52.9056 37.1494 52.8604C37.0639 52.8129 36.9522 52.7892 36.8143 52.7892C36.7003 52.7892 36.6017 52.8094 36.5185 52.8498C36.4353 52.8879 36.3712 52.9402 36.326 53.0067C36.2833 53.0709 36.2619 53.1422 36.2619 53.2206C36.2619 53.28 36.2738 53.3335 36.2976 53.381C36.3237 53.4261 36.3653 53.4677 36.4224 53.5057C36.4794 53.5437 36.5531 53.5794 36.6434 53.6126C36.7361 53.6435 36.8501 53.672 36.9856 53.6981C37.2636 53.7551 37.5119 53.8299 37.7306 53.9226C37.9492 54.0128 38.1227 54.1364 38.2511 54.2932C38.3794 54.4476 38.4436 54.6508 38.4436 54.9027C38.4437 55.0738 38.4057 55.2306 38.3296 55.3732C38.2536 55.5158 38.1443 55.6406 38.0018 55.7475C37.8592 55.8521 37.6881 55.9341 37.4885 55.9935C37.2913 56.0506 37.0691 56.0792 36.822 56.0792C36.4632 56.0793 36.159 56.0151 35.9095 55.8869C35.6623 55.7586 35.4745 55.5958 35.3462 55.3986C35.2202 55.199 35.1572 54.9947 35.1572 54.7856L36.1303 54.7854C36.1351 54.9256 36.1707 55.0385 36.2373 55.124C36.3062 55.2095 36.3929 55.2713 36.4975 55.3093C36.6044 55.3473 36.7197 55.3663 36.8433 55.3663C36.9763 55.3663 37.0868 55.3484 37.1747 55.3128C37.2627 55.2747 37.3292 55.2248 37.3743 55.163C37.4218 55.0989 37.4456 55.0252 37.4456 54.942ZM38.9461 54.1184L38.9461 54.0436C38.946 53.7608 38.9864 53.5006 39.0671 53.2629C39.1479 53.0229 39.2655 52.815 39.4199 52.6391C39.5744 52.4632 39.7644 52.3265 39.9902 52.2291C40.2159 52.1292 40.4749 52.0793 40.7672 52.0793C41.0595 52.0792 41.3197 52.1291 41.5478 52.2288C41.776 52.3262 41.9673 52.4628 42.1218 52.6387C42.2786 52.8145 42.3975 53.0224 42.4783 53.2624C42.5592 53.5 42.5996 53.7602 42.5996 54.043L42.5997 54.1178C42.5997 54.3982 42.5593 54.6584 42.4786 54.8985C42.3978 55.1361 42.2791 55.344 42.1222 55.5223C41.9678 55.6982 41.7777 55.8348 41.552 55.9323C41.3263 56.0298 41.0673 56.0785 40.775 56.0786C40.4827 56.0786 40.2225 56.0299 39.9943 55.9325C39.7686 55.8352 39.5773 55.6985 39.4204 55.5227C39.2659 55.3445 39.1482 55.1366 39.0674 54.899C38.9866 54.659 38.9461 54.3988 38.9461 54.1184ZM39.9726 54.0434L39.9727 54.1182C39.9727 54.2798 39.987 54.4307 40.0155 54.5709C40.044 54.7111 40.0892 54.8347 40.151 54.9416C40.2152 55.0462 40.2984 55.1281 40.4006 55.1875C40.5027 55.2469 40.6275 55.2766 40.7748 55.2766C40.9174 55.2765 41.0398 55.2468 41.142 55.1874C41.2441 55.128 41.3261 55.046 41.3879 54.9414C41.4496 54.8345 41.4948 54.7109 41.5233 54.5707C41.5541 54.4305 41.5696 54.2796 41.5695 54.118L41.5695 54.0431C41.5695 53.8863 41.554 53.739 41.5231 53.6012C41.4946 53.461 41.4482 53.3374 41.384 53.2305C41.3222 53.1212 41.2402 53.0356 41.138 52.9739C41.0359 52.9121 40.9123 52.8812 40.7673 52.8813C40.6224 52.8813 40.4988 52.9122 40.3966 52.974C40.2968 53.0358 40.2149 53.1213 40.1507 53.2307C40.089 53.3376 40.0438 53.4612 40.0153 53.6014C39.9869 53.7392 39.9726 53.8866 39.9726 54.0434ZM44.2356 52.9734L44.236 56.0067L43.2095 56.0069L43.2089 52.1502L44.1713 52.15L44.2356 52.9734ZM44.086 53.9429L43.808 53.943C43.8079 53.6578 43.8447 53.4012 43.9184 53.173C43.992 52.9425 44.0953 52.7465 44.2284 52.5849C44.3614 52.4209 44.5194 52.2961 44.7024 52.2105C44.8877 52.1226 45.0944 52.0786 45.3226 52.0785C45.5032 52.0785 45.6683 52.1046 45.818 52.1569C45.9678 52.2091 46.0961 52.2923 46.203 52.4063C46.3124 52.5204 46.3956 52.6712 46.4526 52.859C46.5121 53.0467 46.5418 53.276 46.5419 53.5469L46.5422 56.0064L45.5086 56.0065L45.5082 53.5435C45.5081 53.3724 45.4843 53.2393 45.4368 53.1443C45.3893 53.0492 45.3192 52.9827 45.2265 52.9447C45.1362 52.9043 45.0245 52.8841 44.8914 52.8842C44.7536 52.8842 44.6336 52.9115 44.5314 52.9662C44.4316 53.0209 44.3485 53.0969 44.2819 53.1944C44.2178 53.2894 44.1691 53.4011 44.1358 53.5294C44.1026 53.6578 44.086 53.7956 44.086 53.9429Z" fill="black"/>
<defs>
<filter id="filter0_d_1439_13459" x="-11" y="-13" width="320" height="178" filterUnits="userSpaceOnUse" color-interpolation-filters="sRGB">
<feFlood flood-opacity="0" result="BackgroundImageFix"/>
<feColorMatrix in="SourceAlpha" type="matrix" values="0 0 0 0 0 0 0 0 0 0 0 0 0 0 0 0 0 0 127 0" result="hardAlpha"/>
<feOffset/>
<feGaussianBlur stdDeviation="5"/>
<feComposite in2="hardAlpha" operator="out"/>
<feColorMatrix type="matrix" values="0 0 0 0 0 0 0 0 0 0 0 0 0 0 0 0 0 0 0.25 0"/>
<feBlend mode="normal" in2="BackgroundImageFix" result="effect1_dropShadow_1439_13459"/>
<feBlend mode="normal" in="SourceGraphic" in2="effect1_dropShadow_1439_13459" result="shape"/>
</filter>
<filter id="filter1_d_1439_13459" x="10.96" y="7.82275" width="163.833" height="95.3545" filterUnits="userSpaceOnUse" color-interpolation-filters="sRGB">
<feFlood flood-opacity="0" result="BackgroundImageFix"/>
<feColorMatrix in="SourceAlpha" type="matrix" values="0 0 0 0 0 0 0 0 0 0 0 0 0 0 0 0 0 0 127 0" result="hardAlpha"/>
<feOffset dy="4"/>
<feGaussianBlur stdDeviation="2"/>
<feComposite in2="hardAlpha" operator="out"/>
<feColorMatrix type="matrix" values="0 0 0 0 0 0 0 0 0 0 0 0 0 0 0 0 0 0 0.25 0"/>
<feBlend mode="normal" in2="BackgroundImageFix" result="effect1_dropShadow_1439_13459"/>
<feBlend mode="normal" in="SourceGraphic" in2="effect1_dropShadow_1439_13459" result="shape"/>
</filter>
<clipPath id="clip0_1439_13459">
<rect width="187" height="103" fill="white"/>
</clipPath>
<clipPath id="clip1_1439_13459">
<rect x="14.96" y="7.82275" width="155.833" height="87.3544" rx="10" fill="white"/>
</clipPath>
</defs>
</svg>
