<svg width="187" height="103" viewBox="0 0 187 103" fill="none" xmlns="http://www.w3.org/2000/svg">
<g clip-path="url(#clip0_1439_13459)">
<g filter="url(#filter0_d_1439_13459)">
<path d="M-1 -3C-1 -3 44 -0.5 147 -0.5C250 -0.5 299 -3 299 -3V155C299 155 250 153 149 153C48 153 -1 155 -1 155V-3Z" fill="#E13838"/>
</g>
<ellipse cx="8.415" cy="8.80063" rx="8.415" ry="8.80063" transform="matrix(-1 0 0 1 198.22 43.6772)" fill="#FFF5F5"/>
<ellipse cx="2.805" cy="1.9557" rx="2.805" ry="1.9557" transform="matrix(-1 0 0 1 190.116 35.2024)" fill="#FFF5F5"/>
<ellipse cx="2.805" cy="1.9557" rx="2.805" ry="1.9557" transform="matrix(-1 0 0 1 190.116 26.0759)" fill="#FFF5F5"/>
<ellipse cx="2.805" cy="2.28165" rx="2.805" ry="2.28165" transform="matrix(-1 0 0 1 190.116 74.3164)" fill="#FFF5F5"/>
<ellipse cx="2.805" cy="2.28165" rx="2.805" ry="2.28165" transform="matrix(-1 0 0 1 190.116 65.1899)" fill="#FFF5F5"/>
<ellipse cx="186.377" cy="3.25944" rx="9.35" ry="9.77848" fill="#FFF5F5"/>
<ellipse cx="184.507" cy="101.044" rx="9.35001" ry="9.77848" fill="#FFF5F5"/>
<ellipse cx="-9.72748e-05" cy="3.91129" rx="9.35" ry="9.77848" fill="#FFF5F5"/>
<ellipse cx="1.24648" cy="101.044" rx="9.35" ry="9.77848" fill="#FFF5F5"/>
<ellipse cx="8.415" cy="8.80063" rx="8.415" ry="8.80063" transform="matrix(-1 0 0 1 5.60986 43.6772)" fill="#FFF5F5"/>
<ellipse cx="2.805" cy="1.9557" rx="2.805" ry="1.9557" transform="matrix(-1 0 0 1 3.11621 35.2024)" fill="#FFF5F5"/>
<ellipse cx="2.805" cy="1.9557" rx="2.805" ry="1.9557" transform="matrix(-1 0 0 1 3.11621 26.0759)" fill="#FFF5F5"/>
<ellipse cx="2.805" cy="2.28165" rx="2.805" ry="2.28165" transform="matrix(-1 0 0 1 3.11621 74.3164)" fill="#FFF5F5"/>
<ellipse cx="2.805" cy="2.28165" rx="2.805" ry="2.28165" transform="matrix(-1 0 0 1 3.11621 65.1899)" fill="#FFF5F5"/>
<g filter="url(#filter1_d_1439_13459)">
<g clip-path="url(#clip1_1439_13459)">
<rect x="14.96" y="7.82275" width="155.833" height="87.3544" rx="10" fill="white"/>
<rect x="77.1699" y="27.2278" width="81.28" height="17.9051" stroke="#E13838"/>
<path d="M89.0755 37.6062H91.4115C91.3646 38.3718 91.1537 39.0515 90.7787 39.6453C90.4089 40.239 89.8906 40.7026 89.224 41.0359C88.5625 41.3692 87.7656 41.5359 86.8334 41.5359C86.1042 41.5359 85.4505 41.4109 84.8724 41.1609C84.2943 40.9057 83.7995 40.5411 83.388 40.0671C82.9818 39.5932 82.6719 39.0203 82.4584 38.3484C82.2448 37.6765 82.138 36.9239 82.138 36.0906V35.3015C82.138 34.4682 82.2474 33.7156 82.4662 33.0437C82.6901 32.3666 83.0078 31.7911 83.4193 31.3171C83.836 30.8432 84.3334 30.4786 84.9115 30.2234C85.4896 29.9682 86.1354 29.8406 86.849 29.8406C87.7969 29.8406 88.5964 30.0125 89.2474 30.3562C89.9037 30.7 90.4115 31.1739 90.7709 31.7781C91.1354 32.3822 91.3542 33.0697 91.4271 33.8406H89.0834C89.0573 33.3822 88.9662 32.9942 88.8099 32.6765C88.6537 32.3536 88.4167 32.1114 88.099 31.95C87.7865 31.7833 87.3698 31.7 86.849 31.7C86.4584 31.7 86.1172 31.7729 85.8255 31.9187C85.5339 32.0645 85.2891 32.2859 85.0912 32.5828C84.8933 32.8796 84.7448 33.2546 84.6459 33.7078C84.5521 34.1557 84.5052 34.6817 84.5052 35.2859V36.0906C84.5052 36.6791 84.5495 37.1973 84.638 37.6453C84.7266 38.088 84.862 38.463 85.0443 38.7703C85.2318 39.0723 85.4714 39.3015 85.763 39.4578C86.0599 39.6088 86.4167 39.6843 86.8334 39.6843C87.3229 39.6843 87.7266 39.6062 88.0443 39.45C88.362 39.2937 88.6042 39.0619 88.7709 38.7546C88.9427 38.4473 89.0443 38.0645 89.0755 37.6062ZM103.894 35.4265V35.9656C103.894 36.8302 103.777 37.6062 103.543 38.2937C103.308 38.9812 102.978 39.5671 102.551 40.0515C102.123 40.5307 101.613 40.8979 101.019 41.1531C100.431 41.4083 99.7771 41.5359 99.0584 41.5359C98.3448 41.5359 97.6912 41.4083 97.0974 41.1531C96.5089 40.8979 95.9985 40.5307 95.5662 40.0515C95.1339 39.5671 94.7979 38.9812 94.5584 38.2937C94.324 37.6062 94.2068 36.8302 94.2068 35.9656V35.4265C94.2068 34.5567 94.324 33.7807 94.5584 33.0984C94.7927 32.4109 95.1235 31.825 95.5505 31.3406C95.9828 30.8562 96.4933 30.4864 97.0818 30.2312C97.6755 29.976 98.3292 29.8484 99.0427 29.8484C99.7615 29.8484 100.415 29.976 101.004 30.2312C101.597 30.4864 102.108 30.8562 102.535 31.3406C102.967 31.825 103.301 32.4109 103.535 33.0984C103.775 33.7807 103.894 34.5567 103.894 35.4265ZM101.527 35.9656V35.4109C101.527 34.8067 101.472 34.2755 101.363 33.8171C101.254 33.3588 101.092 32.9734 100.879 32.6609C100.665 32.3484 100.405 32.114 100.097 31.9578C99.7901 31.7963 99.4386 31.7156 99.0427 31.7156C98.6469 31.7156 98.2953 31.7963 97.988 31.9578C97.686 32.114 97.4281 32.3484 97.2146 32.6609C97.0063 32.9734 96.8474 33.3588 96.738 33.8171C96.6287 34.2755 96.574 34.8067 96.574 35.4109V35.9656C96.574 36.5645 96.6287 37.0958 96.738 37.5593C96.8474 38.0177 97.0089 38.4057 97.2224 38.7234C97.436 39.0359 97.6964 39.2729 98.0037 39.4343C98.311 39.5958 98.6625 39.6765 99.0584 39.6765C99.4542 39.6765 99.8058 39.5958 100.113 39.4343C100.42 39.2729 100.678 39.0359 100.886 38.7234C101.095 38.4057 101.254 38.0177 101.363 37.5593C101.472 37.0958 101.527 36.5645 101.527 35.9656ZM113.463 30.0046H115.799V37.5203C115.799 38.3953 115.611 39.1322 115.236 39.7312C114.867 40.3302 114.354 40.7807 113.697 41.0828C113.046 41.3848 112.296 41.5359 111.447 41.5359C110.598 41.5359 109.843 41.3848 109.182 41.0828C108.526 40.7807 108.01 40.3302 107.635 39.7312C107.265 39.1322 107.08 38.3953 107.08 37.5203V30.0046H109.424V37.5203C109.424 38.0307 109.505 38.4473 109.666 38.7703C109.828 39.0932 110.059 39.3302 110.361 39.4812C110.669 39.6322 111.031 39.7078 111.447 39.7078C111.875 39.7078 112.236 39.6322 112.533 39.4812C112.835 39.3302 113.065 39.0932 113.221 38.7703C113.382 38.4473 113.463 38.0307 113.463 37.5203V30.0046ZM123.758 37.325H120.86V35.4968H123.758C124.206 35.4968 124.571 35.4239 124.852 35.2781C125.133 35.127 125.339 34.9187 125.469 34.6531C125.6 34.3875 125.665 34.088 125.665 33.7546C125.665 33.4161 125.6 33.101 125.469 32.8093C125.339 32.5177 125.133 32.2833 124.852 32.1062C124.571 31.9291 124.206 31.8406 123.758 31.8406H121.672V41.3796H119.329V30.0046H123.758C124.649 30.0046 125.412 30.1661 126.047 30.489C126.688 30.8067 127.178 31.2468 127.516 31.8093C127.855 32.3718 128.024 33.0151 128.024 33.739C128.024 34.4734 127.855 35.1088 127.516 35.6453C127.178 36.1817 126.688 36.5958 126.047 36.8875C125.412 37.1791 124.649 37.325 123.758 37.325ZM140.585 35.4265V35.9656C140.585 36.8302 140.468 37.6062 140.233 38.2937C139.999 38.9812 139.668 39.5671 139.241 40.0515C138.814 40.5307 138.304 40.8979 137.71 41.1531C137.121 41.4083 136.468 41.5359 135.749 41.5359C135.035 41.5359 134.382 41.4083 133.788 41.1531C133.2 40.8979 132.689 40.5307 132.257 40.0515C131.825 39.5671 131.489 38.9812 131.249 38.2937C131.015 37.6062 130.897 36.8302 130.897 35.9656V35.4265C130.897 34.5567 131.015 33.7807 131.249 33.0984C131.483 32.4109 131.814 31.825 132.241 31.3406C132.673 30.8562 133.184 30.4864 133.772 30.2312C134.366 29.976 135.02 29.8484 135.733 29.8484C136.452 29.8484 137.106 29.976 137.694 30.2312C138.288 30.4864 138.798 30.8562 139.226 31.3406C139.658 31.825 139.991 32.4109 140.226 33.0984C140.465 33.7807 140.585 34.5567 140.585 35.4265ZM138.218 35.9656V35.4109C138.218 34.8067 138.163 34.2755 138.054 33.8171C137.944 33.3588 137.783 32.9734 137.569 32.6609C137.356 32.3484 137.095 32.114 136.788 31.9578C136.481 31.7963 136.129 31.7156 135.733 31.7156C135.338 31.7156 134.986 31.7963 134.679 31.9578C134.377 32.114 134.119 32.3484 133.905 32.6609C133.697 32.9734 133.538 33.3588 133.429 33.8171C133.319 34.2755 133.265 34.8067 133.265 35.4109V35.9656C133.265 36.5645 133.319 37.0958 133.429 37.5593C133.538 38.0177 133.7 38.4057 133.913 38.7234C134.127 39.0359 134.387 39.2729 134.694 39.4343C135.002 39.5958 135.353 39.6765 135.749 39.6765C136.145 39.6765 136.496 39.5958 136.804 39.4343C137.111 39.2729 137.369 39.0359 137.577 38.7234C137.785 38.4057 137.944 38.0177 138.054 37.5593C138.163 37.0958 138.218 36.5645 138.218 35.9656ZM153.13 30.0046V41.3796H150.786L146.216 33.7546V41.3796H143.872V30.0046H146.216L150.794 37.6375V30.0046H153.13Z" fill="#E13838"/>
<path d="M116.798 64.293V66.5H111.281V64.293H116.798ZM126.281 57.1348H126.691V59.3809H126.525C125.783 59.3809 125.122 59.4915 124.542 59.7129C123.963 59.9342 123.472 60.25 123.068 60.6602C122.671 61.0638 122.365 61.5521 122.15 62.125C121.942 62.6979 121.837 63.3392 121.837 64.0488V66.4121C121.837 66.9199 121.886 67.3691 121.984 67.7598C122.088 68.1439 122.235 68.4661 122.423 68.7266C122.619 68.9805 122.847 69.1725 123.107 69.3027C123.367 69.4264 123.66 69.4883 123.986 69.4883C124.292 69.4883 124.569 69.4232 124.816 69.293C125.07 69.1628 125.285 68.9805 125.46 68.7461C125.643 68.5052 125.779 68.2253 125.871 67.9062C125.968 67.5807 126.017 67.2259 126.017 66.8418C126.017 66.4577 125.968 66.1029 125.871 65.7773C125.779 65.4518 125.643 65.1719 125.46 64.9375C125.278 64.6966 125.057 64.5111 124.796 64.3809C124.536 64.2507 124.243 64.1855 123.917 64.1855C123.475 64.1855 123.084 64.2897 122.746 64.498C122.414 64.6999 122.153 64.9603 121.964 65.2793C121.776 65.5983 121.675 65.9336 121.662 66.2852L120.812 65.7383C120.832 65.237 120.936 64.7617 121.125 64.3125C121.32 63.8633 121.587 63.4661 121.925 63.1211C122.27 62.7695 122.684 62.4961 123.166 62.3008C123.647 62.099 124.191 61.998 124.796 61.998C125.46 61.998 126.043 62.125 126.544 62.3789C127.052 62.6328 127.475 62.9811 127.814 63.4238C128.153 63.8665 128.406 64.3776 128.576 64.957C128.745 65.5365 128.83 66.1549 128.83 66.8125C128.83 67.5026 128.716 68.1439 128.488 68.7363C128.266 69.3288 127.944 69.8464 127.521 70.2891C127.104 70.7318 126.603 71.0768 126.017 71.3242C125.431 71.5716 124.774 71.6953 124.044 71.6953C123.289 71.6953 122.602 71.5586 121.984 71.2852C121.372 71.0052 120.845 70.6146 120.402 70.1133C119.959 69.612 119.617 69.0163 119.376 68.3262C119.142 67.6361 119.025 66.8809 119.025 66.0605V64.9668C119.025 63.821 119.191 62.7728 119.523 61.8223C119.861 60.8652 120.347 60.0384 120.978 59.3418C121.61 58.6387 122.371 58.0951 123.263 57.7109C124.155 57.3268 125.161 57.1348 126.281 57.1348ZM140.08 63.1406V65.6016C140.08 66.6693 139.966 67.5905 139.738 68.3652C139.51 69.1335 139.181 69.765 138.751 70.2598C138.328 70.748 137.824 71.1094 137.238 71.3438C136.652 71.5781 136.001 71.6953 135.285 71.6953C134.712 71.6953 134.178 71.6237 133.683 71.4805C133.188 71.3307 132.742 71.0996 132.345 70.7871C131.955 70.4746 131.616 70.0807 131.33 69.6055C131.05 69.1237 130.835 68.5508 130.685 67.8867C130.535 67.2227 130.46 66.4609 130.46 65.6016V63.1406C130.46 62.0729 130.574 61.1582 130.802 60.3965C131.037 59.6283 131.365 59 131.789 58.5117C132.218 58.0234 132.726 57.6654 133.312 57.4375C133.898 57.2031 134.549 57.0859 135.265 57.0859C135.838 57.0859 136.369 57.1608 136.857 57.3105C137.352 57.4538 137.798 57.6784 138.195 57.9844C138.592 58.2904 138.931 58.6842 139.21 59.166C139.49 59.6413 139.705 60.2109 139.855 60.875C140.005 61.5326 140.08 62.2878 140.08 63.1406ZM137.257 65.9727V62.7598C137.257 62.2454 137.228 61.7962 137.169 61.4121C137.117 61.028 137.036 60.7025 136.925 60.4355C136.815 60.1621 136.678 59.9408 136.515 59.7715C136.352 59.6022 136.167 59.4785 135.958 59.4004C135.75 59.3223 135.519 59.2832 135.265 59.2832C134.946 59.2832 134.663 59.3451 134.416 59.4688C134.175 59.5924 133.97 59.791 133.8 60.0645C133.631 60.3314 133.501 60.6895 133.41 61.1387C133.325 61.5814 133.283 62.1217 133.283 62.7598V65.9727C133.283 66.487 133.309 66.9395 133.361 67.3301C133.419 67.7207 133.504 68.056 133.615 68.3359C133.732 68.6094 133.869 68.834 134.025 69.0098C134.188 69.179 134.373 69.3027 134.582 69.3809C134.796 69.459 135.031 69.498 135.285 69.498C135.597 69.498 135.874 69.4362 136.115 69.3125C136.362 69.1823 136.57 68.9805 136.74 68.707C136.916 68.4271 137.046 68.0625 137.13 67.6133C137.215 67.1641 137.257 66.6172 137.257 65.9727ZM141.955 60.7676V60.0156C141.955 59.4753 142.072 58.9837 142.306 58.541C142.541 58.0983 142.886 57.7435 143.341 57.4766C143.797 57.2096 144.357 57.0762 145.021 57.0762C145.705 57.0762 146.274 57.2096 146.73 57.4766C147.192 57.7435 147.537 58.0983 147.765 58.541C148 58.9837 148.117 59.4753 148.117 60.0156V60.7676C148.117 61.2949 148 61.7799 147.765 62.2227C147.537 62.6654 147.195 63.0202 146.74 63.2871C146.284 63.554 145.718 63.6875 145.041 63.6875C144.37 63.6875 143.804 63.554 143.341 63.2871C142.886 63.0202 142.541 62.6654 142.306 62.2227C142.072 61.7799 141.955 61.2949 141.955 60.7676ZM143.82 60.0156V60.7676C143.82 60.9954 143.862 61.2135 143.947 61.4219C144.038 61.6237 144.175 61.7897 144.357 61.9199C144.546 62.0436 144.774 62.1055 145.041 62.1055C145.32 62.1055 145.548 62.0436 145.724 61.9199C145.9 61.7897 146.03 61.6237 146.115 61.4219C146.199 61.2135 146.242 60.9954 146.242 60.7676V60.0156C146.242 59.7747 146.196 59.5534 146.105 59.3516C146.02 59.1432 145.887 58.9772 145.705 58.8535C145.529 58.7233 145.301 58.6582 145.021 58.6582C144.761 58.6582 144.539 58.7233 144.357 58.8535C144.175 58.9772 144.038 59.1432 143.947 59.3516C143.862 59.5534 143.82 59.7747 143.82 60.0156ZM148.751 68.7656V68.0137C148.751 67.4798 148.869 66.9915 149.103 66.5488C149.344 66.1061 149.692 65.7513 150.148 65.4844C150.61 65.2174 151.177 65.084 151.847 65.084C152.524 65.084 153.091 65.2174 153.546 65.4844C154.002 65.7513 154.347 66.1061 154.582 66.5488C154.816 66.9915 154.933 67.4798 154.933 68.0137V68.7656C154.933 69.2995 154.816 69.7878 154.582 70.2305C154.354 70.6732 154.012 71.028 153.556 71.2949C153.1 71.5618 152.537 71.6953 151.867 71.6953C151.19 71.6953 150.62 71.5618 150.158 71.2949C149.695 71.028 149.344 70.6732 149.103 70.2305C148.869 69.7878 148.751 69.2995 148.751 68.7656ZM150.626 68.0137V68.7656C150.626 69 150.679 69.2214 150.783 69.4297C150.887 69.638 151.03 69.804 151.212 69.9277C151.401 70.0514 151.619 70.1133 151.867 70.1133C152.179 70.1133 152.423 70.0514 152.599 69.9277C152.775 69.804 152.895 69.638 152.96 69.4297C153.032 69.2214 153.068 69 153.068 68.7656V68.0137C153.068 67.7793 153.022 67.5612 152.931 67.3594C152.84 67.151 152.703 66.985 152.521 66.8613C152.345 66.7311 152.121 66.666 151.847 66.666C151.574 66.666 151.346 66.7311 151.164 66.8613C150.988 66.985 150.854 67.151 150.763 67.3594C150.672 67.5612 150.626 67.7793 150.626 68.0137ZM152.541 59.3125L145.597 70.4258L144.23 69.7031L151.173 58.5898L152.541 59.3125Z" fill="#E13838"/>
<rect width="74.5892" height="123.818" transform="matrix(0.698593 0.71552 -0.683528 0.729925 45.9861 -51.3928)" fill="#F5CB58"/>
<ellipse cx="54.9413" cy="64.6299" rx="1.95791" ry="2.04763" fill="#E13838"/>
<ellipse cx="63.556" cy="64.6299" rx="1.9579" ry="2.04763" fill="#E13838"/>
<ellipse cx="72.1708" cy="64.6299" rx="1.95791" ry="2.04763" fill="#E13838"/>
<ellipse cx="81.5687" cy="64.6299" rx="1.9579" ry="2.04763" fill="#E13838"/>
<ellipse cx="54.9413" cy="72.8203" rx="1.95791" ry="2.04763" fill="#E13838"/>
<ellipse cx="63.556" cy="72.8203" rx="1.9579" ry="2.04763" fill="#E13838"/>
<ellipse cx="72.1708" cy="72.8203" rx="1.95791" ry="2.04763" fill="#E13838"/>
<ellipse cx="81.5687" cy="72.8203" rx="1.9579" ry="2.04763" fill="#E13838"/>
<ellipse cx="54.9413" cy="81.011" rx="1.95791" ry="2.04763" fill="#E13838"/>
<ellipse cx="63.556" cy="81.011" rx="1.9579" ry="2.04763" fill="#E13838"/>
<ellipse cx="72.1708" cy="81.011" rx="1.95791" ry="2.04763" fill="#E13838"/>
<ellipse cx="81.5687" cy="81.011" rx="1.9579" ry="2.04763" fill="#E13838"/>
</g>
<rect x="15.46" y="8.32275" width="154.833" height="86.3544" rx="9.5" stroke="#CCCCCC"/>
</g>
</g>
<path d="M21.4959 18.7327L20.1628 18.7329L20.1555 17.9986L21.2748 17.9984C21.472 17.9984 21.6336 17.9734 21.7595 17.9235C21.8854 17.8712 21.9793 17.7963 22.0411 17.6989C22.1052 17.5991 22.1373 17.4779 22.1372 17.3353C22.1372 17.1737 22.1063 17.043 22.0445 16.9432C21.9851 16.8434 21.8912 16.771 21.7629 16.7258C21.6369 16.6807 21.4742 16.6582 21.2745 16.6582L20.5331 16.6583L20.5338 21.0105L19.4645 21.0107L19.4637 15.8208L21.2744 15.8205C21.5762 15.8205 21.8459 15.849 22.0836 15.906C22.3236 15.9629 22.5268 16.0497 22.6931 16.1661C22.8595 16.2825 22.9866 16.4298 23.0746 16.608C23.1625 16.7838 23.2065 16.9929 23.2066 17.2353C23.2066 17.4492 23.1579 17.6464 23.0605 17.827C22.9655 18.0077 22.8146 18.155 22.6079 18.2691C22.4036 18.3832 22.1362 18.4462 21.8059 18.4581L21.4959 18.7327ZM21.4499 21.0104L19.8708 21.0106L20.2877 20.1765L21.4498 20.1763C21.6375 20.1762 21.7908 20.1465 21.9096 20.0871C22.0284 20.0253 22.1163 19.9421 22.1733 19.8375C22.2303 19.733 22.2588 19.613 22.2588 19.4775C22.2588 19.3254 22.2326 19.1935 22.1803 19.0819C22.1304 18.9702 22.0496 18.8847 21.9379 18.8253C21.8262 18.7635 21.6788 18.7326 21.4959 18.7327L20.4657 18.7328L20.4728 17.9985L21.756 17.9983L22.0019 18.287C22.318 18.2822 22.5723 18.338 22.7648 18.4544C22.9596 18.5685 23.1011 18.717 23.189 18.8999C23.2793 19.0829 23.3245 19.2789 23.3246 19.488C23.3246 19.8207 23.2522 20.1011 23.1073 20.3293C22.9623 20.555 22.7497 20.725 22.4693 20.8391C22.1913 20.9532 21.8515 21.0103 21.4499 21.0104ZM25.8377 21.0809C25.5383 21.081 25.2698 21.0335 25.0322 20.9385C24.7945 20.8411 24.5925 20.7069 24.4261 20.5358C24.2621 20.3647 24.1362 20.1663 24.0482 19.9406C23.9602 19.7125 23.9162 19.4701 23.9162 19.2135L23.9162 19.0709C23.9161 18.7786 23.9577 18.5113 24.0408 18.2689C24.1239 18.0265 24.2427 17.8162 24.3972 17.6379C24.554 17.4597 24.744 17.323 24.9674 17.2279C25.1908 17.1304 25.4426 17.0817 25.723 17.0816C25.9963 17.0816 26.2387 17.1267 26.4502 17.217C26.6617 17.3072 26.8388 17.4355 26.9814 17.6019C27.1264 17.7682 27.2357 17.9678 27.3094 18.2006C27.3831 18.4311 27.42 18.6878 27.42 18.9705L27.4201 19.3983L24.3547 19.3988L24.3546 18.7144L26.4112 18.7141L26.4112 18.6356C26.4112 18.4931 26.3851 18.3659 26.3328 18.2543C26.2828 18.1402 26.2068 18.0499 26.1046 17.9834C26.0024 17.9169 25.8717 17.8836 25.7125 17.8836C25.577 17.8837 25.4606 17.9134 25.3632 17.9728C25.2658 18.0322 25.1862 18.1154 25.1244 18.2224C25.065 18.3293 25.0199 18.4553 24.989 18.6002C24.9605 18.7428 24.9463 18.8996 24.9463 19.0707L24.9463 19.2133C24.9464 19.3678 24.9678 19.5103 25.0106 19.641C25.0557 19.7717 25.1187 19.8846 25.1995 19.9796C25.2827 20.0747 25.3825 20.1483 25.499 20.2006C25.6178 20.2528 25.7521 20.279 25.9018 20.2789C26.0871 20.2789 26.2594 20.2432 26.4186 20.1719C26.5802 20.0982 26.7192 19.9877 26.8356 19.8404L27.3347 20.3821C27.2539 20.4985 27.1434 20.6102 27.0033 20.7172C26.8655 20.8241 26.6991 20.9121 26.5043 20.981C26.3094 21.0476 26.0873 21.0809 25.8377 21.0809ZM25.1135 16.6291L25.8119 15.5311L26.9276 15.5309L25.9475 16.6289L25.1135 16.6291ZM29.0096 17.9758L29.0101 21.0091L27.9835 21.0093L27.9829 17.1526L28.9453 17.1524L29.0096 17.9758ZM28.8601 18.9454L28.582 18.9454C28.582 18.6602 28.6188 18.4036 28.6924 18.1755C28.766 17.9449 28.8694 17.7489 29.0024 17.5873C29.1355 17.4233 29.2935 17.2985 29.4764 17.2129C29.6618 17.125 29.8685 17.081 30.0966 17.0809C30.2772 17.0809 30.4424 17.107 30.5921 17.1593C30.7418 17.2115 30.8702 17.2947 30.9771 17.4087C31.0864 17.5228 31.1696 17.6737 31.2267 17.8614C31.2861 18.0491 31.3159 18.2784 31.3159 18.5493L31.3163 21.0088L30.2826 21.0089L30.2822 18.5459C30.2822 18.3748 30.2584 18.2417 30.2109 18.1467C30.1633 18.0517 30.0932 17.9851 30.0005 17.9471C29.9102 17.9067 29.7985 17.8866 29.6655 17.8866C29.5276 17.8866 29.4076 17.914 29.3055 17.9686C29.2057 18.0233 29.1225 18.0993 29.056 18.1968C28.9918 18.2919 28.9431 18.4035 28.9099 18.5319C28.8767 18.6602 28.86 18.798 28.8601 18.9454ZM33.872 21.0797C33.5726 21.0797 33.3041 21.0322 33.0664 20.9372C32.8288 20.8398 32.6268 20.7056 32.4604 20.5345C32.2964 20.3635 32.1704 20.1651 32.0825 19.9393C31.9945 19.7112 31.9505 19.4688 31.9505 19.2122L31.9505 19.0696C31.9504 18.7773 31.992 18.51 32.0751 18.2676C32.1582 18.0252 32.277 17.8149 32.4314 17.6366C32.5882 17.4584 32.7783 17.3217 33.0017 17.2266C33.225 17.1292 33.4769 17.0804 33.7573 17.0804C34.0306 17.0803 34.273 17.1254 34.4845 17.2157C34.696 17.306 34.8731 17.4343 35.0157 17.6006C35.1606 17.7669 35.27 17.9665 35.3437 18.1994C35.4174 18.4298 35.4543 18.6865 35.4543 18.9693L35.4544 19.397L32.3889 19.3975L32.3888 18.7131L34.4455 18.7128L34.4455 18.6344C34.4455 18.4918 34.4193 18.3647 34.367 18.253C34.3171 18.1389 34.2411 18.0486 34.1389 17.9821C34.0367 17.9156 33.906 17.8823 33.7468 17.8824C33.6113 17.8824 33.4949 17.9121 33.3975 17.9715C33.3 18.031 33.2204 18.1141 33.1587 18.2211C33.0993 18.328 33.0542 18.454 33.0233 18.5989C32.9948 18.7415 32.9806 18.8984 32.9806 19.0695L32.9806 19.212C32.9806 19.3665 33.002 19.5091 33.0448 19.6398C33.09 19.7704 33.153 19.8833 33.2338 19.9784C33.317 20.0734 33.4168 20.147 33.5333 20.1993C33.6521 20.2516 33.7863 20.2777 33.9361 20.2777C34.1214 20.2776 34.2937 20.242 34.4529 20.1706C34.6145 20.0969 34.7535 19.9864 34.8699 19.8391L35.369 20.3808C35.2882 20.4972 35.1777 20.6089 35.0375 20.7159C34.8997 20.8229 34.7334 20.9108 34.5386 20.9798C34.3437 21.0463 34.1215 21.0796 33.872 21.0797ZM33.1477 16.6278L33.8462 15.5298L34.9619 15.5296L33.9818 16.6276L33.1477 16.6278ZM37.3224 21.0078L36.2923 21.008L36.2916 16.9766C36.2916 16.6487 36.3581 16.3718 36.4911 16.146C36.6265 15.9203 36.819 15.7492 37.0685 15.6327C37.3203 15.5162 37.6245 15.4579 37.9809 15.4579C38.1829 15.4578 38.379 15.478 38.5691 15.5184C38.7592 15.5564 38.9553 15.6062 39.1572 15.668L39.0077 16.4914C38.877 16.451 38.7368 16.413 38.587 16.3774C38.4373 16.3418 38.2567 16.324 38.0452 16.324C37.8076 16.3241 37.627 16.3799 37.5035 16.4916C37.3823 16.601 37.3217 16.7626 37.3218 16.9764L37.3224 21.0078ZM38.0881 17.151L38.0883 17.8781L35.7179 17.8785L35.7178 17.1513L38.0881 17.151ZM39.6351 17.1507L39.6357 21.0075L38.6056 21.0076L38.605 17.1509L39.6351 17.1507ZM42.088 20.2764C42.2139 20.2763 42.3256 20.2526 42.423 20.205C42.5204 20.1551 42.5965 20.0862 42.6511 19.9982C42.7081 19.9079 42.7378 19.8022 42.7402 19.681L43.7061 19.6808C43.7038 19.9517 43.6314 20.1929 43.4888 20.4045C43.3463 20.6136 43.155 20.7788 42.915 20.9C42.675 21.0189 42.4065 21.0783 42.1095 21.0784C41.8101 21.0784 41.5487 21.0285 41.3253 20.9288C41.1043 20.829 40.9201 20.6912 40.7727 20.5154C40.6254 20.3372 40.5148 20.1305 40.4411 19.8952C40.3674 19.6576 40.3305 19.4033 40.3305 19.1324L40.3305 19.0291C40.3304 18.7558 40.3672 18.5015 40.4409 18.2663C40.5145 18.0286 40.625 17.8219 40.7723 17.646C40.9196 17.4678 41.1037 17.3287 41.3247 17.2289C41.5457 17.129 41.8047 17.0791 42.1017 17.079C42.4178 17.079 42.6946 17.1395 42.9323 17.2607C43.1723 17.3818 43.36 17.5553 43.4955 17.781C43.6334 18.0044 43.7035 18.2693 43.706 18.5759L42.74 18.576C42.7376 18.4477 42.7102 18.3313 42.6579 18.2267C42.608 18.1222 42.5343 18.039 42.4369 17.9772C42.3418 17.9131 42.2242 17.881 42.084 17.881C41.9343 17.8811 41.8119 17.9132 41.7169 17.9773C41.6218 18.0391 41.5482 18.1247 41.4959 18.234C41.4437 18.341 41.4069 18.4633 41.3855 18.6012C41.3665 18.7366 41.357 18.8792 41.357 19.0289L41.3571 19.1323C41.3571 19.282 41.3666 19.4258 41.3856 19.5636C41.4047 19.7014 41.4403 19.8238 41.4926 19.9307C41.5473 20.0376 41.6222 20.122 41.7172 20.1837C41.8123 20.2455 41.9359 20.2764 42.088 20.2764ZM45.3846 17.1498L45.3852 21.0065L44.3551 21.0067L44.3545 17.15L45.3846 17.1498ZM44.2901 16.1448C44.2901 15.9951 44.3424 15.8715 44.4469 15.7741C44.5515 15.6766 44.6916 15.6279 44.8675 15.6279C45.041 15.6278 45.18 15.6765 45.2846 15.7739C45.3915 15.8714 45.445 15.9949 45.445 16.1446C45.445 16.2943 45.3916 16.4179 45.2847 16.5153C45.1801 16.6128 45.0411 16.6615 44.8677 16.6616C44.6918 16.6616 44.5516 16.6129 44.447 16.5155C44.3425 16.4181 44.2902 16.2945 44.2901 16.1448ZM48.0086 21.0774C47.7092 21.0775 47.4407 21.03 47.2031 20.935C46.9654 20.8376 46.7634 20.7033 46.597 20.5323C46.433 20.3612 46.3071 20.1628 46.2191 19.9371C46.1311 19.709 46.0871 19.4666 46.0871 19.2099L46.0871 19.0674C46.087 18.7751 46.1286 18.5077 46.2117 18.2653C46.2948 18.023 46.4136 17.8126 46.5681 17.6344C46.7249 17.4561 46.9149 17.3195 47.1383 17.2244C47.3617 17.1269 47.6135 17.0782 47.8939 17.0781C48.1672 17.0781 48.4096 17.1232 48.6211 17.2135C48.8326 17.3037 49.0097 17.432 49.1523 17.5983C49.2973 17.7646 49.4066 17.9642 49.4803 18.1971C49.554 18.4276 49.5909 18.6842 49.5909 18.967L49.591 19.3947L46.5256 19.3952L46.5255 18.7109L48.5821 18.7105L48.5821 18.6321C48.5821 18.4895 48.5559 18.3624 48.5037 18.2507C48.4537 18.1367 48.3777 18.0464 48.2755 17.9799C48.1733 17.9133 48.0426 17.8801 47.8834 17.8801C47.7479 17.8801 47.6315 17.9099 47.5341 17.9693C47.4367 18.0287 47.3571 18.1119 47.2953 18.2188C47.2359 18.3258 47.1908 18.4517 47.1599 18.5967C47.1314 18.7393 47.1172 18.8961 47.1172 19.0672L47.1172 19.2098C47.1173 19.3642 47.1387 19.5068 47.1815 19.6375C47.2266 19.7682 47.2896 19.8811 47.3704 19.9761C47.4536 20.0711 47.5534 20.1448 47.6699 20.197C47.7887 20.2493 47.923 20.2754 48.0727 20.2754C48.258 20.2754 48.4303 20.2397 48.5895 20.1684C48.7511 20.0947 48.8901 19.9842 49.0065 19.8368L49.5056 20.3785C49.4248 20.495 49.3143 20.6067 49.1742 20.7137C49.0364 20.8206 48.87 20.9086 48.6752 20.9775C48.4803 21.0441 48.2582 21.0774 48.0086 21.0774ZM53.2447 20.2033L53.2448 21.0053L50.3148 21.0058L50.3147 20.2038L53.2447 20.2033ZM53.1873 17.7403L50.7283 21.0057L50.0404 21.0058L50.0403 20.3963L52.4885 17.1487L53.1872 17.1486L53.1873 17.7403ZM52.8236 17.1486L52.8237 17.9542L50.0969 17.9546L50.0968 17.1491L52.8236 17.1486ZM21.6793 29.1691L21.6786 24.5353L22.7123 24.5352L22.7131 30.0102L21.7828 30.0103L21.6793 29.1691ZM19.2411 28.1287L19.2411 28.0538C19.241 27.7592 19.2742 27.4918 19.3407 27.2518C19.4072 27.0094 19.5046 26.8015 19.6329 26.628C19.7612 26.4545 19.9192 26.3202 20.1069 26.2251C20.2946 26.13 20.5085 26.0825 20.7485 26.0824C20.9743 26.0824 21.1715 26.1299 21.3402 26.2249C21.5113 26.3199 21.6563 26.4554 21.7752 26.6312C21.8964 26.8046 21.9938 27.0102 22.0675 27.2478C22.1412 27.483 22.1947 27.7409 22.2281 28.0213L22.2281 28.1852C22.1949 28.4538 22.1414 28.7033 22.0678 28.9338C21.9942 29.1643 21.8968 29.3663 21.7756 29.5398C21.6568 29.7109 21.5119 29.844 21.3408 29.9391C21.1697 30.0342 20.9701 30.0817 20.742 30.0818C20.502 30.0818 20.2881 30.0331 20.1004 29.9357C19.915 29.8383 19.7582 29.7017 19.6298 29.5259C19.5038 29.35 19.4076 29.1433 19.341 28.9057C19.2744 28.6681 19.2411 28.4091 19.2411 28.1287ZM20.2676 28.0537L20.2676 28.1285C20.2677 28.2877 20.2796 28.4362 20.3033 28.5741C20.3295 28.7119 20.3711 28.8343 20.4282 28.9412C20.4876 29.0457 20.5636 29.1277 20.6563 29.1871C20.7514 29.2441 20.8666 29.2726 21.0021 29.2726C21.1779 29.2726 21.3229 29.2333 21.4369 29.1549C21.551 29.0741 21.6377 28.9636 21.6971 28.8233C21.7588 28.6831 21.7945 28.5215 21.8039 28.3386L21.8039 27.8716C21.7967 27.7219 21.7753 27.5877 21.7396 27.4689C21.7064 27.3477 21.6564 27.2443 21.5899 27.1588C21.5257 27.0732 21.4449 27.0067 21.3475 26.9592C21.2524 26.9117 21.1395 26.8879 21.0088 26.888C20.8758 26.888 20.7617 26.9189 20.6667 26.9807C20.5716 27.0401 20.4944 27.1221 20.435 27.2267C20.378 27.3312 20.3352 27.4548 20.3068 27.5974C20.2806 27.7376 20.2676 27.8897 20.2676 28.0537ZM24.4517 24.5349L24.4518 25.0767C24.4518 25.2311 24.4222 25.3903 24.3628 25.5543C24.3058 25.7183 24.2286 25.874 24.1312 26.0213C24.0338 26.1663 23.9268 26.2899 23.8104 26.3921L23.3292 26.1141C23.4171 25.9739 23.4919 25.8218 23.5537 25.6578C23.6154 25.4915 23.6463 25.299 23.6462 25.0804L23.6462 24.535L24.4517 24.5349ZM27.4715 29.0862L27.4711 26.1527L28.4976 26.1525L28.4982 30.0092L27.5323 30.0094L27.4715 29.0862ZM27.5855 28.2949L27.8885 28.2877C27.8885 28.5443 27.8588 28.7832 27.7995 29.0042C27.7401 29.2228 27.651 29.4129 27.5322 29.5745C27.4134 29.7338 27.2637 29.8585 27.0832 29.9489C26.9026 30.0368 26.6899 30.0808 26.4451 30.0808C26.2574 30.0809 26.0839 30.0548 25.9247 30.0025C25.7679 29.9479 25.6324 29.8635 25.5183 29.7495C25.4066 29.6331 25.3187 29.4846 25.2545 29.304C25.1927 29.121 25.1617 28.9012 25.1617 28.6446L25.1613 26.153L26.1879 26.1529L26.1883 28.6515C26.1883 28.7656 26.2014 28.8618 26.2275 28.9403C26.256 29.0187 26.2953 29.0828 26.3452 29.1327C26.3951 29.1826 26.4533 29.2182 26.5199 29.2396C26.5888 29.261 26.6648 29.2717 26.748 29.2717C26.9595 29.2716 27.1258 29.2288 27.247 29.1433C27.3705 29.0577 27.4573 28.9412 27.5071 28.7939C27.5594 28.6442 27.5855 28.4778 27.5855 28.2949ZM30.2871 26.9756L30.2876 30.0089L29.261 30.0091L29.2604 26.1524L30.2228 26.1522L30.2871 26.9756ZM30.1376 27.9452L29.8595 27.9452C29.8595 27.66 29.8963 27.4034 29.9699 27.1753C30.0435 26.9447 30.1469 26.7487 30.2799 26.5871C30.413 26.4231 30.571 26.2983 30.7539 26.2127C30.9393 26.1248 31.146 26.0808 31.3741 26.0807C31.5547 26.0807 31.7199 26.1068 31.8696 26.1591C32.0193 26.2113 32.1477 26.2945 32.2546 26.4085C32.3639 26.5226 32.4471 26.6735 32.5042 26.8612C32.5636 27.0489 32.5934 27.2782 32.5934 27.5491L32.5938 30.0086L31.5601 30.0087L31.5597 27.5457C31.5597 27.3746 31.5359 27.2415 31.4884 27.1465C31.4408 27.0515 31.3707 26.9849 31.278 26.9469C31.1877 26.9065 31.076 26.8864 30.943 26.8864C30.8051 26.8864 30.6851 26.9137 30.583 26.9684C30.4832 27.0231 30.4 27.0991 30.3335 27.1966C30.2693 27.2916 30.2207 27.4033 30.1874 27.5317C30.1542 27.66 30.1375 27.7978 30.1376 27.9452ZM35.1495 30.0795C34.8501 30.0795 34.5816 30.032 34.3439 29.937C34.1063 29.8396 33.9043 29.7054 33.7379 29.5343C33.5739 29.3633 33.448 29.1649 33.36 28.9391C33.272 28.711 33.228 28.4686 33.228 28.212L33.228 28.0694C33.2279 27.7771 33.2695 27.5098 33.3526 27.2674C33.4357 27.025 33.5545 26.8147 33.7089 26.6364C33.8657 26.4582 34.0558 26.3215 34.2792 26.2264C34.5025 26.129 34.7544 26.0802 35.0348 26.0802C35.3081 26.0801 35.5505 26.1252 35.762 26.2155C35.9735 26.3058 36.1506 26.4341 36.2932 26.6004C36.4381 26.7667 36.5475 26.9663 36.6212 27.1991C36.6949 27.4296 36.7318 27.6863 36.7318 27.9691L36.7319 28.3968L33.6664 28.3973L33.6663 27.7129L35.723 27.7126L35.723 27.6342C35.723 27.4916 35.6968 27.3644 35.6445 27.2528C35.5946 27.1387 35.5186 27.0484 35.4164 26.9819C35.3142 26.9154 35.1835 26.8821 35.0243 26.8822C34.8888 26.8822 34.7724 26.9119 34.675 26.9713C34.5775 27.0308 34.498 27.1139 34.4362 27.2209C34.3768 27.3278 34.3317 27.4538 34.3008 27.5987C34.2723 27.7413 34.2581 27.8982 34.2581 28.0693L34.2581 28.2118C34.2581 28.3663 34.2796 28.5089 34.3223 28.6396C34.3675 28.7702 34.4305 28.8831 34.5113 28.9781C34.5945 29.0732 34.6943 29.1468 34.8108 29.1991C34.9296 29.2514 35.0639 29.2775 35.2136 29.2774C35.3989 29.2774 35.5712 29.2417 35.7304 29.1704C35.892 29.0967 36.031 28.9862 36.1474 28.8389L36.6465 29.3806C36.5657 29.497 36.4552 29.6087 36.315 29.7157C36.1772 29.8227 36.0109 29.9106 35.8161 29.9796C35.6212 30.0461 35.399 30.0794 35.1495 30.0795ZM20.4293 35.995L20.4298 39.0105L19.4032 39.0107L19.4026 35.1539L20.3685 35.1538L20.4293 35.995ZM21.5912 35.1286L21.5735 36.0804C21.5236 36.0732 21.463 36.0673 21.3917 36.0626C21.3228 36.0554 21.2598 36.0519 21.2028 36.0519C21.0578 36.0519 20.9319 36.0709 20.825 36.109C20.7204 36.1446 20.6325 36.1981 20.5612 36.2694C20.4923 36.3407 20.44 36.4275 20.4044 36.5297C20.3712 36.6318 20.3522 36.7483 20.3474 36.879L20.1407 36.8149C20.1406 36.5653 20.1656 36.336 20.2154 36.1269C20.2653 35.9154 20.3377 35.7312 20.4328 35.5744C20.5302 35.4175 20.649 35.2963 20.7892 35.2107C20.9294 35.1252 21.0897 35.0824 21.2703 35.0824C21.3274 35.0823 21.3856 35.0871 21.445 35.0966C21.5044 35.1037 21.5531 35.1144 21.5912 35.1286ZM23.7804 39.0813C23.4809 39.0813 23.2124 39.0338 22.9748 38.9388C22.7371 38.8414 22.5351 38.7072 22.3687 38.5361C22.2048 38.3651 22.0788 38.1667 21.9908 37.9409C21.9029 37.7128 21.8589 37.4704 21.8588 37.2138L21.8588 37.0712C21.8587 36.7789 21.9003 36.5116 21.9834 36.2692C22.0666 36.0268 22.1853 35.8165 22.3398 35.6382C22.4966 35.46 22.6867 35.3233 22.91 35.2282C23.1334 35.1308 23.3853 35.082 23.6657 35.082C23.9389 35.0819 24.1813 35.127 24.3928 35.2173C24.6043 35.3076 24.7814 35.4359 24.924 35.6022C25.069 35.7685 25.1783 35.9681 25.252 36.201C25.3257 36.4314 25.3626 36.6881 25.3626 36.9709L25.3627 37.3986L22.2973 37.3991L22.2972 36.7147L24.3539 36.7144L24.3538 36.636C24.3538 36.4934 24.3277 36.3663 24.2754 36.2546C24.2254 36.1405 24.1494 36.0502 24.0472 35.9837C23.945 35.9172 23.8143 35.8839 23.6551 35.884C23.5196 35.884 23.4032 35.9137 23.3058 35.9731C23.2084 36.0326 23.1288 36.1157 23.067 36.2227C23.0076 36.3296 22.9625 36.4556 22.9316 36.6005C22.9031 36.7431 22.8889 36.9 22.8889 37.0711L22.8889 37.2136C22.889 37.3681 22.9104 37.5107 22.9532 37.6414C22.9983 37.7721 23.0613 37.8849 23.1421 37.98C23.2253 38.075 23.3251 38.1486 23.4416 38.2009C23.5604 38.2532 23.6947 38.2793 23.8444 38.2793C24.0297 38.2792 24.202 38.2436 24.3612 38.1722C24.5228 38.0986 24.6618 37.988 24.7782 37.8407L25.2773 38.3824C25.1965 38.4989 25.0861 38.6106 24.9459 38.7175C24.8081 38.8245 24.6417 38.9124 24.4469 38.9814C24.252 39.0479 24.0299 39.0812 23.7804 39.0813ZM23.0561 34.6294L23.7545 33.5314L24.8702 33.5312L23.8901 34.6293L23.0561 34.6294ZM28.2251 38.1681L28.2243 33.5343L29.258 33.5341L29.2589 39.0091L28.3286 39.0093L28.2251 38.1681ZM25.7868 37.1276L25.7868 37.0528C25.7868 36.7581 25.82 36.4908 25.8865 36.2508C25.953 36.0084 26.0504 35.8004 26.1787 35.6269C26.307 35.4534 26.465 35.3192 26.6527 35.2241C26.8404 35.129 27.0543 35.0814 27.2943 35.0814C27.52 35.0814 27.7173 35.1289 27.886 35.2239C28.0571 35.3189 28.2021 35.4543 28.3209 35.6302C28.4421 35.8036 28.5396 36.0091 28.6133 36.2468C28.687 36.482 28.7405 36.7398 28.7738 37.0202L28.7739 37.1842C28.7406 37.4527 28.6872 37.7022 28.6136 37.9327C28.5399 38.1633 28.4425 38.3653 28.3214 38.5388C28.2026 38.7099 28.0577 38.843 27.8866 38.938C27.7155 39.0331 27.5159 39.0807 27.2878 39.0807C27.0478 39.0807 26.8339 39.0321 26.6462 38.9347C26.4608 38.8373 26.3039 38.7007 26.1756 38.5248C26.0496 38.349 25.9533 38.1423 25.8868 37.9047C25.8202 37.667 25.7869 37.408 25.7868 37.1276ZM26.8134 37.0526L26.8134 37.1275C26.8134 37.2867 26.8253 37.4352 26.8491 37.573C26.8753 37.7108 26.9169 37.8332 26.9739 37.9401C27.0333 38.0447 27.1094 38.1267 27.2021 38.186C27.2971 38.2431 27.4124 38.2716 27.5479 38.2715C27.7237 38.2715 27.8686 38.2323 27.9827 38.1538C28.0967 38.073 28.1835 37.9625 28.2429 37.8223C28.3046 37.6821 28.3402 37.5205 28.3497 37.3375L28.3496 36.8706C28.3425 36.7209 28.3211 36.5866 28.2854 36.4678C28.2521 36.3466 28.2022 36.2433 28.1357 36.1577C28.0715 36.0722 27.9907 36.0057 27.8932 35.9582C27.7982 35.9106 27.6853 35.8869 27.5546 35.8869C27.4215 35.8869 27.3075 35.9179 27.2124 35.9796C27.1174 36.0391 27.0402 36.1211 26.9808 36.2256C26.9238 36.3302 26.881 36.4538 26.8525 36.5964C26.8264 36.7366 26.8134 36.8886 26.8134 37.0526ZM32.342 38.0854L32.3415 35.1519L33.3681 35.1517L33.3687 39.0085L32.4028 39.0086L32.342 38.0854ZM32.456 37.2941L32.7589 37.2869C32.759 37.5436 32.7293 37.7824 32.6699 38.0034C32.6106 38.222 32.5215 38.4121 32.4027 38.5737C32.2839 38.733 32.1342 38.8578 31.9536 38.9481C31.773 39.036 31.5604 39.08 31.3156 39.0801C31.1279 39.0801 30.9544 39.054 30.7952 39.0017C30.6383 38.9471 30.5029 38.8628 30.3888 38.7487C30.2771 38.6323 30.1891 38.4838 30.125 38.3032C30.0631 38.1202 30.0322 37.9004 30.0322 37.6438L30.0318 35.1522L31.0583 35.1521L31.0587 37.6508C31.0588 37.7648 31.0718 37.8611 31.098 37.9395C31.1265 38.0179 31.1657 38.082 31.2157 38.1319C31.2656 38.1818 31.3238 38.2175 31.3903 38.2388C31.4592 38.2602 31.5353 38.2709 31.6185 38.2709C31.83 38.2709 31.9963 38.2281 32.1175 38.1425C32.241 38.0569 32.3277 37.9405 32.3776 37.7931C32.4299 37.6434 32.456 37.4771 32.456 37.2941ZM35.7461 38.2774C35.872 38.2773 35.9837 38.2536 36.0811 38.206C36.1786 38.1561 36.2546 38.0872 36.3092 37.9992C36.3663 37.9089 36.3959 37.8032 36.3983 37.682L37.3643 37.6818C37.3619 37.9527 37.2895 38.1939 37.1469 38.4055C37.0044 38.6146 36.8131 38.7798 36.5731 38.901C36.3332 39.0199 36.0646 39.0793 35.7676 39.0794C35.4682 39.0794 35.2068 39.0295 34.9834 38.9298C34.7624 38.83 34.5782 38.6922 34.4309 38.5164C34.2835 38.3382 34.173 38.1315 34.0993 37.8962C34.0256 37.6586 33.9887 37.4044 33.9886 37.1335L33.9886 37.0301C33.9886 36.7568 34.0254 36.5025 34.099 36.2673C34.1726 36.0296 34.2831 35.8229 34.4304 35.647C34.5777 35.4688 34.7618 35.3297 34.9828 35.2299C35.2038 35.13 35.4628 35.0801 35.7598 35.08C36.0759 35.08 36.3527 35.1405 36.5904 35.2617C36.8304 35.3829 37.0182 35.5563 37.1537 35.782C37.2915 36.0054 37.3617 36.2703 37.3641 36.5769L36.3981 36.577C36.3957 36.4487 36.3684 36.3323 36.3161 36.2277C36.2662 36.1232 36.1925 36.04 36.095 35.9782C36 35.9141 35.8824 35.882 35.7422 35.8821C35.5924 35.8821 35.4701 35.9142 35.375 35.9784C35.28 36.0401 35.2063 36.1257 35.1541 36.235C35.1018 36.342 35.065 36.4644 35.0436 36.6022C35.0246 36.7376 35.0152 36.8802 35.0152 37.0299L35.0152 37.1333C35.0152 37.283 35.0248 37.4268 35.0438 37.5646C35.0628 37.7024 35.0985 37.8248 35.1508 37.9317C35.2055 38.0386 35.2803 38.123 35.3754 38.1847C35.4704 38.2465 35.594 38.2774 35.7461 38.2774ZM39.8483 35.1507L39.8484 35.8778L37.6028 35.8782L37.6027 35.151L39.8483 35.1507ZM38.1586 34.1992L39.1851 34.1991L39.1857 37.8455C39.1857 37.9572 39.2 38.0427 39.2285 38.1022C39.2594 38.1616 39.3046 38.2031 39.364 38.2269C39.4234 38.2483 39.4983 38.2589 39.5886 38.2589C39.6527 38.2589 39.7098 38.2565 39.7597 38.2518C39.8119 38.2446 39.8559 38.2375 39.8915 38.2304L39.8952 38.986C39.8073 39.0146 39.7123 39.0371 39.6101 39.0538C39.5079 39.0705 39.395 39.0788 39.2715 39.0788C39.0457 39.0788 38.8485 39.042 38.6798 38.9684C38.5134 38.8924 38.3851 38.7712 38.2947 38.6049C38.2044 38.4386 38.1592 38.2199 38.1592 37.9491L38.1586 34.1992ZM41.5164 35.1504L41.5171 39.0072L40.4869 39.0073L40.4863 35.1506L41.5164 35.1504ZM40.422 34.1454C40.422 33.9957 40.4742 33.8721 40.5788 33.7747C40.6833 33.6772 40.8235 33.6285 40.9994 33.6285C41.1728 33.6285 41.3119 33.6771 41.4164 33.7746C41.5234 33.872 41.5769 33.9955 41.5769 34.1452C41.5769 34.2949 41.5235 34.4185 41.4165 34.516C41.312 34.6134 41.173 34.6621 40.9995 34.6622C40.8237 34.6622 40.6835 34.6135 40.5789 34.5161C40.4743 34.4187 40.422 34.2951 40.422 34.1454ZM42.2011 37.1179L42.2011 37.043C42.2011 36.7603 42.2414 36.5 42.3222 36.2624C42.4029 36.0224 42.5205 35.8144 42.675 35.6386C42.8294 35.4627 43.0195 35.326 43.2452 35.2286C43.471 35.1287 43.73 35.0788 44.0222 35.0787C44.3145 35.0787 44.5747 35.1285 44.8029 35.2283C45.031 35.3257 45.2223 35.4623 45.3768 35.6381C45.5337 35.814 45.6525 36.0219 45.7334 36.2619C45.8142 36.4995 45.8546 36.7597 45.8547 37.0425L45.8547 37.1173C45.8547 37.3977 45.8144 37.6579 45.7336 37.8979C45.6529 38.1356 45.5341 38.3435 45.3773 38.5218C45.2229 38.6976 45.0328 38.8343 44.807 38.9318C44.5813 39.0292 44.3223 39.078 44.03 39.078C43.7377 39.0781 43.4775 39.0294 43.2494 38.932C43.0236 38.8346 42.8323 38.698 42.6754 38.5222C42.5209 38.344 42.4033 38.1361 42.3225 37.8985C42.2416 37.6585 42.2012 37.3983 42.2011 37.1179ZM43.2277 37.0429L43.2277 37.1177C43.2277 37.2793 43.242 37.4302 43.2705 37.5704C43.2991 37.7106 43.3443 37.8342 43.4061 37.9411C43.4702 38.0456 43.5534 38.1276 43.6556 38.187C43.7578 38.2464 43.8826 38.2761 44.0299 38.276C44.1725 38.276 44.2948 38.2463 44.397 38.1869C44.4992 38.1275 44.5812 38.0455 44.6429 37.9409C44.7047 37.8339 44.7498 37.7104 44.7783 37.5702C44.8092 37.43 44.8246 37.2791 44.8246 37.1175L44.8246 37.0426C44.8245 36.8858 44.8091 36.7385 44.7782 36.6006C44.7496 36.4604 44.7033 36.3369 44.6391 36.23C44.5773 36.1207 44.4953 36.0351 44.3931 35.9734C44.2909 35.9116 44.1673 35.8807 44.0224 35.8807C43.8774 35.8808 43.7539 35.9117 43.6517 35.9735C43.5519 36.0353 43.4699 36.1208 43.4058 36.2301C43.344 36.3371 43.2989 36.4607 43.2704 36.6009C43.2419 36.7387 43.2277 36.886 43.2277 37.0429ZM47.4906 35.9729L47.4911 39.0062L46.4645 39.0064L46.4639 35.1496L47.4263 35.1495L47.4906 35.9729ZM47.3411 36.9424L47.063 36.9425C47.063 36.6573 47.0998 36.4007 47.1734 36.1725C47.247 35.942 47.3504 35.7459 47.4834 35.5843C47.6165 35.4203 47.7745 35.2956 47.9574 35.21C48.1428 35.122 48.3495 35.078 48.5776 35.078C48.7582 35.078 48.9234 35.1041 49.0731 35.1563C49.2228 35.2086 49.3511 35.2918 49.4581 35.4058C49.5674 35.5198 49.6506 35.6707 49.7077 35.8584C49.7671 36.0462 49.7969 36.2755 49.7969 36.5464L49.7973 39.0058L48.7636 39.006L48.7632 36.543C48.7632 36.3719 48.7394 36.2388 48.6919 36.1438C48.6443 36.0487 48.5742 35.9822 48.4815 35.9442C48.3912 35.9038 48.2795 35.8836 48.1464 35.8836C48.0086 35.8837 47.8886 35.911 47.7865 35.9657C47.6867 36.0204 47.6035 36.0964 47.537 36.1938C47.4728 36.2889 47.4241 36.4006 47.3909 36.5289C47.3576 36.6573 47.341 36.7951 47.3411 36.9424ZM21.4897 46.9446C21.4897 46.8709 21.4683 46.8044 21.4255 46.745C21.3827 46.6856 21.3031 46.6309 21.1866 46.581C21.0726 46.5288 20.9074 46.4813 20.6911 46.4385C20.4963 46.3958 20.3145 46.3424 20.1458 46.2782C19.9794 46.2117 19.8344 46.1321 19.7109 46.0395C19.5897 45.9468 19.4946 45.8375 19.4256 45.7116C19.3567 45.5833 19.3222 45.4372 19.3222 45.2732C19.3222 45.1116 19.3566 44.9595 19.4255 44.8169C19.4968 44.6743 19.5977 44.5484 19.7284 44.439C19.8615 44.3273 20.0231 44.2406 20.2131 44.1788C20.4056 44.1146 20.6219 44.0825 20.8619 44.0824C21.1969 44.0824 21.4845 44.1358 21.7245 44.2427C21.9669 44.3496 22.1523 44.4969 22.2806 44.6846C22.4113 44.8699 22.4767 45.0814 22.4768 45.319L21.4502 45.3192C21.4502 45.2194 21.4288 45.1303 21.386 45.0519C21.3456 44.9711 21.2814 44.9081 21.1935 44.863C21.1079 44.8155 20.9962 44.7917 20.8584 44.7917C20.7444 44.7918 20.6457 44.812 20.5626 44.8524C20.4794 44.8904 20.4153 44.9427 20.3701 45.0093C20.3274 45.0734 20.306 45.1447 20.306 45.2231C20.306 45.2825 20.3179 45.336 20.3417 45.3835C20.3678 45.4287 20.4094 45.4702 20.4664 45.5083C20.5235 45.5463 20.5971 45.5819 20.6875 45.6152C20.7801 45.646 20.8942 45.6745 21.0297 45.7007C21.3077 45.7576 21.556 45.8325 21.7747 45.9251C21.9933 46.0154 22.1668 46.1389 22.2951 46.2957C22.4235 46.4502 22.4877 46.6533 22.4877 46.9052C22.4877 47.0763 22.4497 47.2331 22.3737 47.3757C22.2977 47.5183 22.1884 47.6431 22.0458 47.7501C21.9033 47.8546 21.7322 47.9366 21.5326 47.9961C21.3354 48.0531 21.1132 48.0817 20.8661 48.0817C20.5072 48.0818 20.2031 48.0177 19.9535 47.8894C19.7064 47.7611 19.5186 47.5984 19.3903 47.4012C19.2643 47.2016 19.2013 46.9972 19.2013 46.7881L20.1744 46.7879C20.1791 46.9281 20.2148 47.041 20.2813 47.1266C20.3503 47.2121 20.437 47.2739 20.5416 47.3119C20.6485 47.3499 20.7638 47.3689 20.8873 47.3688C21.0204 47.3688 21.1309 47.351 21.2188 47.3153C21.3067 47.2773 21.3733 47.2274 21.4184 47.1656C21.4659 47.1014 21.4897 47.0277 21.4897 46.9446ZM25.4355 47.0865L25.4351 44.153L26.4616 44.1528L26.4622 48.0096L25.4963 48.0097L25.4355 47.0865ZM25.5495 46.2952L25.8524 46.288C25.8525 46.5447 25.8228 46.7835 25.7635 47.0045C25.7041 47.2231 25.615 47.4132 25.4962 47.5748C25.3774 47.7341 25.2277 47.8589 25.0471 47.9492C24.8666 48.0371 24.6539 48.0811 24.4091 48.0812C24.2214 48.0812 24.0479 48.0551 23.8887 48.0028C23.7319 47.9482 23.5964 47.8639 23.4823 47.7498C23.3706 47.6334 23.2827 47.4849 23.2185 47.3043C23.1567 47.1213 23.1257 46.9015 23.1257 46.6449L23.1253 44.1533L24.1519 44.1532L24.1523 46.6519C24.1523 46.7659 24.1654 46.8622 24.1915 46.9406C24.22 47.019 24.2593 47.0831 24.3092 47.133C24.3591 47.1829 24.4173 47.2186 24.4839 47.2399C24.5528 47.2613 24.6288 47.272 24.712 47.272C24.9235 47.272 25.0898 47.2292 25.211 47.1436C25.3345 47.058 25.4213 46.9416 25.4711 46.7942C25.5234 46.6445 25.5495 46.4782 25.5495 46.2952ZM28.2725 44.9937L28.273 48.0093L27.2464 48.0094L27.2458 44.1527L28.2118 44.1525L28.2725 44.9937ZM29.4344 44.1274L29.4167 45.0791C29.3668 45.072 29.3062 45.0661 29.2349 45.0613C29.166 45.0542 29.103 45.0506 29.046 45.0506C28.901 45.0507 28.7751 45.0697 28.6682 45.1077C28.5636 45.1434 28.4757 45.1969 28.4044 45.2682C28.3355 45.3395 28.2833 45.4262 28.2476 45.5284C28.2144 45.6306 28.1954 45.747 28.1907 45.8777L27.9839 45.8136C27.9839 45.5641 28.0088 45.3348 28.0587 45.1257C28.1085 44.9142 28.181 44.73 28.276 44.5731C28.3734 44.4163 28.4922 44.2951 28.6324 44.2095C28.7726 44.1239 28.933 44.0811 29.1136 44.0811C29.1706 44.0811 29.2288 44.0858 29.2882 44.0953C29.3476 44.1025 29.3964 44.1131 29.4344 44.1274ZM32.8204 42.5335L32.8212 48.0085L31.7911 48.0087L31.7902 42.5337L32.8204 42.5335ZM35.7511 47.1383L35.7508 45.4203C35.7508 45.2967 35.7306 45.191 35.6902 45.1031C35.6497 45.0128 35.5868 44.9427 35.5012 44.8928C35.418 44.8429 35.3099 44.818 35.1768 44.818C35.0628 44.818 34.9641 44.8382 34.881 44.8786C34.7978 44.9167 34.7337 44.9725 34.6885 45.0462C34.6434 45.1175 34.6208 45.2018 34.6208 45.2993L33.5943 45.2994C33.5943 45.1355 33.6323 44.9798 33.7083 44.8325C33.7843 44.6851 33.8948 44.5556 34.0397 44.4439C34.1846 44.3298 34.3569 44.2407 34.5565 44.1765C34.7585 44.1123 34.9842 44.0802 35.2337 44.0801C35.5332 44.0801 35.7993 44.1299 36.0322 44.2297C36.2651 44.3295 36.4481 44.4792 36.5812 44.6787C36.7167 44.8783 36.7844 45.1278 36.7845 45.4272L36.7848 47.0776C36.7848 47.2891 36.7979 47.4625 36.824 47.598C36.8502 47.7311 36.8882 47.8475 36.9382 47.9473L36.9382 48.0079L35.9009 48.0081C35.851 47.9035 35.813 47.7728 35.7868 47.616C35.763 47.4568 35.7511 47.2976 35.7511 47.1383ZM35.8863 45.6591L35.8935 46.2401L35.3196 46.2402C35.1842 46.2402 35.0666 46.2557 34.9668 46.2866C34.867 46.3175 34.785 46.3615 34.7208 46.4185C34.6567 46.4732 34.6092 46.5373 34.5783 46.611C34.5498 46.6847 34.5355 46.7655 34.5355 46.8534C34.5356 46.9413 34.5558 47.0209 34.5962 47.0922C34.6366 47.1611 34.6948 47.2157 34.7709 47.2561C34.8469 47.2941 34.936 47.3131 35.0382 47.3131C35.1927 47.3131 35.3269 47.2822 35.441 47.2204C35.555 47.1586 35.6429 47.0825 35.7047 46.9922C35.7689 46.9019 35.8021 46.8164 35.8045 46.7356L36.0754 47.1704C36.0374 47.2678 35.9852 47.3688 35.9187 47.4734C35.8545 47.5779 35.7725 47.6766 35.6728 47.7693C35.573 47.8596 35.453 47.9345 35.3128 47.9939C35.1726 48.0509 35.0063 48.0795 34.8138 48.0795C34.569 48.0796 34.3468 48.0309 34.1472 47.9335C33.9499 47.8337 33.7931 47.6971 33.6766 47.5236C33.5625 47.3478 33.5055 47.1482 33.5054 46.9248C33.5054 46.7229 33.5434 46.5434 33.6194 46.3866C33.6954 46.2297 33.8071 46.0978 33.9544 45.9909C34.1041 45.8815 34.2906 45.7995 34.514 45.7448C34.7373 45.6878 34.9964 45.6592 35.291 45.6592L35.8863 45.6591ZM20.4888 51.5355L20.4897 57.0105L19.4595 57.0107L19.4587 51.5357L20.4888 51.5355ZM22.421 53.1535L22.4216 57.0102L21.3915 57.0104L21.3908 53.1536L22.421 53.1535ZM21.3265 52.1485C21.3265 51.9987 21.3788 51.8752 21.4833 51.7777C21.5878 51.6803 21.728 51.6315 21.9039 51.6315C22.0774 51.6315 22.2164 51.6802 22.321 51.7776C22.4279 51.875 22.4814 51.9986 22.4814 52.1483C22.4814 52.298 22.428 52.4216 22.3211 52.519C22.2165 52.6164 22.0775 52.6652 21.9041 52.6652C21.7282 52.6652 21.588 52.6165 21.4834 52.5191C21.3788 52.4217 21.3266 52.2982 21.3265 52.1485ZM24.5815 56.2613L25.4365 53.153L26.5094 53.1528L25.209 57.0098L24.5603 57.0099L24.5815 56.2613ZM23.9929 53.1532L24.8524 56.2648L24.8704 57.0098L24.2181 57.0099L22.9164 53.1534L23.9929 53.1532ZM27.9959 53.9938L27.9964 57.0093L26.9698 57.0095L26.9692 53.1527L27.9352 53.1526L27.9959 53.9938ZM29.1578 53.1274L29.1401 54.0791C29.0902 54.072 29.0296 54.0661 28.9583 54.0614C28.8894 54.0542 28.8264 54.0507 28.7694 54.0507C28.6245 54.0507 28.4985 54.0697 28.3916 54.1078C28.287 54.1434 28.1991 54.1969 28.1278 54.2682C28.0589 54.3395 28.0067 54.4263 27.971 54.5285C27.9378 54.6306 27.9188 54.7471 27.9141 54.8778L27.7073 54.8137C27.7073 54.5641 27.7322 54.3348 27.7821 54.1257C27.8319 53.9142 27.9044 53.73 27.9994 53.5732C28.0968 53.4163 28.2156 53.2951 28.3558 53.2095C28.496 53.124 28.6564 53.0812 28.837 53.0811C28.894 53.0811 28.9522 53.0859 29.0116 53.0954C29.071 53.1025 29.1198 53.1132 29.1578 53.1274ZM31.6035 56.139L31.6032 54.4209C31.6032 54.2974 31.583 54.1916 31.5426 54.1037C31.5021 54.0134 31.4392 53.9433 31.3536 53.8934C31.2704 53.8436 31.1623 53.8186 31.0292 53.8186C30.9152 53.8187 30.8166 53.8389 30.7334 53.8793C30.6502 53.9173 30.5861 53.9732 30.5409 54.0468C30.4958 54.1181 30.4732 54.2025 30.4733 54.2999L29.4467 54.3001C29.4467 54.1361 29.4847 53.9805 29.5607 53.8331C29.6367 53.6858 29.7472 53.5563 29.8921 53.4446C30.0371 53.3305 30.2093 53.2413 30.4089 53.1771C30.6109 53.1129 30.8366 53.0808 31.0861 53.0808C31.3856 53.0807 31.6517 53.1306 31.8846 53.2304C32.1175 53.3301 32.3005 53.4798 32.4336 53.6794C32.5691 53.879 32.6369 54.1285 32.6369 54.4279L32.6372 56.0782C32.6372 56.2897 32.6503 56.4632 32.6765 56.5987C32.7026 56.7317 32.7407 56.8482 32.7906 56.948L32.7906 57.0085L31.7533 57.0087C31.7034 56.9042 31.6654 56.7735 31.6392 56.6166C31.6154 56.4574 31.6035 56.2982 31.6035 56.139ZM31.7387 54.6597L31.7459 55.2407L31.172 55.2408C31.0366 55.2409 30.919 55.2563 30.8192 55.2872C30.7194 55.3181 30.6374 55.3621 30.5732 55.4192C30.5091 55.4738 30.4616 55.538 30.4307 55.6117C30.4022 55.6853 30.3879 55.7661 30.388 55.854C30.388 55.942 30.4082 56.0216 30.4486 56.0929C30.489 56.1618 30.5472 56.2164 30.6233 56.2568C30.6993 56.2948 30.7884 56.3138 30.8906 56.3138C31.0451 56.3138 31.1793 56.2828 31.2934 56.221C31.4074 56.1592 31.4953 56.0832 31.5571 55.9929C31.6213 55.9026 31.6545 55.817 31.6569 55.7362L31.9279 56.171C31.8898 56.2685 31.8376 56.3695 31.7711 56.474C31.7069 56.5786 31.625 56.6772 31.5252 56.7699C31.4254 56.8602 31.3054 56.9351 31.1652 56.9945C31.025 57.0516 30.8587 57.0801 30.6662 57.0802C30.4214 57.0802 30.1992 57.0315 29.9996 56.9341C29.8024 56.8344 29.6455 56.6978 29.529 56.5243C29.4149 56.3485 29.3579 56.1489 29.3578 55.9255C29.3578 55.7235 29.3958 55.5441 29.4718 55.3872C29.5478 55.2304 29.6595 55.0985 29.8068 54.9915C29.9565 54.8822 30.143 54.8002 30.3664 54.7455C30.5898 54.6884 30.8488 54.6599 31.1434 54.6598L31.7387 54.6597ZM34.5116 53.1515L34.5122 57.0083L33.4821 57.0084L33.4815 53.1517L34.5116 53.1515ZM33.4172 52.1465C33.4171 51.9968 33.4694 51.8732 33.5739 51.7758C33.6785 51.6784 33.8187 51.6296 33.9945 51.6296C34.168 51.6296 34.307 51.6783 34.4116 51.7757C34.5185 51.8731 34.572 51.9966 34.572 52.1463C34.5721 52.2961 34.5186 52.4196 34.4117 52.5171C34.3072 52.6145 34.1681 52.6633 33.9947 52.6633C33.8188 52.6633 33.6786 52.6146 33.574 52.5172C33.4695 52.4198 33.4172 52.2962 33.4172 52.1465ZM37.4456 55.942C37.4456 55.8684 37.4242 55.8018 37.3814 55.7424C37.3386 55.683 37.259 55.6284 37.1426 55.5785C37.0285 55.5262 36.8633 55.4787 36.6471 55.436C36.4522 55.3933 36.2704 55.3398 36.1017 55.2757C35.9353 55.2092 35.7904 55.1296 35.6668 55.0369C35.5456 54.9443 35.4505 54.835 35.3816 54.7091C35.3126 54.5808 35.2782 54.4346 35.2781 54.2707C35.2781 54.1091 35.3125 53.957 35.3814 53.8144C35.4527 53.6718 35.5537 53.5458 35.6843 53.4365C35.8174 53.3248 35.979 53.238 36.1691 53.1762C36.3615 53.112 36.5778 53.0799 36.8178 53.0799C37.1528 53.0798 37.4404 53.1332 37.6804 53.2401C37.9228 53.347 38.1082 53.4943 38.2365 53.682C38.3673 53.8674 38.4326 54.0789 38.4327 54.3165L37.4061 54.3167C37.4061 54.2168 37.3847 54.1277 37.3419 54.0493C37.3015 53.9685 37.2373 53.9056 37.1494 53.8604C37.0639 53.8129 36.9522 53.7892 36.8143 53.7892C36.7003 53.7892 36.6017 53.8094 36.5185 53.8498C36.4353 53.8879 36.3712 53.9402 36.326 54.0067C36.2833 54.0709 36.2619 54.1422 36.2619 54.2206C36.2619 54.28 36.2738 54.3335 36.2976 54.381C36.3237 54.4261 36.3653 54.4677 36.4224 54.5057C36.4794 54.5437 36.5531 54.5794 36.6434 54.6126C36.7361 54.6435 36.8501 54.672 36.9856 54.6981C37.2636 54.7551 37.5119 54.8299 37.7306 54.9226C37.9492 55.0128 38.1227 55.1364 38.2511 55.2932C38.3794 55.4476 38.4436 55.6508 38.4436 55.9027C38.4437 56.0738 38.4057 56.2306 38.3296 56.3732C38.2536 56.5158 38.1443 56.6406 38.0018 56.7475C37.8592 56.8521 37.6881 56.9341 37.4885 56.9935C37.2913 57.0506 37.0691 57.0792 36.822 57.0792C36.4632 57.0793 36.159 57.0151 35.9095 56.8869C35.6623 56.7586 35.4745 56.5958 35.3462 56.3986C35.2202 56.199 35.1572 55.9947 35.1572 55.7856L36.1303 55.7854C36.1351 55.9256 36.1707 56.0385 36.2373 56.124C36.3062 56.2095 36.3929 56.2713 36.4975 56.3093C36.6044 56.3473 36.7197 56.3663 36.8433 56.3663C36.9763 56.3663 37.0868 56.3484 37.1747 56.3128C37.2627 56.2747 37.3292 56.2248 37.3743 56.163C37.4218 56.0989 37.4456 56.0252 37.4456 55.942ZM38.9461 55.1184L38.9461 55.0436C38.946 54.7608 38.9864 54.5006 39.0671 54.2629C39.1479 54.0229 39.2655 53.815 39.4199 53.6391C39.5744 53.4632 39.7644 53.3265 39.9902 53.2291C40.2159 53.1292 40.4749 53.0793 40.7672 53.0793C41.0595 53.0792 41.3197 53.1291 41.5478 53.2288C41.776 53.3262 41.9673 53.4628 42.1218 53.6387C42.2786 53.8145 42.3975 54.0224 42.4783 54.2624C42.5592 54.5 42.5996 54.7602 42.5996 55.043L42.5997 55.1178C42.5997 55.3982 42.5593 55.6584 42.4786 55.8985C42.3978 56.1361 42.2791 56.344 42.1222 56.5223C41.9678 56.6982 41.7777 56.8348 41.552 56.9323C41.3263 57.0298 41.0673 57.0785 40.775 57.0786C40.4827 57.0786 40.2225 57.0299 39.9943 56.9325C39.7686 56.8352 39.5773 56.6985 39.4204 56.5227C39.2659 56.3445 39.1482 56.1366 39.0674 55.899C38.9866 55.659 38.9461 55.3988 38.9461 55.1184ZM39.9726 55.0434L39.9727 55.1182C39.9727 55.2798 39.987 55.4307 40.0155 55.5709C40.044 55.7111 40.0892 55.8347 40.151 55.9416C40.2152 56.0462 40.2984 56.1281 40.4006 56.1875C40.5027 56.2469 40.6275 56.2766 40.7748 56.2766C40.9174 56.2765 41.0398 56.2468 41.142 56.1874C41.2441 56.128 41.3261 56.046 41.3879 55.9414C41.4496 55.8345 41.4948 55.7109 41.5233 55.5707C41.5541 55.4305 41.5696 55.2796 41.5695 55.118L41.5695 55.0431C41.5695 54.8863 41.554 54.739 41.5231 54.6012C41.4946 54.461 41.4482 54.3374 41.384 54.2305C41.3222 54.1212 41.2402 54.0356 41.138 53.9739C41.0359 53.9121 40.9123 53.8812 40.7673 53.8813C40.6224 53.8813 40.4988 53.9122 40.3966 53.974C40.2968 54.0358 40.2149 54.1213 40.1507 54.2307C40.089 54.3376 40.0438 54.4612 40.0153 54.6014C39.9869 54.7392 39.9726 54.8866 39.9726 55.0434ZM44.2356 53.9734L44.236 57.0067L43.2095 57.0069L43.2089 53.1502L44.1713 53.15L44.2356 53.9734ZM44.086 54.9429L43.808 54.943C43.8079 54.6578 43.8447 54.4012 43.9184 54.173C43.992 53.9425 44.0953 53.7465 44.2284 53.5849C44.3614 53.4209 44.5194 53.2961 44.7024 53.2105C44.8877 53.1226 45.0944 53.0786 45.3226 53.0785C45.5032 53.0785 45.6683 53.1046 45.818 53.1569C45.9678 53.2091 46.0961 53.2923 46.203 53.4063C46.3124 53.5204 46.3956 53.6712 46.4526 53.859C46.5121 54.0467 46.5418 54.276 46.5419 54.5469L46.5422 57.0064L45.5086 57.0065L45.5082 54.5435C45.5081 54.3724 45.4843 54.2393 45.4368 54.1443C45.3893 54.0492 45.3192 53.9827 45.2265 53.9447C45.1362 53.9043 45.0245 53.8841 44.8914 53.8842C44.7536 53.8842 44.6336 53.9115 44.5314 53.9662C44.4316 54.0209 44.3485 54.0969 44.2819 54.1944C44.2178 54.2894 44.1691 54.4011 44.1358 54.5294C44.1026 54.6578 44.086 54.7956 44.086 54.9429Z" fill="black"/>
<defs>
<filter id="filter0_d_1439_13459" x="-11" y="-13" width="320" height="178" filterUnits="userSpaceOnUse" color-interpolation-filters="sRGB">
<feFlood flood-opacity="0" result="BackgroundImageFix"/>
<feColorMatrix in="SourceAlpha" type="matrix" values="0 0 0 0 0 0 0 0 0 0 0 0 0 0 0 0 0 0 127 0" result="hardAlpha"/>
<feOffset/>
<feGaussianBlur stdDeviation="5"/>
<feComposite in2="hardAlpha" operator="out"/>
<feColorMatrix type="matrix" values="0 0 0 0 0 0 0 0 0 0 0 0 0 0 0 0 0 0 0.25 0"/>
<feBlend mode="normal" in2="BackgroundImageFix" result="effect1_dropShadow_1439_13459"/>
<feBlend mode="normal" in="SourceGraphic" in2="effect1_dropShadow_1439_13459" result="shape"/>
</filter>
<filter id="filter1_d_1439_13459" x="10.96" y="7.82275" width="163.833" height="95.3545" filterUnits="userSpaceOnUse" color-interpolation-filters="sRGB">
<feFlood flood-opacity="0" result="BackgroundImageFix"/>
<feColorMatrix in="SourceAlpha" type="matrix" values="0 0 0 0 0 0 0 0 0 0 0 0 0 0 0 0 0 0 127 0" result="hardAlpha"/>
<feOffset dy="4"/>
<feGaussianBlur stdDeviation="2"/>
<feComposite in2="hardAlpha" operator="out"/>
<feColorMatrix type="matrix" values="0 0 0 0 0 0 0 0 0 0 0 0 0 0 0 0 0 0 0.25 0"/>
<feBlend mode="normal" in2="BackgroundImageFix" result="effect1_dropShadow_1439_13459"/>
<feBlend mode="normal" in="SourceGraphic" in2="effect1_dropShadow_1439_13459" result="shape"/>
</filter>
<clipPath id="clip0_1439_13459">
<rect width="187" height="103" fill="white"/>
</clipPath>
<clipPath id="clip1_1439_13459">
<rect x="14.96" y="7.82275" width="155.833" height="87.3544" rx="10" fill="white"/>
</clipPath>
</defs>
</svg>
