<svg width="27" height="21" viewBox="0 0 27 21" fill="none" xmlns="http://www.w3.org/2000/svg">
<g filter="url(#filter0_d_270_6614)">
<path d="M25.547 8.95742C25.547 10.8096 24.0398 12.3168 22.1877 12.3168H16.853C17.9996 13.5967 17.9492 15.7042 16.7242 16.9315C16.0942 17.5612 15.2399 17.915 14.3491 17.915C13.4583 17.915 12.604 17.5612 11.974 16.9315L4 8.95742L11.974 0.983385C12.604 0.3536 13.4583 -0.000192642 14.3491 -0.000192642C15.2399 -0.000192642 16.0942 0.3536 16.7242 0.983385C17.9504 2.20844 18.0008 4.31925 16.853 5.59805L22.1877 5.59805C24.0398 5.59805 25.547 7.10529 25.547 8.95742ZM11.4533 10.0772H22.1877C22.476 10.0643 22.7482 9.9407 22.9477 9.73211C23.1472 9.52353 23.2585 9.24604 23.2585 8.95742C23.2585 8.66881 23.1472 8.39132 22.9477 8.18273C22.7482 7.97414 22.476 7.85053 22.1877 7.83763L11.4533 7.83763L15.1408 4.15016C15.3446 3.93699 15.4584 3.65341 15.4584 3.35846C15.4584 3.06352 15.3446 2.77994 15.1408 2.56677C14.9308 2.35684 14.646 2.23891 14.3491 2.23891C14.0522 2.23891 13.7674 2.35684 13.5574 2.56677L7.16677 8.95742L13.5574 15.3481C13.7674 15.558 14.0522 15.6759 14.3491 15.6759C14.646 15.6759 14.9308 15.558 15.1408 15.3481C15.3446 15.1349 15.4584 14.8513 15.4584 14.5564C15.4584 14.2614 15.3446 13.9779 15.1408 13.7647L11.4533 10.0772Z" fill="white"/>
</g>
<defs>
<filter id="filter0_d_270_6614" x="0" y="0" width="29.5471" height="25.915" filterUnits="userSpaceOnUse" color-interpolation-filters="sRGB">
<feFlood flood-opacity="0" result="BackgroundImageFix"/>
<feColorMatrix in="SourceAlpha" type="matrix" values="0 0 0 0 0 0 0 0 0 0 0 0 0 0 0 0 0 0 127 0" result="hardAlpha"/>
<feOffset dy="4"/>
<feGaussianBlur stdDeviation="2"/>
<feComposite in2="hardAlpha" operator="out"/>
<feColorMatrix type="matrix" values="0 0 0 0 0 0 0 0 0 0 0 0 0 0 0 0 0 0 0.25 0"/>
<feBlend mode="normal" in2="BackgroundImageFix" result="effect1_dropShadow_270_6614"/>
<feBlend mode="normal" in="SourceGraphic" in2="effect1_dropShadow_270_6614" result="shape"/>
</filter>
</defs>
</svg>
